SplineFontDB: 3.0
FontName: Oldenburg-Regular
FullName: Oldenburg
FamilyName: Oldenburg
Weight: Book
Copyright: Copyright (c) 2010 by Sorkin Type Co with Reserved Font Name Oldenburgh.
Version: 1.001
ItalicAngle: 0
UnderlinePosition: -50
UnderlineWidth: 50
Ascent: 1638
Descent: 410
LayerCount: 2
Layer: 0 1 "Back"  1
Layer: 1 1 "Fore"  0
XUID: [1021 631 1661839179 16732250]
FSType: 0
OS2Version: 3
OS2_WeightWidthSlopeOnly: 0
OS2_UseTypoMetrics: 1
CreationTime: 1323822960
ModificationTime: 1323832206
PfmFamily: 17
TTFWeight: 400
TTFWidth: 5
LineGap: 9
VLineGap: 0
Panose: 2 0 0 0 0 0 0 0 0 0
OS2TypoAscent: 382
OS2TypoAOffset: 1
OS2TypoDescent: -130
OS2TypoDOffset: 1
OS2TypoLinegap: 0
OS2WinAscent: 0
OS2WinAOffset: 1
OS2WinDescent: 0
OS2WinDOffset: 1
HheadAscent: 0
HheadAOffset: 1
HheadDescent: 0
HheadDOffset: 1
OS2SubXSize: 1434
OS2SubYSize: 1331
OS2SubXOff: 0
OS2SubYOff: 287
OS2SupXSize: 1434
OS2SupYSize: 1331
OS2SupXOff: 0
OS2SupYOff: 977
OS2StrikeYSize: 102
OS2StrikeYPos: 512
OS2Vendor: 'STC '
OS2CodePages: 20000193.4d000000
OS2UnicodeRanges: a00000af.4800204a.14000000.00000000
DEI: 91125
TtTable: prep
PUSHW_1
 511
SCANCTRL
PUSHB_1
 4
SVTCA[y-axis]
EndTTInstrs
ShortTable: maxp 16
  1
  0
  426
  216
  7
  243
  4
  1
  0
  0
  0
  0
  0
  0
  2
  1
EndShort

StartChar: H
Encoding: 72 72 4
Width: 1704
Flags: HW
LayerCount: 2
Fore
SplineSet
408 6 m 1,0,-1
 208 0 l 1,1,2
 163 0 163 0 137 21.5 c 128,-1,3
 111 43 111 43 111 79 c 256,4,5
 111 115 111 115 141.5 138 c 128,-1,6
 172 161 172 161 225 161 c 2,7,-1
 307 161 l 1,8,-1
 307 1394 l 1,9,-1
 225 1394 l 2,10,11
 172 1394 172 1394 141.5 1416 c 128,-1,12
 111 1438 111 1438 111 1474 c 256,13,14
 111 1510 111 1510 137 1532.5 c 128,-1,15
 163 1555 163 1555 208 1555 c 1,16,-1
 408 1548 l 1,17,-1
 595 1555 l 1,18,19
 675 1555 675 1555 696 1506 c 0,20,21
 702 1492 702 1492 702 1477 c 0,22,23
 702 1394 702 1394 574 1394 c 2,24,-1
 493 1394 l 1,25,-1
 493 996 l 1,26,-1
 1211 996 l 1,27,-1
 1211 1394 l 1,28,-1
 1117 1394 l 2,29,30
 1066 1394 1066 1394 1035 1416 c 128,-1,31
 1004 1438 1004 1438 1004 1474 c 256,32,33
 1004 1510 1004 1510 1030 1532.5 c 128,-1,34
 1056 1555 1056 1555 1102 1555 c 1,35,-1
 1301 1548 l 1,36,-1
 1486 1555 l 1,37,38
 1567.25 1555 1567.25 1555 1586.5 1506 c 0,39,40
 1592 1492 1592 1492 1592 1477 c 0,41,42
 1592 1394 1592 1394 1468 1394 c 2,43,-1
 1396 1394 l 1,44,-1
 1396 161 l 1,45,-1
 1468 161 l 2,46,47
 1537 161 1537 161 1564.5 136.5 c 128,-1,48
 1592 112 1592 112 1592 87 c 128,-1,49
 1592 62 1592 62 1586.5 48.5 c 128,-1,50
 1581 35 1581 35 1568.5 24 c 0,51,52
 1541.23 1.96017e-05 1541.23 1.96017e-05 1486 0 c 1,53,-1
 1301 6 l 1,54,-1
 1102 0 l 1,55,56
 1056 0 1056 0 1030 21.5 c 128,-1,57
 1004 43 1004 43 1004 79 c 256,58,59
 1004 115 1004 115 1035 138 c 128,-1,60
 1066 161 1066 161 1117 161 c 2,61,-1
 1211 161 l 1,62,-1
 1211 849 l 1,63,-1
 493 849 l 1,64,-1
 493 161 l 1,65,-1
 574 161 l 2,66,67
 644 161 644 161 673 136.5 c 128,-1,68
 702 112 702 112 702 87 c 128,-1,69
 702 62 702 62 696 48.5 c 128,-1,70
 690 35 690 35 677.5 24 c 0,71,72
 650.227 1.96017e-05 650.227 1.96017e-05 595 0 c 1,73,-1
 408 6 l 1,0,-1
EndSplineSet
EndChar

StartChar: I
Encoding: 73 73 5
Width: 850
Flags: HW
LayerCount: 2
Fore
SplineSet
426 6 m 1,0,-1
 236 0 l 1,1,2
 191 0 191 0 165 21.5 c 128,-1,3
 139 43 139 43 139 79 c 256,4,5
 139 115 139 115 169.5 138 c 128,-1,6
 200 161 200 161 251 161 c 2,7,-1
 336 161 l 1,8,-1
 336 1394 l 1,9,-1
 251 1394 l 2,10,11
 200 1394 200 1394 169.5 1416 c 128,-1,12
 139 1438 139 1438 139 1474 c 256,13,14
 139 1510 139 1510 165 1532.5 c 128,-1,15
 191 1555 191 1555 236 1555 c 1,16,-1
 426 1548 l 1,17,-1
 601 1555 l 1,18,19
 683.25 1555 683.25 1555 702.5 1506 c 0,20,21
 708 1492 708 1492 708 1477 c 0,22,23
 708 1394 708 1394 582 1394 c 2,24,-1
 522 1394 l 1,25,-1
 522 161 l 1,26,-1
 582 161 l 2,27,28
 652 161 652 161 680 136.5 c 128,-1,29
 708 112 708 112 708 87 c 128,-1,30
 708 62 708 62 702.5 48.5 c 128,-1,31
 697 35 697 35 684 24 c 0,32,33
 655.636 -9.53091e-06 655.636 -9.53091e-06 601 0 c 1,34,-1
 426 6 l 1,0,-1
EndSplineSet
EndChar

StartChar: N
Encoding: 78 78 6
Width: 1835
Flags: HW
LayerCount: 2
Fore
SplineSet
432 6 m 1,0,-1
 232 0 l 1,1,2
 188 0 188 0 162.5 21.5 c 128,-1,3
 137 43 137 43 137 79 c 256,4,5
 137 115 137 115 167 138 c 128,-1,6
 197 161 197 161 249 161 c 2,7,-1
 345 161 l 1,8,-1
 345 1398 l 1,9,-1
 260 1390 l 1,10,11
 188 1387 188 1387 153.5 1411.5 c 128,-1,12
 119 1436 119 1436 119 1476 c 0,13,14
 119 1555 119 1555 252 1555 c 0,15,16
 442.067 1555 442.067 1555 521 1518 c 0,17,18
 584.301 1488.33 584.301 1488.33 625.65 1435.16 c 128,-1,19
 667 1382 667 1382 698 1333 c 2,20,-1
 1345 300 l 1,21,22
 1338 405 1338 405 1338 473 c 2,23,-1
 1338 1394 l 1,24,-1
 1244 1394 l 2,25,26
 1193 1394 1193 1394 1162 1416 c 128,-1,27
 1131 1438 1131 1438 1131 1474 c 256,28,29
 1131 1510 1131 1510 1157.5 1532.5 c 128,-1,30
 1184 1555 1184 1555 1228 1555 c 1,31,32
 1428 1548 l 1,33,-1
 1614 1555 l 1,34,35
 1695.25 1555 1695.25 1555 1714.5 1506 c 0,36,37
 1720 1492 1720 1492 1720 1477 c 0,38,39
 1720 1394 1720 1394 1595 1394 c 2,40,-1
 1522 1394 l 1,41,-1
 1522 162 l 1,42,-1
 1574 162 l 2,43,44
 1704 162 1704 162 1704 78 c 0,45,46
 1704 0 1704 0 1574 0 c 2,47,-1
 1486 0 l 2,48,49
 1418 0 1418 0 1366.5 31 c 128,-1,50
 1315 62 1315 62 1286 105 c 1,51,-1
 520 1301 l 1,52,53
 529 1205.6 529 1205.6 529 1090 c 2,54,-1
 529 161 l 1,55,-1
 600 161 l 2,56,57
 669 161 669 161 697.5 136.5 c 128,-1,58
 726 112 726 112 726 87 c 128,-1,59
 726 62 726 62 720 48.5 c 128,-1,60
 714 35 714 35 701.5 24 c 0,61,62
 674.227 1.96017e-05 674.227 1.96017e-05 619 0 c 1,63,-1
 432 6 l 1,0,-1
EndSplineSet
EndChar

StartChar: O
Encoding: 79 79 7
Width: 1706
Flags: HW
LayerCount: 2
Fore
SplineSet
130.5 448 m 128,-1,1
 76 589 76 589 76 731 c 128,-1,2
 76 873 76 873 104.5 978.5 c 128,-1,3
 133 1084 133 1084 184.5 1173 c 128,-1,4
 236 1262 236 1262 308.5 1333 c 128,-1,5
 381 1404 381 1404 468 1453 c 0,6,7
 649.102 1555 649.102 1555 862 1555 c 0,8,9
 1015 1555 1015 1555 1154.5 1503 c 128,-1,10
 1294 1451 1294 1451 1400.5 1353 c 128,-1,11
 1507 1255 1507 1255 1570 1114 c 128,-1,12
 1633 973 1633 973 1633 795.5 c 128,-1,13
 1633 618 1633 618 1578.5 470 c 128,-1,14
 1524 322 1524 322 1421.5 214 c 0,15,16
 1204.16 -15 1204.16 -15 840 -15 c 0,17,18
 499.146 -15 499.146 -15 285 204.5 c 0,19,0
 185 307 185 307 130.5 448 c 128,-1,1
259 769 m 0,20,21
 259 639 259 639 298.5 527 c 128,-1,22
 338 415 338 415 414 332 c 0,23,24
 578.819 152 578.819 152 850 152 c 0,25,26
 1109.46 152 1109.46 152 1275.5 317 c 0,27,28
 1445 485.434 1445 485.434 1445 758 c 0,29,30
 1445 1064.81 1445 1064.81 1273 1231.5 c 0,31,32
 1111.52 1388 1111.52 1388 838 1388 c 0,33,34
 594.371 1388 594.371 1388 427.5 1210.5 c 0,35,36
 259 1031.27 259 1031.27 259 769 c 0,20,21
EndSplineSet
EndChar

StartChar: S
Encoding: 83 83 8
Width: 1366
Flags: HW
LayerCount: 2
Fore
SplineSet
835 1569 m 1,0,1
 827.102 1616.39 827.102 1616.39 852.551 1637.69 c 128,-1,2
 878 1659 878 1659 897 1659 c 128,-1,3
 916 1659 916 1659 929.5 1654 c 128,-1,4
 943 1649 943 1649 958 1635 c 0,5,6
 987.829 1607.16 987.829 1607.16 1017.91 1544.58 c 0,7,8
 1060.58 1455.83 1060.58 1455.83 1102.79 1403.42 c 2,9,-1
 1160.5 1331.5 l 2,10,11
 1204 1276.77 1204 1276.77 1204 1237.39 c 0,12,13
 1204 1154 1204 1154 1130 1154 c 0,14,15
 1070.55 1154 1070.55 1154 1017 1240 c 0,16,17
 953.025 1343.96 953.025 1343.96 921.012 1368.48 c 0,18,19
 872.028 1406 872.028 1406 818.514 1406 c 128,-1,20
 765 1406 765 1406 726 1401.5 c 128,-1,21
 687 1397 687 1397 650 1389 c 0,22,23
 464.43 1348.88 464.43 1348.88 401.5 1220.5 c 0,24,25
 389 1195 389 1195 389 1163 c 128,-1,26
 389 1131 389 1131 403 1101 c 128,-1,27
 417 1071 417 1071 450.5 1049 c 0,28,29
 514.742 1006.81 514.742 1006.81 679.871 990.906 c 128,-1,30
 845 975 845 975 961 938.5 c 128,-1,31
 1077 902 1077 902 1150 844 c 0,32,33
 1288.86 733.671 1288.86 733.671 1293 533 c 0,34,35
 1296.79 373.649 1296.79 373.649 1203 239.5 c 0,36,37
 1119.59 120.21 1119.59 120.21 987 55 c 0,38,39
 903 14 903 14 819.5 1.5 c 128,-1,40
 736 -11 736 -11 680 -13.5 c 0,41,42
 600.421 -17.0526 600.421 -17.0526 528 -8 c 1,43,44
 509 -56 509 -56 487.5 -77 c 128,-1,45
 466 -98 466 -98 433 -98 c 0,46,47
 349 -98 349 -98 341 -15 c 0,48,49
 333.526 62.2291 333.526 62.2291 268.5 157.5 c 1,50,-1
 140.5 336 l 2,51,52
 80.2472 420.947 80.2472 420.947 71.6236 448.973 c 128,-1,53
 63 477 63 477 63 502.5 c 128,-1,54
 63 528 63 528 81 550 c 128,-1,55
 99 572 99 572 133.5 572 c 128,-1,56
 168 572 168 572 198.5 549.5 c 128,-1,57
 229 527 229 527 267 460 c 0,58,59
 358.463 298.737 358.463 298.737 423 243 c 1,60,61
 492.65 179.682 492.65 179.682 623 158.5 c 0,62,63
 663 152 663 152 735 152 c 128,-1,64
 807 152 807 152 883 179.5 c 128,-1,65
 959 207 959 207 1009 252.5 c 0,66,67
 1105.38 340.207 1105.38 340.207 1112 477 c 0,68,69
 1119.68 645.924 1119.68 645.924 990 729 c 0,70,71
 873.332 803.74 873.332 803.74 606 829 c 1,72,73
 192 871.167 192 871.167 192 1140 c 0,74,75
 192 1248 192 1248 296 1352 c 0,76,77
 475.433 1531.43 475.433 1531.43 835 1569 c 1,0,1
EndSplineSet
EndChar

StartChar: R
Encoding: 82 82 9
Width: 1532
Flags: HW
LayerCount: 2
Fore
SplineSet
611 0 m 1,0,-1
 426 6 l 1,1,2
 389 6 389 6 368 5 c 2,3,-1
 324 3 l 1,4,5
 286.5 2.23517e-08 286.5 2.23517e-08 243.75 1.11759e-08 c 128,-1,6
 201 0 201 0 175 21.5 c 128,-1,7
 149 43 149 43 149 79 c 256,8,9
 149 115 149 115 179.5 138 c 128,-1,10
 210 161 210 161 261 161 c 2,11,-1
 341 161 l 1,12,-1
 341 1382 l 1,13,14
 266 1367 266 1367 223.5 1367 c 128,-1,15
 181 1367 181 1367 150 1389.5 c 128,-1,16
 119 1412 119 1412 119 1440.5 c 128,-1,17
 119 1469 119 1469 125.5 1484 c 128,-1,18
 132 1499 132 1499 147 1511 c 0,19,20
 179.061 1536.65 179.061 1536.65 228.531 1542.82 c 128,-1,21
 278 1549 278 1549 303.5 1551 c 128,-1,22
 329 1553 329 1553 361.5 1553.5 c 0,23,24
 459 1555 459 1555 548.5 1555 c 128,-1,25
 638 1555 638 1555 704 1554 c 128,-1,26
 770 1553 770 1553 821 1550.5 c 0,27,28
 1325.04 1525.79 1325.04 1525.79 1437.5 1217 c 0,29,30
 1467 1136 1467 1136 1467 1038.5 c 128,-1,31
 1467 941 1467 941 1436.5 857 c 128,-1,32
 1406 773 1406 773 1348.5 708 c 0,33,34
 1231.88 576.172 1231.88 576.172 1015 534 c 1,35,36
 1111.75 374.25 1111.75 374.25 1175.38 310.625 c 0,37,38
 1293.39 192.612 1293.39 192.612 1406 169 c 1,39,40
 1517.07 146.785 1517.07 146.785 1533.5 99 c 0,41,42
 1539 83 1539 83 1539 57 c 128,-1,43
 1539 31 1539 31 1513 8 c 128,-1,44
 1487 -15 1487 -15 1439 -15 c 0,45,46
 1332.67 -15 1332.67 -15 1251.83 33 c 128,-1,47
 1171 81 1171 81 1118.5 124 c 128,-1,48
 1066 167 1066 167 1018.5 222.5 c 0,49,50
 928.916 327.172 928.916 327.172 837 515 c 1,51,-1
 522 515 l 1,52,-1
 522 161 l 1,53,-1
 592 161 l 2,54,55
 662 161 662 161 690 136.5 c 128,-1,56
 718 112 718 112 718 87 c 128,-1,57
 718 62 718 62 712.5 48.5 c 128,-1,58
 707 35 707 35 694 24 c 0,59,60
 665.636 -9.53091e-06 665.636 -9.53091e-06 611 0 c 1,0,-1
1278 1027 m 0,61,62
 1278 1298.35 1278 1298.35 1017.62 1367.5 c 0,63,64
 895.25 1400 895.25 1400 644.5 1400 c 0,65,66
 558 1400 558 1400 522 1398 c 1,67,-1
 522 663 l 1,68,-1
 718 663 l 2,69,70
 1160.72 663 1160.72 663 1249 870 c 0,71,72
 1278 938 1278 938 1278 1027 c 0,61,62
EndSplineSet
EndChar

StartChar: B
Encoding: 66 66 10
Width: 1534
Flags: HW
LayerCount: 2
Fore
SplineSet
195 -13 m 1,0,1
 72 -13 72 -13 72 77.5 c 128,-1,2
 72 168 72 168 218 168 c 0,3,4
 261 168 261 168 307 164 c 1,5,-1
 307 1384 l 1,6,-1
 275 1380 l 1,7,8
 199.6 1367 199.6 1367 150.3 1367 c 128,-1,9
 101 1367 101 1367 70 1390.5 c 128,-1,10
 39 1414 39 1414 39 1458 c 0,11,12
 39 1491.33 39 1491.33 59 1506.67 c 0,13,14
 95.9467 1534.99 95.9467 1534.99 160.473 1543.5 c 0,15,16
 247.764 1555 247.764 1555 385.882 1555 c 128,-1,17
 524 1555 524 1555 597.5 1554 c 128,-1,18
 671 1553 671 1553 734 1551 c 0,19,20
 867.354 1546.77 867.354 1546.77 938.677 1534.88 c 128,-1,21
 1010 1523 1010 1523 1076.5 1489.5 c 128,-1,22
 1143 1456 1143 1456 1188.5 1409.5 c 0,23,24
 1281 1314.97 1281 1314.97 1281 1189 c 0,25,26
 1281 1040.77 1281 1040.77 1193 942.5 c 0,27,28
 1163 909 1163 909 1121 887 c 1,29,30
 1376.82 843.883 1376.82 843.883 1441 630.5 c 0,31,32
 1461 564 1461 564 1461 473 c 128,-1,33
 1461 382 1461 382 1420 290 c 128,-1,34
 1379 198 1379 198 1292 130 c 0,35,36
 1106.49 -15 1106.49 -15 744 -15 c 0,37,38
 706.333 -15 706.333 -15 659.667 -12.5 c 2,39,-1
 467 -2 l 2,40,41
 429 0 429 0 391 0 c 1,42,-1
 195 -13 l 1,0,1
771 939 m 2,43,44
 1018.55 939 1018.55 939 1068 1075 c 0,45,46
 1084 1119 1084 1119 1084 1168.5 c 128,-1,47
 1084 1218 1084 1218 1066 1253.5 c 128,-1,48
 1048 1289 1048 1289 1018.5 1316.5 c 0,49,50
 947.671 1382.53 947.671 1382.53 823.5 1395.5 c 0,51,52
 723 1406 723 1406 625.5 1406 c 128,-1,53
 528 1406 528 1406 492 1403 c 1,54,-1
 492 939 l 1,55,-1
 771 939 l 2,43,44
492 145 m 1,56,57
 517 142 517 142 549 140.5 c 2,58,-1
 613.5 137.5 l 2,59,60
 667.667 135 667.667 135 773.833 135 c 128,-1,61
 880 135 880 135 981.5 157.5 c 128,-1,62
 1083 180 1083 180 1147 225 c 0,63,64
 1268 310.078 1268 310.078 1268 493 c 0,65,66
 1268 638.505 1268 638.505 1154.5 717 c 0,67,68
 1047.5 791 1047.5 791 863 791 c 2,69,-1
 492 791 l 1,70,-1
 492 145 l 1,56,57
EndSplineSet
EndChar

StartChar: P
Encoding: 80 80 11
Width: 1536
Flags: HW
LayerCount: 2
Fore
SplineSet
441 6 m 1,0,-1
 231 0 l 1,1,2
 186 0 186 0 160 21.5 c 128,-1,3
 134 43 134 43 134 79 c 256,4,5
 134 115 134 115 164.5 138 c 128,-1,6
 195 161 195 161 246 161 c 2,7,-1
 341 161 l 1,8,-1
 341 1387 l 1,9,10
 267 1383 267 1383 202 1383 c 0,11,12
 74 1383 74 1383 74 1468 c 0,13,14
 74 1522.26 74 1522.26 151 1546.5 c 0,15,16
 178 1555 178 1555 217 1555 c 2,17,-1
 551 1555 l 2,18,19
 823.75 1555 823.75 1555 889.375 1548 c 128,-1,20
 955 1541 955 1541 1031.5 1528.5 c 128,-1,21
 1108 1516 1108 1516 1199 1472 c 128,-1,22
 1290 1428 1290 1428 1352.5 1366 c 0,23,24
 1480 1239.52 1480 1239.52 1480 1078.76 c 128,-1,25
 1480 918 1480 918 1432 811 c 128,-1,26
 1384 704 1384 704 1281.5 635.5 c 0,27,28
 1081.74 502 1081.74 502 631 502 c 0,29,30
 605 502 605 502 579 502 c 128,-1,31
 553 502 553 502 527 503 c 1,32,-1
 527 161 l 1,33,-1
 618 161 l 2,34,35
 688 161 688 161 716.5 136.5 c 128,-1,36
 745 112 745 112 745 87 c 128,-1,37
 745 62 745 62 739 48.5 c 128,-1,38
 733 35 733 35 720.5 24 c 0,39,40
 693.227 1.96017e-05 693.227 1.96017e-05 638 0 c 1,41,-1
 441 6 l 1,0,-1
624.5 1397 m 0,42,43
 563 1397 563 1397 527 1395 c 1,44,-1
 527 666 l 1,45,46
 627 661 627 661 695.5 661 c 128,-1,47
 764 661 764 661 839 666.5 c 128,-1,48
 914 672 914 672 980.5 687.5 c 128,-1,49
 1047 703 1047 703 1102.5 731 c 128,-1,50
 1158 759 1158 759 1198 803.5 c 0,51,52
 1283 898.062 1283 898.062 1283 1061 c 0,53,54
 1283 1297.5 1283 1297.5 989 1371 c 1,55,56
 877.571 1397 877.571 1397 624.5 1397 c 0,42,43
EndSplineSet
EndChar

StartChar: Q
Encoding: 81 81 12
Width: 1745
Flags: HW
LayerCount: 2
Fore
SplineSet
785 525 m 128,-1,1
 759 549 759 549 761 587.5 c 128,-1,2
 763 626 763 626 794.5 646.5 c 128,-1,3
 826 667 826 667 874.5 664.5 c 128,-1,4
 923 662 923 662 967.5 652.5 c 128,-1,5
 1012 643 1012 643 1064 615 c 0,6,7
 1179.17 552.986 1179.17 552.986 1312 404 c 1,8,9
 1447.5 250 l 1,10,11
 1498.5 194 1498.5 194 1528.75 177.5 c 0,12,13
 1575.56 151.968 1575.56 151.968 1619.28 149.484 c 128,-1,14
 1663 147 1663 147 1683 141.5 c 128,-1,15
 1703 136 1703 136 1719 126.5 c 0,16,17
 1755.92 104.578 1755.92 104.578 1753.96 74.2891 c 128,-1,18
 1752 44 1752 44 1742 27 c 128,-1,19
 1732 10 1732 10 1715 0.5 c 0,20,21
 1683.18 -17.279 1683.18 -17.279 1626.09 -14.1395 c 128,-1,22
 1569 -11 1569 -11 1525.5 6 c 128,-1,23
 1482 23 1482 23 1437.5 55.5 c 0,24,25
 1360.55 111.701 1360.55 111.701 1269.77 212.851 c 128,-1,26
 1179 314 1179 314 1137 355 c 128,-1,27
 1095 396 1095 396 1062 422.5 c 128,-1,28
 1029 449 1029 449 1002 464 c 128,-1,29
 975 479 975 479 952 486.5 c 0,30,31
 921.549 496.43 921.549 496.43 866.275 498.715 c 128,-1,0
 811 501 811 501 785 525 c 128,-1,1
148.5 448 m 128,-1,33
 94 589 94 589 94 731 c 128,-1,34
 94 873 94 873 122.5 978.5 c 128,-1,35
 151 1084 151 1084 202.5 1173 c 128,-1,36
 254 1262 254 1262 326.5 1333 c 128,-1,37
 399 1404 399 1404 486 1453 c 0,38,39
 667.102 1555 667.102 1555 880 1555 c 0,40,41
 1033 1555 1033 1555 1172.5 1503 c 128,-1,42
 1312 1451 1312 1451 1418.5 1353 c 128,-1,43
 1525 1255 1525 1255 1588 1114 c 128,-1,44
 1651 973 1651 973 1651 795.5 c 128,-1,45
 1651 618 1651 618 1596.5 470 c 128,-1,46
 1542 322 1542 322 1439.5 214 c 0,47,48
 1222.16 -15 1222.16 -15 858 -15 c 0,49,50
 517.146 -15 517.146 -15 303 204.5 c 0,51,32
 203 307 203 307 148.5 448 c 128,-1,33
277 769 m 0,52,53
 277 639 277 639 316.5 527 c 128,-1,54
 356 415 356 415 432 332 c 0,55,56
 596.819 152 596.819 152 868 152 c 0,57,58
 1127.46 152 1127.46 152 1293.5 317 c 0,59,60
 1463 485.434 1463 485.434 1463 758 c 0,61,62
 1463 1064.81 1463 1064.81 1291 1231.5 c 0,63,64
 1129.52 1388 1129.52 1388 856 1388 c 0,65,66
 612.371 1388 612.371 1388 445.5 1210.5 c 0,67,68
 277 1031.27 277 1031.27 277 769 c 0,52,53
EndSplineSet
EndChar

StartChar: T
Encoding: 84 84 13
Width: 1190
Flags: HW
LayerCount: 2
Fore
SplineSet
142 1558 m 1,0,1
 300.667 1530 300.667 1530 591.833 1530 c 128,-1,2
 883 1530 883 1530 1023 1558 c 1,3,-1
 1023 1568 l 2,4,5
 1023 1599.67 1023 1599.67 1040.5 1613.83 c 0,6,7
 1067.88 1636 1067.88 1636 1098.44 1636 c 128,-1,8
 1129 1636 1129 1636 1146 1617.5 c 128,-1,9
 1163 1599 1163 1599 1167.5 1575.5 c 128,-1,10
 1172 1552 1172 1552 1176.5 1535 c 128,-1,11
 1181 1518 1181 1518 1186 1501 c 128,-1,12
 1191 1484 1191 1484 1198 1463.5 c 2,13,-1
 1215 1415 l 2,14,15
 1225 1389 1225 1389 1238 1359.5 c 128,-1,16
 1251 1330 1251 1330 1251 1296 c 128,-1,17
 1251 1262 1251 1262 1230.5 1243 c 128,-1,18
 1210 1224 1210 1224 1180.5 1224 c 0,19,20
 1123.59 1224 1123.59 1224 1099 1294 c 0,21,22
 1075.22 1359.39 1075.22 1359.39 1048.61 1376.19 c 0,23,24
 1007.75 1402 1007.75 1402 926 1402 c 2,25,-1
 902.5 1402 l 1,26,-1
 674 1386 l 1,27,-1
 674 161 l 1,28,-1
 798 161 l 2,29,30
 867 161 867 161 894.5 136.5 c 128,-1,31
 922 112 922 112 922 80 c 128,-1,32
 922 48 922 48 898 24 c 128,-1,33
 874 0 874 0 816 0 c 2,34,-1
 793.5 0 l 2,35,36
 780 0 780 0 765 0.5 c 128,-1,37
 750 1 750 1 735 1.5 c 128,-1,38
 720 2 720 2 703.5 3 c 0,39,40
 654 6 654 6 598 6 c 0,41,42
 515 6 515 6 474.5 4 c 128,-1,43
 434 2 434 2 419.5 1.5 c 2,44,-1
 390 0.5 l 2,45,46
 375 0 375 0 361.5 0 c 2,47,-1
 339 0 l 2,48,49
 294 0 294 0 267.5 21.5 c 128,-1,50
 241 43 241 43 241 79 c 256,51,52
 241 115 241 115 272 138 c 128,-1,53
 303 161 303 161 354 161 c 2,54,-1
 488 161 l 1,55,-1
 488 1388 l 1,56,-1
 378 1396 l 2,57,58
 347 1398 347 1398 327 1399.5 c 128,-1,59
 307 1401 307 1401 293 1401.5 c 128,-1,60
 279 1402 279 1402 267 1402.5 c 128,-1,61
 255 1403 255 1403 227 1403 c 128,-1,62
 199 1403 199 1403 171 1398.5 c 128,-1,63
 143 1394 143 1394 123.5 1381.5 c 0,64,65
 90.0122 1360.03 90.0122 1360.03 71.0061 1308.52 c 128,-1,66
 52 1257 52 1257 33 1240.5 c 128,-1,67
 14 1224 14 1224 -15.5 1224 c 128,-1,68
 -45 1224 -45 1224 -65.5 1243 c 128,-1,69
 -86 1262 -86 1262 -86 1296 c 128,-1,70
 -86 1330 -86 1330 -73 1359.5 c 128,-1,71
 -60 1389 -60 1389 -50 1416 c 2,72,-1
 -33 1463.5 l 2,73,74
 -19.5676 1502.84 -19.5676 1502.84 -13.7838 1527.42 c 2,75,-1
 -3 1574 l 1,76,77
 9.4 1636 9.4 1636 69 1636 c 0,78,79
 114.538 1636 114.538 1636 135 1598 c 0,80,81
 142 1585 142 1585 142 1568 c 2,82,-1
 142 1558 l 1,0,1
EndSplineSet
EndChar

StartChar: F
Encoding: 70 70 14
Width: 1194
Flags: HW
LayerCount: 2
Fore
SplineSet
429 0 m 2,0,-1
 229 -6 l 1,1,2
 184 -6 184 -6 158 15.5 c 128,-1,3
 132 37 132 37 132 73 c 256,4,5
 132 109 132 109 162.5 132 c 128,-1,6
 193 155 193 155 244 155 c 2,7,-1
 311 155 l 1,8,-1
 311 1387 l 1,9,-1
 272 1387 l 2,10,11
 185 1387 185 1387 148 1413.5 c 128,-1,12
 111 1440 111 1440 111 1479 c 0,13,14
 111 1555 111 1555 250 1555 c 1,15,-1
 710 1541 l 1,16,17
 852 1541 852 1541 972 1563 c 1,18,19
 958.753 1608.04 958.753 1608.04 981.877 1630.52 c 128,-1,20
 1005 1653 1005 1653 1031 1653 c 128,-1,21
 1057 1653 1057 1653 1073 1645 c 128,-1,22
 1089 1637 1089 1637 1106 1616 c 0,23,24
 1176.64 1528.74 1176.64 1528.74 1244 1343.5 c 0,25,26
 1265 1285.75 1265 1285.75 1265 1256 c 0,27,28
 1265 1187 1265 1187 1203 1187 c 0,29,30
 1147.78 1187 1147.78 1187 1111 1294 c 0,31,32
 1088 1360 1088 1360 1037.5 1386.5 c 128,-1,33
 987 1413 987 1413 909 1413 c 2,34,-1
 885.5 1413 l 2,35,36
 873 1413 873 1413 847.5 1411.5 c 2,37,-1
 790 1408 l 2,38,39
 772 1407 772 1407 735.5 1404 c 128,-1,40
 699 1401 699 1401 656 1398 c 2,41,-1
 497 1387 l 1,42,-1
 497 882 l 1,43,44
 752.2 882 752.2 882 784.1 889 c 128,-1,45
 816 896 816 896 832 910 c 128,-1,46
 848 924 848 924 854.5 962.5 c 0,47,48
 866.909 1036 866.909 1036 942 1036 c 0,49,50
 963 1036 963 1036 982.5 1021.5 c 128,-1,51
 1002 1007 1002 1007 1002 980.5 c 128,-1,52
 1002 954 1002 954 991.5 924.5 c 0,53,54
 966 852.857 966 852.857 966 815.429 c 0,55,56
 966 758.333 966 758.333 983.5 712.667 c 2,57,-1
 1010.5 642 l 2,58,59
 1020 617 1020 617 1020 595 c 128,-1,60
 1020 573 1020 573 1012.5 558.5 c 128,-1,61
 1005 544 1005 544 994.5 535.5 c 0,62,63
 974.118 519 974.118 519 952.059 519 c 128,-1,64
 930 519 930 519 915.5 524.5 c 128,-1,65
 901 530 901 530 890 542.5 c 0,66,67
 868.91 566.466 868.91 566.466 860.455 610.733 c 128,-1,68
 852 655 852 655 846 675 c 128,-1,69
 840 695 840 695 829.5 708.5 c 0,70,71
 808.111 736 808.111 736 759 736 c 2,72,-1
 497 736 l 1,73,-1
 497 155 l 1,74,-1
 658 155 l 2,75,76
 728 155 728 155 756.5 130.5 c 128,-1,77
 785 106 785 106 785 81 c 128,-1,78
 785 56 785 56 779.5 42.5 c 128,-1,79
 774 29 774 29 761 18 c 0,80,81
 732.636 -6.00001 732.636 -6.00001 679 -6 c 2,82,-1
 655 -6 l 2,83,84
 641 -6 641 -6 625.5 -5.5 c 2,85,-1
 595 -4.5 l 2,86,87
 580 -4 580 -4 569 -3.5 c 128,-1,88
 558 -3 558 -3 541.5 -2.5 c 128,-1,89
 525 -2 525 -2 505.5 -1.5 c 2,90,-1
 466 -0.5 l 2,91,92
 446 0 446 0 429 0 c 2,0,-1
EndSplineSet
EndChar

StartChar: C
Encoding: 67 67 15
Width: 1534
Flags: HW
LayerCount: 2
Fore
SplineSet
1112 5 m 1,0,1
 997 -15 997 -15 900 -15 c 0,2,3
 539.412 -15 539.412 -15 316 196 c 0,4,5
 88 411.333 88 411.333 88 771 c 256,6,7
 88 1132.59 88 1132.59 313.5 1345.5 c 0,8,9
 535.384 1555 535.384 1555 903 1555 c 0,10,11
 1041.22 1555 1041.22 1555 1154 1520 c 1,12,13
 1147.79 1536.55 1147.79 1536.55 1149.4 1552.28 c 128,-1,14
 1151 1568 1151 1568 1158.5 1581 c 128,-1,15
 1166 1594 1166 1594 1177 1603 c 0,16,17
 1199 1621 1199 1621 1220.5 1621 c 128,-1,18
 1242 1621 1242 1621 1256 1614.5 c 128,-1,19
 1270 1608 1270 1608 1283.5 1593 c 0,20,21
 1309.28 1564.35 1309.28 1564.35 1336.14 1502.68 c 0,22,23
 1378.18 1406.14 1378.18 1406.14 1442 1337 c 1,24,-1
 1478.5 1295 l 2,25,26
 1524 1242.16 1524 1242.16 1524 1200.08 c 0,27,28
 1524 1110 1524 1110 1449 1110 c 0,29,30
 1387.15 1110 1387.15 1110 1335 1198 c 1,31,32
 1266.21 1310.23 1266.21 1310.23 1126.5 1364.5 c 0,33,34
 1017.09 1407 1017.09 1407 887.043 1407 c 128,-1,35
 757 1407 757 1407 645 1366 c 128,-1,36
 533 1325 533 1325 452.5 1244.5 c 0,37,38
 282 1074 282 1074 282 775 c 256,39,40
 282 480.648 282 480.648 461.5 305.5 c 0,41,42
 628.037 143 628.037 143 882 143 c 0,43,44
 1115.79 143 1115.79 143 1216 245 c 1,45,46
 1267.23 298.922 1267.23 298.922 1287.11 333.961 c 2,47,-1
 1320 393 l 1,48,49
 1364.51 479.398 1364.51 479.398 1410.5 490.5 c 0,50,51
 1425 494 1425 494 1442.5 494 c 128,-1,52
 1460 494 1460 494 1475.5 486 c 128,-1,53
 1491 478 1491 478 1502 465.5 c 0,54,55
 1525 439.364 1525 439.364 1525 411.182 c 128,-1,56
 1525 383 1525 383 1519 363.5 c 128,-1,57
 1513 344 1513 344 1500.5 323.5 c 0,58,59
 1478.84 287.974 1478.84 287.974 1434.42 239.987 c 128,-1,60
 1390 192 1390 192 1368 161 c 128,-1,61
 1346 130 1346 130 1331.5 101 c 0,62,63
 1305.38 48.75 1305.38 48.75 1299 -15 c 0,64,65
 1291 -100 1291 -100 1207 -100 c 0,66,67
 1169.56 -100 1169.56 -100 1147.78 -79 c 0,68,69
 1108.18 -40.8182 1108.18 -40.8182 1112 5 c 1,0,1
EndSplineSet
EndChar

StartChar: G
Encoding: 71 71 16
Width: 1530
Flags: HW
LayerCount: 2
Fore
SplineSet
1134 883 m 1,0,-1
 1343 894 l 1,1,2
 1463.78 894 1463.78 894 1483 815.5 c 0,3,4
 1489 791 1489 791 1489 761 c 2,5,-1
 1489 448 l 2,6,7
 1489 320.558 1489 320.558 1447.5 253 c 0,8,9
 1414.94 199.998 1414.94 199.998 1314 121 c 1,10,11
 1213.26 37.0466 1213.26 37.0466 1004 -1 c 0,12,13
 927 -15 927 -15 804 -15 c 128,-1,14
 681 -15 681 -15 544 35.5 c 128,-1,15
 407 86 407 86 306 183 c 0,16,17
 88 392.366 88 392.366 88 746 c 0,18,19
 88 1119.55 88 1119.55 308 1338.5 c 0,20,21
 525.536 1555 525.536 1555 883 1555 c 0,22,23
 1035.8 1555 1035.8 1555 1131 1538 c 1,24,25
 1130 1543 1130 1543 1130 1546.5 c 2,26,-1
 1130 1552 l 1,27,28
 1132 1584 1132 1584 1152.5 1602.5 c 128,-1,29
 1173 1621 1173 1621 1192.5 1621 c 128,-1,30
 1212 1621 1212 1621 1226 1616 c 128,-1,31
 1240 1611 1240 1611 1255 1596.5 c 0,32,33
 1286.01 1566.52 1286.01 1566.52 1315.51 1504.26 c 128,-1,34
 1345 1442 1345 1442 1367.5 1412 c 2,35,-1
 1448.5 1307 l 2,36,37
 1494 1248.29 1494 1248.29 1494 1210.65 c 128,-1,38
 1494 1173 1494 1173 1474.5 1150 c 128,-1,39
 1455 1127 1455 1127 1430 1127 c 128,-1,40
 1405 1127 1405 1127 1392 1130.5 c 128,-1,41
 1379 1134 1379 1134 1365 1143.5 c 0,42,43
 1335.51 1163.51 1335.51 1163.51 1303.76 1216.25 c 128,-1,44
 1272 1269 1272 1269 1229 1304.5 c 128,-1,45
 1186 1340 1186 1340 1132.5 1361.5 c 0,46,47
 1034.21 1401 1034.21 1401 889.605 1401 c 128,-1,48
 745 1401 745 1401 637.5 1357.5 c 128,-1,49
 530 1314 530 1314 451 1233 c 0,50,51
 283 1060.75 283 1060.75 283 771 c 0,52,53
 283 465.575 283 465.575 447.5 300 c 0,54,55
 598.513 148 598.513 148 844 148 c 0,56,57
 1008.55 148 1008.55 148 1139 200.5 c 0,58,59
 1196.71 223.726 1196.71 223.726 1239.86 264.863 c 128,-1,60
 1283 306 1283 306 1295 331 c 0,61,62
 1316 374.75 1316 374.75 1316 490 c 2,63,-1
 1316 686 l 2,64,65
 1316 700 1316 700 1305.5 712.5 c 128,-1,66
 1295 725 1295 725 1268 725 c 0,67,68
 1164 725 1164 725 1103.5 720.5 c 0,69,70
 989.222 712 989.222 712 931.111 712 c 128,-1,71
 873 712 873 712 847.5 737 c 128,-1,72
 822 762 822 762 822 799 c 0,73,74
 822 891.951 822 891.951 982 888 c 0,75,76
 1002 888 1002 888 1020.5 887 c 2,77,-1
 1056 885 l 2,78,79
 1100 883 1100 883 1134 883 c 1,0,-1
EndSplineSet
EndChar

StartChar: L
Encoding: 76 76 17
Width: 1364
Flags: HW
LayerCount: 2
Fore
SplineSet
1022 -9 m 1,0,1
 900.571 16 900.571 16 571 16 c 0,2,3
 434.667 16 434.667 16 354.833 9 c 0,4,5
 252.19 -5.64674e-07 252.19 -5.64674e-07 215.595 -2.82337e-07 c 0,6,7
 127 4.01187e-07 127 4.01187e-07 127 82 c 0,8,9
 127 139.438 127 139.438 221 160 c 0,10,11
 253 167 253 167 298 167 c 2,12,-1
 381 167 l 1,13,-1
 381 1394 l 1,14,-1
 280 1394 l 2,15,16
 229 1394 229 1394 198.5 1416 c 128,-1,17
 168 1438 168 1438 168 1474 c 256,18,19
 168 1510 168 1510 194 1532.5 c 128,-1,20
 220 1555 220 1555 265 1555 c 1,21,-1
 475 1548 l 1,22,-1
 672 1555 l 1,23,24
 752 1555 752 1555 773 1506 c 0,25,26
 779 1492 779 1492 779 1477 c 0,27,28
 779 1394 779 1394 652 1394 c 2,29,-1
 567 1394 l 1,30,-1
 567 164 l 1,31,32
 819 148 819 148 902.5 148 c 128,-1,33
 986 148 986 148 1008.5 157.5 c 128,-1,34
 1031 167 1031 167 1052.5 187.5 c 0,35,36
 1089.75 223.015 1089.75 223.015 1129.87 294.508 c 128,-1,37
 1170 366 1170 366 1190.5 394 c 128,-1,38
 1211 422 1211 422 1227.5 436.5 c 0,39,40
 1253.1 459 1253.1 459 1286.05 459 c 128,-1,41
 1319 459 1319 459 1338.5 438 c 128,-1,42
 1358 417 1358 417 1361 393 c 0,43,44
 1366.74 347.111 1366.74 347.111 1334.87 303.556 c 128,-1,45
 1303 260 1303 260 1280.5 219 c 128,-1,46
 1258 178 1258 178 1240 136 c 0,47,48
 1203.29 50.3454 1203.29 50.3454 1189.15 -12.8273 c 0,49,50
 1164.48 -123 1164.48 -123 1103 -123 c 0,51,52
 1068 -123 1068 -123 1044.5 -97 c 128,-1,53
 1021 -71 1021 -71 1021 -29 c 0,54,55
 1021 -24 1021 -24 1021 -19 c 128,-1,56
 1021 -14 1021 -14 1022 -9 c 1,0,1
EndSplineSet
EndChar

StartChar: J
Encoding: 74 74 18
Width: 1366
Flags: HW
LayerCount: 2
Fore
SplineSet
1070 1555 m 0,0,1
 1211 1555 1211 1555 1211 1429 c 0,2,3
 1211 1415 1211 1415 1205 1325 c 128,-1,4
 1199 1235 1199 1235 1199 1081 c 2,5,-1
 1199 685 l 2,6,7
 1199 443.345 1199 443.345 1145 313 c 1,8,9
 1043.91 77.1183 1043.91 77.1183 784 7.5 c 0,10,11
 700 -15 700 -15 592 -15 c 128,-1,12
 484 -15 484 -15 392 24 c 128,-1,13
 300 63 300 63 238 127 c 0,14,15
 113 256.032 113 256.032 113 439 c 0,16,17
 113 595.531 113 595.531 216 718.5 c 0,18,19
 325.308 849 325.308 849 488 849 c 0,20,21
 572 849 572 849 618 816 c 128,-1,22
 664 783 664 783 664 723 c 0,23,24
 664 678.867 664 678.867 640.5 656.933 c 0,25,26
 600.929 620 600.929 620 552 620 c 0,27,28
 521 620 521 620 501.5 632.5 c 0,29,30
 471.08 652 471.08 652 443.54 652 c 128,-1,31
 416 652 416 652 387 636 c 128,-1,32
 358 620 358 620 338.5 591.5 c 0,33,34
 298 532.308 298 532.308 298 455.154 c 128,-1,35
 298 378 298 378 321.5 323.5 c 128,-1,36
 345 269 345 269 386.5 229.5 c 0,37,38
 474.228 146 474.228 146 610 146 c 0,39,40
 833.835 146 833.835 146 939 305.5 c 0,41,42
 1000.66 399.023 1000.66 399.023 1008.5 530.5 c 0,43,44
 1013 606 1013 606 1013 696 c 2,45,-1
 1013 1384 l 1,46,47
 687.998 1380.96 687.998 1380.96 618.999 1366.48 c 128,-1,48
 550 1352 550 1352 521.5 1340 c 0,49,50
 473.357 1319.73 473.357 1319.73 433 1273 c 1,51,52
 387.267 1224 387.267 1224 347.633 1224 c 128,-1,53
 308 1224 308 1224 287 1242 c 128,-1,54
 266 1260 266 1260 266 1288.5 c 0,55,56
 266 1335.33 266 1335.33 303.5 1384.17 c 0,57,58
 378.254 1481.51 378.254 1481.51 395.127 1536.26 c 128,-1,59
 412 1591 412 1591 433 1605 c 128,-1,60
 454 1619 454 1619 486 1619 c 128,-1,61
 518 1619 518 1619 537.5 1596 c 128,-1,62
 557 1573 557 1573 559 1541 c 1,63,-1
 787 1541 l 2,64,65
 875.6 1541 875.6 1541 956.8 1548 c 128,-1,66
 1038 1555 1038 1555 1070 1555 c 0,0,1
EndSplineSet
EndChar

StartChar: K
Encoding: 75 75 19
Width: 1534
Flags: HW
LayerCount: 2
Fore
SplineSet
434 6 m 1,0,-1
 234 0 l 1,1,2
 189 0 189 0 163 21.5 c 128,-1,3
 137 43 137 43 137 79 c 256,4,5
 137 115 137 115 167.5 138 c 128,-1,6
 198 161 198 161 249 161 c 2,7,-1
 344 161 l 1,8,-1
 344 1394 l 1,9,-1
 249 1394 l 2,10,11
 198 1394 198 1394 167.5 1416 c 128,-1,12
 137 1438 137 1438 137 1474 c 256,13,14
 137 1510 137 1510 163 1532.5 c 128,-1,15
 189 1555 189 1555 234 1555 c 1,16,-1
 434 1548 l 1,17,18
 619 1555 l 1,19,20
 701.25 1555 701.25 1555 720.5 1506 c 0,21,22
 726 1492 726 1492 726 1477 c 0,23,24
 726 1394 726 1394 600 1394 c 2,25,-1
 530 1394 l 1,26,-1
 530 837 l 1,27,28
 748.436 958.82 748.436 958.82 1026 1214 c 0,29,30
 1156.94 1334.38 1156.94 1334.38 1214.47 1405.19 c 128,-1,31
 1272 1476 1272 1476 1293.5 1498 c 128,-1,32
 1315 1520 1315 1520 1332.5 1533 c 0,33,34
 1362.12 1555 1362.12 1555 1396.56 1555 c 128,-1,35
 1431 1555 1431 1555 1456.5 1536 c 128,-1,36
 1482 1517 1482 1517 1482 1491 c 128,-1,37
 1482 1465 1482 1465 1478.5 1449.5 c 128,-1,38
 1475 1434 1475 1434 1466.5 1418 c 0,39,40
 1451.21 1389.22 1451.21 1389.22 1409.11 1345.61 c 1,41,42
 1287.72 1225.53 1287.72 1225.53 1217.36 1162.27 c 1,43,-1
 1079 1043 l 1,44,45
 1011 987 1011 987 936 931 c 1,46,47
 1275.62 574.183 1275.62 574.183 1408 161 c 1,48,-1
 1464 161 l 2,49,50
 1534 161 1534 161 1562 136.5 c 128,-1,51
 1590 112 1590 112 1590 87 c 128,-1,52
 1590 62 1590 62 1584.5 48.5 c 128,-1,53
 1579 35 1579 35 1566 24 c 0,54,55
 1537.64 -9.53091e-06 1537.64 -9.53091e-06 1500.82 -4.76545e-06 c 0,56,57
 1442 2.84751e-06 1442 2.84751e-06 1413 2 c 0,58,59
 1355 6 1355 6 1303 6 c 1,60,-1
 1211 3 l 1,61,62
 1161 0 1161 0 1119.5 0 c 128,-1,63
 1078 0 1078 0 1052 21.5 c 128,-1,64
 1026 43 1026 43 1026 79 c 256,65,66
 1026 115 1026 115 1056.5 138 c 128,-1,67
 1087 161 1087 161 1138 161 c 2,68,-1
 1211 161 l 1,69,70
 1113.92 466.124 1113.92 466.124 793 831 c 1,71,72
 669 747 669 747 530 674 c 1,73,-1
 530 161 l 1,74,-1
 600 161 l 2,75,76
 670 161 670 161 698 136.5 c 128,-1,77
 726 112 726 112 726 87 c 128,-1,78
 726 62 726 62 720.5 48.5 c 128,-1,79
 715 35 715 35 702 24 c 0,80,81
 673.636 -9.53091e-06 673.636 -9.53091e-06 619 0 c 1,82,-1
 434 6 l 1,0,-1
EndSplineSet
EndChar

StartChar: M
Encoding: 77 77 20
Width: 2212
Flags: HW
LayerCount: 2
Fore
SplineSet
374 6 m 1,0,-1
 174 0 l 1,1,2
 130 0 130 0 104.5 21.5 c 128,-1,3
 79 43 79 43 79 79 c 256,4,5
 79 115 79 115 109 138 c 128,-1,6
 139 161 139 161 191 161 c 2,7,-1
 280 161 l 1,8,-1
 280 1378 l 1,9,-1
 256 1379 l 2,10,11
 234 1379 234 1379 205.5 1377 c 0,12,13
 162.91 1374.01 162.91 1374.01 126.955 1379.51 c 0,14,15
 61 1389.58 61 1389.58 61 1458 c 0,16,17
 61 1553 61 1553 184 1553 c 2,18,-1
 214 1553 l 2,19,20
 426.818 1553 426.818 1553 506 1486 c 0,21,22
 545.513 1452.57 545.513 1452.57 594 1360 c 2,23,-1
 1106 398 l 1,24,-1
 1581 1324 l 1,25,26
 1656.07 1474.14 1656.07 1474.14 1774.5 1518 c 0,27,28
 1854.35 1547.58 1854.35 1547.58 1926.68 1550.29 c 128,-1,29
 1999 1553 1999 1553 2044.5 1553 c 0,30,31
 2146 1553 2146 1553 2146 1462 c 0,32,33
 2146 1430 2146 1430 2131.5 1409 c 128,-1,34
 2117 1388 2117 1388 2088.5 1383.5 c 0,35,36
 2046.64 1376.89 2046.64 1376.89 2015 1379 c 256,37,38
 1970 1382 1970 1382 1954.5 1382 c 128,-1,39
 1939 1382 1939 1382 1927 1380 c 1,40,-1
 1927 161 l 1,41,-1
 2016 161 l 2,42,43
 2068 161 2068 161 2098.5 138 c 128,-1,44
 2129 115 2129 115 2129 79 c 256,45,46
 2129 43 2129 43 2103 21.5 c 128,-1,47
 2077 0 2077 0 2032 0 c 1,48,-1
 1833 6 l 1,49,-1
 1646 0 l 1,50,51
 1565.26 0 1565.26 0 1545.5 48.5 c 0,52,53
 1540 62 1540 62 1540 87 c 128,-1,54
 1540 112 1540 112 1567.5 136.5 c 128,-1,55
 1595 161 1595 161 1665 161 c 2,56,-1
 1748 161 l 1,57,-1
 1748 1087 l 2,58,59
 1748 1204 1748 1204 1756 1296 c 1,60,-1
 1210 231 l 1,61,62
 1186 175 1186 175 1161.5 157 c 128,-1,63
 1137 139 1137 139 1113 139 c 128,-1,64
 1089 139 1089 139 1075.5 143.5 c 128,-1,65
 1062 148 1062 148 1050.5 158.5 c 0,66,67
 1030.72 176.56 1030.72 176.56 1004 230 c 1,68,-1
 452 1282 l 1,69,70
 461 1175.8 461 1175.8 461 1018 c 2,71,-1
 461 161 l 1,72,-1
 542 161 l 2,73,74
 611 161 611 161 639.5 136.5 c 128,-1,75
 668 112 668 112 668 87 c 128,-1,76
 668 62 668 62 662 48.5 c 128,-1,77
 656 35 656 35 643.5 24 c 0,78,79
 616.227 1.96017e-05 616.227 1.96017e-05 561 0 c 1,80,-1
 374 6 l 1,0,-1
EndSplineSet
EndChar

StartChar: U
Encoding: 85 85 21
Width: 1532
Flags: HW
LayerCount: 2
Fore
SplineSet
1539 1477 m 0,0,1
 1539 1394 1539 1394 1414 1394 c 2,2,-1
 1380 1394 l 1,3,-1
 1380 587 l 2,4,5
 1380 322.459 1380 322.459 1201.5 152 c 0,6,7
 1026.62 -15 1026.62 -15 783 -15 c 0,8,9
 520.115 -15 520.115 -15 355 144 c 0,10,11
 181 311.556 181 311.556 181 591 c 2,12,-1
 181 1394 l 1,13,-1
 127 1394 l 2,14,15
 76 1394 76 1394 45 1416 c 128,-1,16
 14 1438 14 1438 14 1474 c 256,17,18
 14 1510 14 1510 40.5 1532.5 c 128,-1,19
 67 1555 67 1555 111 1555 c 1,20,-1
 293 1548 l 1,21,-1
 449 1555 l 1,22,23
 523.75 1555 523.75 1555 532.5 1506 c 0,24,25
 535 1492 535 1492 535 1475.5 c 128,-1,26
 535 1459 535 1459 531.5 1444 c 128,-1,27
 528 1429 528 1429 517 1417.5 c 0,28,29
 494.522 1394 494.522 1394 430 1394 c 2,30,-1
 367 1394 l 1,31,-1
 367 594 l 2,32,33
 367 372.86 367 372.86 489 253 c 0,34,35
 600.964 143 600.964 143 787 143 c 0,36,37
 963.973 143 963.973 143 1073.5 254.5 c 0,38,39
 1195 378.189 1195 378.189 1195 594 c 2,40,-1
 1195 1394 l 1,41,-1
 1111 1394 l 2,42,43
 1018 1394 1018 1394 1018 1474 c 256,44,45
 1018 1555 1018 1555 1095 1555 c 2,46,-1
 1112 1555 l 1,47,-1
 1247 1548 l 1,48,-1
 1433 1555 l 1,49,50
 1514.25 1555 1514.25 1555 1533.5 1506 c 0,51,52
 1539 1492 1539 1492 1539 1477 c 0,0,1
EndSplineSet
EndChar

StartChar: V
Encoding: 86 86 22
Width: 1530
Flags: HW
LayerCount: 2
Fore
SplineSet
1475 1543 m 1,0,1
 1568 1543 1568 1543 1568 1471 c 0,2,3
 1568 1406.67 1568 1406.67 1498 1395 c 1,4,5
 1455.1 1386.83 1455.1 1386.83 1436.05 1368.41 c 128,-1,6
 1417 1350 1417 1350 1401 1323 c 128,-1,7
 1385 1296 1385 1296 1363 1249.5 c 128,-1,8
 1341 1203 1341 1203 1311.5 1134 c 0,9,10
 922.17 212.655 922.17 212.655 899.585 155.827 c 2,11,-1
 866 71 l 2,12,13
 845 17 845 17 822.5 -3.5 c 128,-1,14
 800 -24 800 -24 772.5 -24 c 128,-1,15
 745 -24 745 -24 730 -19.5 c 128,-1,16
 715 -15 715 -15 703 -4.5 c 0,17,18
 678.221 17.1818 678.221 17.1818 662.61 60.5909 c 1,19,-1
 484 505 l 1,20,-1
 219 1124 l 2,21,22
 140.478 1309.09 140.478 1309.09 97 1358 c 0,23,24
 71.016 1387.23 71.016 1387.23 30.008 1402.62 c 128,-1,25
 -11 1418 -11 1418 -26 1434 c 128,-1,26
 -41 1450 -41 1450 -41 1476 c 128,-1,27
 -41 1502 -41 1502 -16.5 1523.5 c 128,-1,28
 8 1545 8 1545 46 1545 c 1,29,-1
 188 1538 l 1,30,31
 221 1538 221 1538 254 1541 c 2,32,-1
 374 1552.5 l 2,33,34
 400 1555 400 1555 435.5 1555 c 128,-1,35
 471 1555 471 1555 499 1534.5 c 128,-1,36
 527 1514 527 1514 527 1474.5 c 0,37,38
 527 1384 527 1384 358 1384 c 2,39,-1
 316 1384 l 1,40,-1
 749 275 l 1,41,42
 760.273 250.199 760.273 250.199 771.137 258.099 c 128,-1,43
 782 266 782 266 786 275 c 2,44,-1
 1219 1383 l 1,45,46
 1205 1382 1205 1382 1193 1382 c 2,47,-1
 1168 1382 l 2,48,49
 1077 1382 1077 1382 1038 1409.5 c 128,-1,50
 999 1437 999 1437 999 1474.5 c 128,-1,51
 999 1512 999 1512 1028.5 1533.5 c 128,-1,52
 1058 1555 1058 1555 1093.5 1555 c 128,-1,53
 1129 1555 1129 1555 1153.5 1551.5 c 128,-1,54
 1178 1548 1178 1548 1204.5 1545.5 c 128,-1,55
 1231 1543 1231 1543 1248.5 1541 c 128,-1,56
 1266 1539 1266 1539 1280.5 1538 c 0,57,58
 1309.5 1536 1309.5 1536 1338 1536 c 1,59,-1
 1475 1543 l 1,0,1
EndSplineSet
EndChar

StartChar: W
Encoding: 87 87 23
Width: 2390
Flags: HW
LayerCount: 2
Fore
SplineSet
2204 1536 m 1,0,-1
 2355 1543 l 1,1,2
 2393 1543 2393 1543 2412.5 1521.5 c 128,-1,3
 2432 1500 2432 1500 2432 1475 c 128,-1,4
 2432 1450 2432 1450 2420 1434 c 128,-1,5
 2408 1418 2408 1418 2391 1405.5 c 128,-1,6
 2374 1393 2374 1393 2355.5 1381.5 c 128,-1,7
 2337 1370 2337 1370 2319.5 1353.5 c 128,-1,8
 2302 1337 2302 1337 2282 1315 c 128,-1,9
 2262 1293 2262 1293 2239 1252.5 c 0,10,11
 2189.37 1165.11 2189.37 1165.11 2123 966 c 1,12,13
 1850.71 182.061 1850.71 182.061 1825.86 103.531 c 128,-1,14
 1801 25 1801 25 1776.5 5 c 128,-1,15
 1752 -15 1752 -15 1724.5 -15 c 128,-1,16
 1697 -15 1697 -15 1681.5 -11 c 128,-1,17
 1666 -7 1666 -7 1653 3.5 c 0,18,19
 1626.11 25.2167 1626.11 25.2167 1613.06 72.6083 c 128,-1,20
 1600 120 1600 120 1588 159 c 2,21,-1
 1560 246 l 2,22,23
 1544 294 1544 294 1521 356 c 2,24,-1
 1465 505 l 1,25,-1
 1206 1151 l 2,26,27
 1200.38 1166 1200.38 1166 1193.69 1166 c 128,-1,28
 1187 1166 1187 1166 1183 1154 c 2,29,-1
 773 79 l 2,30,31
 752 25 752 25 728.5 4.5 c 128,-1,32
 705 -16 705 -16 677 -16 c 128,-1,33
 649 -16 649 -16 633.5 -12 c 128,-1,34
 618 -8 618 -8 605 2.5 c 0,35,36
 578.113 24.2167 578.113 24.2167 561.056 85.6084 c 0,37,38
 517.412 239.309 517.412 239.309 500.706 291.654 c 2,39,-1
 429 505 l 1,40,-1
 267 966 l 1,41,42
 172.079 1243.27 172.079 1243.27 108.5 1315 c 0,43,44
 66.8057 1362.04 66.8057 1362.04 41.9029 1377.52 c 128,-1,45
 17 1393 17 1393 -0.5 1405.5 c 0,46,47
 -43 1435.86 -43 1435.86 -43 1467.93 c 128,-1,48
 -43 1500 -43 1500 -22.5 1521.5 c 128,-1,49
 -2 1543 -2 1543 36 1543 c 1,50,-1
 187 1536 l 1,51,52
 221 1536 221 1536 253.5 1539 c 2,53,-1
 319 1545 l 2,54,55
 348 1548 348 1548 377.5 1551.5 c 128,-1,56
 407 1555 407 1555 443 1555 c 128,-1,57
 479 1555 479 1555 503 1533.5 c 128,-1,58
 527 1512 527 1512 527 1472.5 c 0,59,60
 527 1382 527 1382 357 1382 c 2,61,-1
 335.5 1382 l 2,62,63
 325 1382 325 1382 314 1383 c 1,64,-1
 665 362 l 1,65,66
 674.412 330 674.412 330 687 330 c 0,67,68
 699 330 699 330 709 361 c 1,69,-1
 1103 1433 l 2,70,71
 1122 1487 1122 1487 1145 1508.5 c 128,-1,72
 1168 1530 1168 1530 1206 1530 c 256,73,74
 1244 1530 1244 1530 1267 1509.5 c 128,-1,75
 1290 1489 1290 1489 1310 1433 c 2,76,-1
 1697 362 l 2,77,78
 1707.67 330 1707.67 330 1719 330 c 0,79,80
 1729 330 1729 330 1739 361 c 2,81,-1
 2087 1383 l 1,82,83
 2073 1382 2073 1382 2059.5 1382 c 2,84,-1
 2033 1382 l 2,85,86
 1898.46 1382 1898.46 1382 1872.5 1438.5 c 0,87,88
 1864 1457 1864 1457 1864 1484.5 c 128,-1,89
 1864 1512 1864 1512 1888.5 1533.5 c 128,-1,90
 1913 1555 1913 1555 1948 1555 c 128,-1,91
 1983 1555 1983 1555 2012.5 1551.5 c 128,-1,92
 2042 1548 2042 1548 2073 1545 c 2,93,-1
 2137 1539 l 2,94,95
 2170 1536 2170 1536 2204 1536 c 1,0,-1
EndSplineSet
EndChar

StartChar: X
Encoding: 88 88 24
Width: 1702
Flags: HW
LayerCount: 2
Fore
SplineSet
262 14 m 1,0,-1
 53 0 l 1,1,2
 15 0 15 0 -10 21 c 128,-1,3
 -35 42 -35 42 -35 74.5 c 128,-1,4
 -35 107 -35 107 -9.5 125.5 c 128,-1,5
 16 144 16 144 62 152 c 128,-1,6
 108 160 108 160 129 165.5 c 128,-1,7
 150 171 150 171 172 185 c 128,-1,8
 194 199 194 199 222 226 c 128,-1,9
 250 253 250 253 291.5 300 c 1,10,11
 725 821 l 1,12,13
 568.384 1006.51 568.384 1006.51 498.192 1096.75 c 128,-1,14
 428 1187 428 1187 375 1245 c 0,15,16
 261.902 1368.77 261.902 1368.77 157 1388 c 1,17,-1
 119.5 1394.5 l 2,18,19
 42 1407.73 42 1407.73 42 1471 c 0,20,21
 42 1500 42 1500 66.5 1521.5 c 128,-1,22
 91 1543 91 1543 129 1543 c 1,23,-1
 281 1536 l 1,24,25
 314 1536 314 1536 347 1539 c 2,26,-1
 412 1545 l 2,27,28
 427 1546 427 1546 445 1548 c 128,-1,29
 463 1550 463 1550 481.5 1551.5 c 0,30,31
 524.667 1555 524.667 1555 558.333 1555 c 128,-1,32
 592 1555 592 1555 617 1533.5 c 128,-1,33
 642 1512 642 1512 642 1480 c 0,34,35
 642 1382 642 1382 474 1382 c 2,36,-1
 471 1382 l 1,37,-1
 840 944 l 1,38,-1
 1208 1382 l 1,39,40
 1055 1385.6 1055 1385.6 1055 1480 c 0,41,42
 1055 1512 1055 1512 1080 1533.5 c 128,-1,43
 1105 1555 1105 1555 1133 1555 c 128,-1,44
 1161 1555 1161 1555 1178.5 1554 c 128,-1,45
 1196 1553 1196 1553 1215 1551.5 c 128,-1,46
 1234 1550 1234 1550 1252 1548 c 128,-1,47
 1270 1546 1270 1546 1293.5 1544 c 2,48,-1
 1350 1539 l 2,49,50
 1383 1536 1383 1536 1416 1536 c 1,51,-1
 1558 1543 l 1,52,53
 1596 1543 1596 1543 1620.5 1521.5 c 128,-1,54
 1645 1500 1645 1500 1645 1472.5 c 128,-1,55
 1645 1445 1645 1445 1633.5 1429.5 c 128,-1,56
 1622 1414 1622 1414 1605 1406 c 128,-1,57
 1588 1398 1588 1398 1568 1394.5 c 2,58,-1
 1530 1388 l 1,59,60
 1425.7 1368.88 1425.7 1368.88 1317 1256 c 0,61,62
 1265 1202 1265 1202 1207.5 1128.5 c 2,63,-1
 1077 965 l 1,64,-1
 961 827 l 1,65,-1
 1158 600 l 1,66,67
 1397.94 311.178 1397.94 311.178 1449.97 261.589 c 128,-1,68
 1502 212 1502 212 1527.5 194 c 0,69,70
 1570.57 163.596 1570.57 163.596 1604.29 157.798 c 2,71,-1
 1658 148.5 l 2,72,73
 1736 134.85 1736 134.85 1736 71 c 0,74,75
 1736 42 1736 42 1711.5 21.5 c 128,-1,76
 1687 1 1687 1 1661 1 c 128,-1,77
 1635 1 1635 1 1605.5 3.5 c 2,78,-1
 1543 9 l 1,79,-1
 1486 13 l 2,80,81
 1458 15 1458 15 1439 15 c 1,82,-1
 1195 0 l 1,83,84
 1127.78 0 1127.78 0 1102 43.5 c 0,85,86
 1094 57 1094 57 1094 73 c 0,87,88
 1094 165 1094 165 1274 165 c 2,89,-1
 1298 165 l 1,90,-1
 845 704 l 1,91,-1
 395 165 l 1,92,-1
 418 165 l 2,93,94
 597 165 597 165 597 73 c 0,95,96
 597 24.0811 597 24.0811 534.5 5.5 c 0,97,98
 516 0 516 0 496 0 c 1,99,-1
 262 14 l 1,0,-1
EndSplineSet
EndChar

StartChar: Y
Encoding: 89 89 25
Width: 1706
Flags: HW
LayerCount: 2
Fore
SplineSet
1477 1536 m 1,0,-1
 1628 1548 l 1,1,2
 1685.15 1548 1685.15 1548 1708.5 1499.5 c 0,3,4
 1715 1486 1715 1486 1715 1465.5 c 128,-1,5
 1715 1445 1715 1445 1703.5 1429.5 c 128,-1,6
 1692 1414 1692 1414 1674.5 1405.5 c 0,7,8
 1650.18 1393.69 1650.18 1393.69 1599.09 1387.34 c 128,-1,9
 1548 1381 1548 1381 1491.5 1329 c 128,-1,10
 1435 1277 1435 1277 1373.5 1196 c 128,-1,11
 1312 1115 1312 1115 1245 1013.5 c 1,12,-1
 1081 771.5 l 1,13,14
 952 586.6 952 586.6 952 502 c 2,15,-1
 952 161 l 1,16,-1
 1063 161 l 2,17,18
 1133 161 1133 161 1161 136.5 c 128,-1,19
 1189 112 1189 112 1189 80 c 128,-1,20
 1189 48 1189 48 1165 24 c 128,-1,21
 1141 0 1141 0 1083 0 c 2,22,-1
 1058 0 l 2,23,24
 1043 0 1043 0 1026 0.5 c 2,25,-1
 992.5 1.5 l 2,26,27
 976 2 976 2 960 3 c 0,28,29
 912 6 912 6 866 6 c 0,30,31
 814 6 814 6 773.5 4 c 128,-1,32
 733 2 733 2 715 1.5 c 2,33,-1
 678.5 0.5 l 2,34,35
 660 0 660 0 643.5 0 c 2,36,-1
 617 0 l 2,37,38
 572 0 572 0 545.5 21.5 c 128,-1,39
 519 43 519 43 519 79 c 256,40,41
 519 115 519 115 550 138 c 128,-1,42
 581 161 581 161 633 161 c 2,43,-1
 766 161 l 1,44,-1
 766 484 l 2,45,46
 766 576.111 766 576.111 629 774 c 1,47,-1
 561 870 l 2,48,49
 488 972 488 972 430.5 1061.5 c 128,-1,50
 373 1151 373 1151 321 1220 c 0,51,52
 208.514 1369.26 208.514 1369.26 108 1388 c 1,53,-1
 70 1394.5 l 2,54,55
 -8 1408.15 -8 1408.15 -8 1471 c 0,56,57
 -8 1550 -8 1550 80 1550 c 0,58,59
 111.75 1550 111.75 1550 138.375 1544.5 c 0,60,61
 179.523 1536 179.523 1536 213.261 1536 c 128,-1,62
 247 1536 247 1536 269 1537 c 2,63,-1
 313.5 1539 l 2,64,65
 363.931 1541.24 363.931 1541.24 386.466 1543.62 c 2,66,-1
 427 1548 l 2,67,68
 490 1555 490 1555 532 1555 c 128,-1,69
 574 1555 574 1555 599 1534.5 c 128,-1,70
 624 1514 624 1514 624 1477 c 128,-1,71
 624 1440 624 1440 583.5 1414 c 128,-1,72
 543 1388 543 1388 455 1388 c 2,73,-1
 414 1388 l 1,74,75
 465 1322 465 1322 515.5 1247.5 c 1,76,-1
 811 787 l 1,77,-1
 855 708 l 1,78,-1
 900 787 l 1,79,-1
 1089 1080 l 1,80,81
 1231.59 1293.88 1231.59 1293.88 1301 1388 c 1,82,-1
 1253 1388 l 2,83,84
 1178 1388 1178 1388 1135 1411.5 c 128,-1,85
 1092 1435 1092 1435 1092 1473.5 c 128,-1,86
 1092 1512 1092 1512 1117 1533.5 c 128,-1,87
 1142 1555 1142 1555 1178 1555 c 128,-1,88
 1214 1555 1214 1555 1249 1551.5 c 2,89,-1
 1313 1545 l 2,90,91
 1342.52 1541.31 1342.52 1541.31 1379.76 1539.66 c 2,92,-1
 1438.5 1537 l 2,93,94
 1460 1536 1460 1536 1477 1536 c 1,0,-1
EndSplineSet
EndChar

StartChar: Z
Encoding: 90 90 26
Width: 1526
Flags: HW
LayerCount: 2
Fore
SplineSet
1177.5 -135 m 128,-1,1
 1166 -139 1166 -139 1143 -139 c 128,-1,2
 1120 -139 1120 -139 1095.6 -109.596 c 128,-1,3
 1071.2 -80.1922 1071.2 -80.1922 1085 -25 c 1,4,5
 996.771 -6.83519 996.771 -6.83519 930.385 -5.4176 c 128,-1,6
 864 -4 864 -4 813.5 -3.5 c 128,-1,7
 763 -3 763 -3 707.5 -2 c 0,8,9
 428.223 3.03202 428.223 3.03202 318.611 -5.48399 c 0,10,11
 183.258 -16 183.258 -16 147.629 -16 c 0,12,13
 61 -16 61 -16 61 66 c 0,14,15
 61 133.018 61 133.018 167 266 c 1,16,-1
 1067 1376 l 1,17,18
 1021 1377 1021 1377 957 1379 c 2,19,-1
 824 1383 l 2,20,21
 773 1385 773 1385 723.5 1386.5 c 128,-1,22
 674 1388 674 1388 631 1389.5 c 0,23,24
 530.667 1393 530.667 1393 477.333 1393 c 0,25,26
 356.864 1393 356.864 1393 319 1274 c 1,27,28
 286.265 1186.71 286.265 1186.71 249.5 1172 c 0,29,30
 237 1167 237 1167 215 1167 c 128,-1,31
 193 1167 193 1167 170 1186 c 128,-1,32
 147 1205 147 1205 147 1237.5 c 0,33,34
 147 1330.9 147 1330.9 265.5 1539 c 0,35,36
 305.505 1609.25 305.505 1609.25 329.252 1621.13 c 128,-1,37
 353 1633 353 1633 377.5 1633 c 128,-1,38
 402 1633 402 1633 422.5 1616.5 c 128,-1,39
 443 1600 443 1600 443 1579 c 128,-1,40
 443 1558 443 1558 441 1546 c 1,41,42
 556.385 1521 556.385 1521 701 1521 c 1,43,-1
 1220 1535 l 1,44,45
 1311 1535 1311 1535 1311 1459 c 0,46,47
 1311 1413.44 1311 1413.44 1252 1336 c 1,48,-1
 313 157 l 1,49,50
 413 156 413 156 498.5 153 c 2,51,-1
 665 147 l 1,52,-1
 849 139.5 l 2,53,54
 939 136 939 136 1002 136 c 128,-1,55
 1065 136 1065 136 1089 145 c 128,-1,56
 1113 154 1113 154 1136.5 173.5 c 0,57,58
 1177.85 207.814 1177.85 207.814 1226.43 278.907 c 128,-1,59
 1275 350 1275 350 1299 378 c 128,-1,60
 1323 406 1323 406 1341.5 420.5 c 0,61,62
 1370.21 443 1370.21 443 1402.1 443 c 128,-1,63
 1434 443 1434 443 1452 422 c 128,-1,64
 1470 401 1470 401 1470 377 c 0,65,66
 1470 329.192 1470 329.192 1432.5 286.596 c 128,-1,67
 1395 244 1395 244 1368 203 c 128,-1,68
 1341 162 1341 162 1318.5 120 c 0,69,70
 1269.63 28.7762 1269.63 28.7762 1252.82 -21.6119 c 128,-1,71
 1236 -72 1236 -72 1224.5 -91 c 128,-1,72
 1213 -110 1213 -110 1201 -120.5 c 128,-1,0
 1189 -131 1189 -131 1177.5 -135 c 128,-1,1
EndSplineSet
EndChar

StartChar: n
Encoding: 110 110 27
Width: 1364
Flags: HW
LayerCount: 2
Fore
SplineSet
172 0 m 1,0,1
 76 0 76 0 76 74 c 256,2,3
 76 110 76 110 106 130 c 128,-1,4
 136 150 136 150 189 150 c 2,5,-1
 278 150 l 1,6,-1
 278 802 l 2,7,8
 278 862 278 862 252 862 c 0,9,10
 238 862 238 862 215 855 c 128,-1,11
 192 848 192 848 159 848 c 128,-1,12
 126 848 126 848 101 869 c 128,-1,13
 76 890 76 890 76 926.5 c 0,14,15
 76 1002.41 76 1002.41 184 1013 c 0,16,17
 241.333 1018.33 241.333 1018.33 278.667 1027.67 c 0,18,19
 340 1043 340 1043 377.5 1043 c 0,20,21
 451 1043 451 1043 451 947 c 2,22,-1
 451 816 l 1,23,24
 494.004 912.247 494.004 912.247 590 972.5 c 0,25,26
 689.576 1035 689.576 1035 798.788 1035 c 128,-1,27
 908 1035 908 1035 973.5 1007 c 128,-1,28
 1039 979 1039 979 1079.5 930 c 0,29,30
 1155 838.654 1155 838.654 1155 673 c 2,31,-1
 1155 150 l 1,32,-1
 1222 150 l 2,33,34
 1348 150 1348 150 1348 71 c 0,35,36
 1348 43 1348 43 1324 21.5 c 128,-1,37
 1300 0 1300 0 1242 0 c 1,38,-1
 1066 6 l 1,39,-1
 876 0 l 1,40,41
 780 0 780 0 780 74 c 256,42,43
 780 110 780 110 810 130 c 128,-1,44
 840 150 840 150 893 150 c 2,45,-1
 980 150 l 1,46,-1
 980 608 l 2,47,48
 980 818.192 980 818.192 873.5 860.5 c 0,49,50
 837 875 837 875 785 875 c 128,-1,51
 733 875 733 875 680 853.5 c 128,-1,52
 627 832 627 832 581.5 794 c 0,53,54
 482.601 711.403 482.601 711.403 451 585 c 1,55,-1
 451 150 l 1,56,-1
 518 150 l 2,57,58
 644 150 644 150 644 71 c 0,59,60
 644 43 644 43 620 21.5 c 128,-1,61
 596 0 596 0 538 0 c 1,62,-1
 362 6 l 1,63,-1
 172 0 l 1,0,1
EndSplineSet
EndChar

StartChar: h
Encoding: 104 104 28
Width: 1364
Flags: HW
LayerCount: 2
Fore
SplineSet
173 0 m 0,0,1
 76 0 76 0 76 74 c 256,2,3
 76 110 76 110 106.5 130 c 128,-1,4
 137 150 137 150 188 150 c 2,5,-1
 278 150 l 1,6,-1
 278 1352 l 2,7,8
 278 1391 278 1391 271.5 1401.5 c 128,-1,9
 265 1412 265 1412 254.5 1412 c 128,-1,10
 244 1412 244 1412 234 1409.5 c 2,11,-1
 211 1404 l 1,12,13
 183.5 1399 183.5 1399 154.75 1399 c 128,-1,14
 126 1399 126 1399 101 1419 c 128,-1,15
 76 1439 76 1439 76 1475.5 c 0,16,17
 76 1551.41 76 1551.41 184 1562 c 0,18,19
 252 1568 252 1568 280 1576.5 c 0,20,21
 337.647 1594 337.647 1594 376.324 1594 c 0,22,23
 451 1594 451 1594 451 1497 c 2,24,-1
 451 822 l 1,25,26
 494.5 909 494.5 909 585.5 969 c 0,27,28
 685.6 1035 685.6 1035 793.3 1035 c 128,-1,29
 901 1035 901 1035 967.5 1008.5 c 128,-1,30
 1034 982 1034 982 1075.5 935 c 0,31,32
 1154 846.096 1154 846.096 1154 683 c 2,33,-1
 1154 150 l 1,34,-1
 1221 150 l 2,35,36
 1347 150 1347 150 1347 71 c 0,37,38
 1347 43 1347 43 1323 21.5 c 128,-1,39
 1299 0 1299 0 1260 0 c 0,40,41
 1199.5 0 1199.5 0 1170.25 2 c 0,42,43
 1111.75 6 1111.75 6 1069.88 6 c 128,-1,44
 1028 6 1028 6 1007 5 c 2,45,-1
 963 3 l 2,46,47
 915 0 915 0 875 0 c 0,48,49
 779 0 779 0 779 74 c 256,50,51
 779 110 779 110 809 130 c 128,-1,52
 839 150 839 150 892 150 c 2,53,-1
 979 150 l 1,54,-1
 979 618 l 2,55,56
 979 827.789 979 827.789 861 863.5 c 0,57,58
 823 875 823 875 773 875 c 128,-1,59
 723 875 723 875 672 853 c 128,-1,60
 621 831 621 831 577.5 791 c 0,61,62
 482.384 703.537 482.384 703.537 451 578 c 1,63,-1
 451 150 l 1,64,-1
 518 150 l 2,65,66
 644 150 644 150 644 71 c 0,67,68
 644 43 644 43 619.5 21.5 c 128,-1,69
 595 0 595 0 556.5 0 c 0,70,71
 496.5 0 496.5 0 467.75 2 c 0,72,73
 410.25 6 410.25 6 368.125 6 c 128,-1,74
 326 6 326 6 305 5 c 2,75,-1
 261 3 l 2,76,77
 211 0 211 0 173 0 c 0,0,1
EndSplineSet
EndChar

StartChar: a
Encoding: 97 97 29
Width: 1194
Flags: HW
LayerCount: 2
Fore
SplineSet
1114 68 m 0,0,1
 1114 -15 1114 -15 1009.5 -15 c 128,-1,2
 905 -15 905 -15 859 117 c 1,3,4
 782.075 24.6905 782.075 24.6905 620 -5.5 c 0,5,6
 569 -15 569 -15 493.5 -15 c 128,-1,7
 418 -15 418 -15 344.5 5.5 c 128,-1,8
 271 26 271 26 222 64 c 0,9,10
 123 140.776 123 140.776 123 274 c 0,11,12
 123 494.545 123 494.545 368.5 561.5 c 0,13,14
 451 584 451 584 582.618 584 c 128,-1,15
 714.235 584 714.235 584 836 554 c 1,16,-1
 836 664 l 2,17,18
 836 828.585 836 828.585 704 866.5 c 0,19,20
 657 880 657 880 577.5 880 c 0,21,22
 409.25 880 409.25 880 383 790 c 1,23,24
 367.138 742.414 367.138 742.414 325.5 721 c 0,25,26
 308 712 308 712 285 712 c 0,27,28
 190 712 190 712 190 814 c 0,29,30
 190 901.075 190 901.075 301 966 c 0,31,32
 418.968 1035 418.968 1035 595 1035 c 0,33,34
 893.049 1035 893.049 1035 979.5 824 c 0,35,36
 1009 752 1009 752 1009 654 c 2,37,-1
 1009 395 l 2,38,39
 1009 258.769 1009 258.769 1018 221.385 c 0,40,41
 1031.32 166.049 1031.32 166.049 1061.16 147.025 c 0,42,43
 1114 113.336 1114 113.336 1114 68 c 0,0,1
836 416 m 1,44,45
 673.846 447 673.846 447 578.423 447 c 128,-1,46
 483 447 483 447 434.5 431.5 c 128,-1,47
 386 416 386 416 357 392 c 0,48,49
 304 348.138 304 348.138 304 281 c 0,50,51
 304 221.868 304 221.868 357.5 182.5 c 0,52,53
 413.897 141 413.897 141 512.949 141 c 0,54,55
 715.565 141 715.565 141 836 272 c 1,56,-1
 836 416 l 1,44,45
EndSplineSet
EndChar

StartChar: i
Encoding: 105 105 30
Width: 682
Flags: HW
LayerCount: 2
Fore
SplineSet
430 1260 m 128,-1,1
 407 1252 407 1252 380 1252 c 128,-1,2
 353 1252 353 1252 328 1261.5 c 128,-1,3
 303 1271 303 1271 286.5 1286.5 c 0,4,5
 253 1317.97 253 1317.97 253 1370.98 c 128,-1,6
 253 1424 253 1424 289.5 1459 c 128,-1,7
 326 1494 326 1494 385.5 1494 c 128,-1,8
 445 1494 445 1494 478.5 1462.5 c 128,-1,9
 512 1431 512 1431 512 1386.5 c 128,-1,10
 512 1342 512 1342 500.5 1320 c 128,-1,11
 489 1298 489 1298 471 1283 c 128,-1,0
 453 1268 453 1268 430 1260 c 128,-1,1
209 0 m 0,12,13
 112 0 112 0 112 74 c 256,14,15
 112 110 112 110 142.5 130 c 128,-1,16
 173 150 173 150 224 150 c 2,17,-1
 302 150 l 1,18,-1
 302 802 l 2,19,20
 302 862 302 862 276 862 c 0,21,22
 264.25 862 264.25 862 244.125 856.5 c 0,23,24
 213.023 848 213.023 848 181.511 848 c 128,-1,25
 150 848 150 848 125 869 c 128,-1,26
 100 890 100 890 100 926.5 c 0,27,28
 100 1002.41 100 1002.41 208 1013 c 0,29,30
 274.879 1018.9 274.879 1018.9 303.44 1026.95 c 0,31,32
 360.385 1043 360.385 1043 399.693 1043 c 0,33,34
 475 1043 475 1043 475 947 c 2,35,-1
 475 150 l 1,36,-1
 554 150 l 2,37,38
 680 150 680 150 680 71 c 0,39,40
 680 43 680 43 655.5 21.5 c 128,-1,41
 631 0 631 0 592.5 0 c 0,42,43
 532.5 0 532.5 0 503.75 2 c 0,44,45
 446.25 6 446.25 6 404.125 6 c 128,-1,46
 362 6 362 6 341 5 c 2,47,-1
 297 3 l 2,48,49
 247 0 247 0 209 0 c 0,12,13
EndSplineSet
EndChar

StartChar: d
Encoding: 100 100 31
Width: 1194
Flags: HW
LayerCount: 2
Fore
SplineSet
881 111 m 1,0,1
 768.034 -15 768.034 -15 590 -15 c 0,2,3
 385.508 -15 385.508 -15 251.5 118 c 0,4,5
 106 262.406 106 262.406 106 512 c 0,6,7
 106 729 106 729 256.5 879.5 c 0,8,9
 412 1035 412 1035 643 1035 c 0,10,11
 761.16 1035 761.16 1035 855 984 c 1,12,-1
 855 1353 l 2,13,14
 855 1392 855 1392 848.5 1402 c 128,-1,15
 842 1412 842 1412 830 1412 c 1,16,-1
 744 1400 l 1,17,18
 704 1400 704 1400 678.5 1420 c 128,-1,19
 653 1440 653 1440 653 1476.5 c 0,20,21
 653 1552.31 653 1552.31 762 1563 c 0,22,23
 836.049 1569.73 836.049 1569.73 860.524 1577.87 c 0,24,25
 909.072 1594 909.072 1594 950.536 1594 c 0,26,27
 1028 1594 1028 1594 1028 1498 c 2,28,-1
 1028 395 l 2,29,30
 1028 258.769 1028 258.769 1037 221.385 c 0,31,32
 1050.32 166.049 1050.32 166.049 1080.16 146.525 c 0,33,34
 1132 112.605 1132 112.605 1132 70 c 0,35,36
 1132 -15 1132 -15 1029.5 -15 c 128,-1,37
 927 -15 927 -15 881 111 c 1,0,1
855 803 m 1,38,39
 757.632 877 757.632 877 621 877 c 0,40,41
 475.135 877 475.135 877 377.5 774 c 128,-1,42
 280 671.143 280 671.143 280 521 c 0,43,44
 280 337.558 280 337.558 372 237 c 0,45,46
 458 143 458 143 607 143 c 128,-1,47
 756 143 756 143 855 258 c 1,48,-1
 855 803 l 1,38,39
EndSplineSet
EndChar

StartChar: e
Encoding: 101 101 32
Width: 1194
Flags: HW
LayerCount: 2
Fore
SplineSet
161 285 m 128,-1,1
 117 383 117 383 117 500.5 c 128,-1,2
 117 618 117 618 156 713 c 128,-1,3
 195 808 195 808 265 879.5 c 0,4,5
 417.238 1035 417.238 1035 645 1035 c 0,6,7
 835.034 1035 835.034 1035 951.5 938.5 c 0,8,9
 1058 850.257 1058 850.257 1058 729 c 0,10,11
 1058 580.167 1058 580.167 953 516 c 0,12,13
 830.003 440.835 830.003 440.835 479 447.5 c 0,14,15
 400 449 400 449 295 453 c 1,16,17
 313.458 297.949 313.458 297.949 423.5 214 c 0,18,19
 516.568 143 516.568 143 627.784 143 c 128,-1,20
 739 143 739 143 803.5 167.5 c 128,-1,21
 868 192 868 192 894 248 c 0,22,23
 924.708 315 924.708 315 969.854 315 c 128,-1,24
 1015 315 1015 315 1036.5 294 c 128,-1,25
 1058 273 1058 273 1058 236.5 c 128,-1,26
 1058 200 1058 200 1030.5 155.5 c 128,-1,27
 1003 111 1003 111 949.5 73 c 0,28,29
 825.605 -15 825.605 -15 637 -15 c 0,30,31
 425.226 -15 425.226 -15 277.5 120.5 c 0,32,0
 205 187 205 187 161 285 c 128,-1,1
299 604 m 1,33,-1
 367.5 602 l 2,34,35
 402 601 402 601 440.5 601 c 0,36,37
 684.875 601 684.875 601 745.438 610.5 c 128,-1,38
 806 620 806 620 834.5 635 c 0,39,40
 884 661.053 884 661.053 884 725 c 0,41,42
 884 783.111 884 783.111 817.5 828.5 c 0,43,44
 746.442 877 746.442 877 662.221 877 c 128,-1,45
 578 877 578 877 522 857.5 c 128,-1,46
 466 838 466 838 421 802.5 c 0,47,48
 324.69 726.522 324.69 726.522 299 604 c 1,33,-1
EndSplineSet
EndChar

StartChar: o
Encoding: 111 111 33
Width: 1194
Flags: HW
LayerCount: 2
Fore
SplineSet
92 502.5 m 0,0,1
 92 615 92 615 130.5 713.5 c 128,-1,2
 169 812 169 812 237.5 883.5 c 0,3,4
 382.643 1035 382.643 1035 601 1035 c 0,5,6
 824.037 1035 824.037 1035 959.5 897.5 c 0,7,8
 1101 753.872 1101 753.872 1101 510 c 0,9,10
 1101 284.794 1101 284.794 957 135.5 c 0,11,12
 811.837 -15 811.837 -15 594 -15 c 0,13,14
 362.848 -15 362.848 -15 224.5 133 c 0,15,16
 92 274.744 92 274.744 92 502.5 c 0,0,1
288.5 666 m 128,-1,18
 266 602 266 602 266 518 c 128,-1,19
 266 434 266 434 292.5 362.5 c 128,-1,20
 319 291 319 291 364 242 c 0,21,22
 454.918 143 454.918 143 599 143 c 0,23,24
 746.688 143 746.688 143 835 238.5 c 0,25,26
 926 336.907 926 336.907 926 499 c 0,27,28
 926 768.143 926 768.143 735 850 c 0,29,30
 672 877 672 877 593 877 c 128,-1,31
 514 877 514 877 454.5 850.5 c 128,-1,32
 395 824 395 824 353 777 c 128,-1,17
 311 730 311 730 288.5 666 c 128,-1,18
EndSplineSet
EndChar

StartChar: s
Encoding: 115 115 34
Width: 1022
Flags: HW
LayerCount: 2
Fore
SplineSet
536.1 -15 m 0,0,1
 449.2 -15 449.2 -15 368 -1 c 1,2,3
 327 -73 327 -73 282 -73 c 0,4,5
 218 -73 218 -73 218 -14 c 0,6,7
 218 38.3077 218 38.3077 191.5 83.1538 c 128,-1,8
 165 128 165 128 145 158 c 128,-1,9
 125 188 125 188 111.5 211.5 c 128,-1,10
 98 235 98 235 90.5 252 c 0,11,12
 78 280.333 78 280.333 78 309.167 c 128,-1,13
 78 338 78 338 101 357 c 128,-1,14
 124 376 124 376 151.5 376 c 0,15,16
 207.089 376 207.089 376 249 294 c 0,17,18
 296.383 201.208 296.383 201.208 358.5 171.5 c 0,19,20
 418.091 143 418.091 143 549 143 c 256,21,22
 742.167 143 742.167 143 800.5 253 c 0,23,24
 818 286 818 286 818 325 c 256,25,26
 818 403.316 818 403.316 749 436 c 0,27,28
 681.82 467.822 681.82 467.822 538.91 476.911 c 128,-1,29
 396 486 396 486 328.5 508.5 c 128,-1,30
 261 531 261 531 216.5 566.5 c 0,31,32
 130 635.506 130 635.506 130 746 c 0,33,34
 130 851.429 130 851.429 230.5 928 c 0,35,36
 351.25 1020 351.25 1020 564 1020 c 0,37,38
 608.667 1020 608.667 1020 654 1012 c 1,39,40
 644 1040 644 1040 644 1059 c 128,-1,41
 644 1078 644 1078 661 1094.5 c 128,-1,42
 678 1111 678 1111 703.5 1111 c 128,-1,43
 729 1111 729 1111 743 1098 c 128,-1,44
 757 1085 757 1085 770 1059.5 c 0,45,46
 793.224 1013.95 793.224 1013.95 833.612 961.973 c 128,-1,47
 874 910 874 910 886.5 892.5 c 128,-1,48
 899 875 899 875 906.5 860.5 c 0,49,50
 920 834.4 920 834.4 920 806.2 c 128,-1,51
 920 778 920 778 902.5 759 c 128,-1,52
 885 740 885 740 855.5 740 c 0,53,54
 801.184 740 801.184 740 757 813 c 0,55,56
 735.372 850.357 735.372 850.357 702.186 861.178 c 0,57,58
 650.6 878 650.6 878 574.3 878 c 128,-1,59
 498 878 498 878 453 867.5 c 128,-1,60
 408 857 408 857 378 839 c 0,61,62
 318 803 318 803 318 751 c 0,63,64
 318 701.122 318 701.122 350.5 680.561 c 0,65,66
 409.185 643.434 409.185 643.434 533.592 636.217 c 128,-1,67
 658 629 658 629 742.5 609 c 128,-1,68
 827 589 827 589 882.5 554 c 0,69,70
 991 485.577 991 485.577 991 351 c 0,71,72
 991 178.032 991 178.032 854 78 c 0,73,74
 726.63 -15 726.63 -15 536.1 -15 c 0,0,1
EndSplineSet
EndChar

StartChar: one
Encoding: 49 49 35
Width: 1020
Flags: HW
LayerCount: 2
Fore
SplineSet
155 79 m 256,0,1
 155 115 155 115 185.5 138 c 128,-1,2
 216 161 216 161 268 161 c 2,3,-1
 509 161 l 1,4,-1
 509 1295 l 1,5,6
 449 1241 l 2,7,8
 423 1217 423 1217 401.5 1193.5 c 0,9,10
 348.65 1133.01 348.65 1133.01 309.325 1084 c 0,11,12
 235.494 992 235.494 992 172 992 c 0,13,14
 128 992 128 992 107 1017.5 c 128,-1,15
 86 1043 86 1043 86 1081 c 256,16,17
 86 1148.27 86 1148.27 173 1214 c 1,18,19
 307.117 1307.14 307.117 1307.14 452 1477 c 1,20,-1
 489 1518 l 1,21,22
 542.833 1575 542.833 1575 593.917 1575 c 128,-1,23
 645 1575 645 1575 670 1541 c 128,-1,24
 695 1507 695 1507 695 1453 c 2,25,-1
 695 161 l 1,26,-1
 871 161 l 2,27,28
 941 161 941 161 970 136.5 c 128,-1,29
 999 112 999 112 999 80 c 128,-1,30
 999 48 999 48 974 24 c 128,-1,31
 949 0 949 0 891 0 c 2,32,-1
 860 0 l 2,33,34
 839 0 839 0 815 0.5 c 2,35,-1
 768 1.5 l 2,36,37
 745 2 745 2 734 2.5 c 128,-1,38
 723 3 723 3 707 3.5 c 128,-1,39
 691 4 691 4 672.5 4.5 c 2,40,-1
 635 5.5 l 2,41,42
 616 6 616 6 598.5 6 c 128,-1,43
 581 6 581 6 556.5 5.5 c 2,44,-1
 508 4.5 l 2,45,46
 484 4 484 4 463 3.5 c 128,-1,47
 442 3 442 3 430 2.5 c 128,-1,48
 418 2 418 2 392.5 1.5 c 2,49,-1
 339 0.5 l 2,50,51
 311 0 311 0 286 0 c 2,52,-1
 251 0 l 2,53,54
 206 0 206 0 180.5 21.5 c 128,-1,55
 155 43 155 43 155 79 c 256,0,1
EndSplineSet
EndChar

StartChar: two
Encoding: 50 50 36
Width: 1707
Flags: HW
LayerCount: 2
Fore
SplineSet
154.5 32 m 0,0,1
 145 49 145 49 145 86 c 128,-1,2
 145 123 145 123 181 155.5 c 128,-1,3
 217 188 217 188 368.5 262.5 c 128,-1,4
 520 337 520 337 691.5 451 c 128,-1,5
 863 565 863 565 977 674.5 c 0,6,7
 1204 892.539 1204 892.539 1204 1078 c 0,8,9
 1204 1228.84 1204 1228.84 1093.5 1322.5 c 128,-1,10
 983.191 1416 983.191 1416 800 1416 c 0,11,12
 626.688 1416 626.688 1416 521.5 1331 c 0,13,14
 418 1247.36 418 1247.36 418 1122 c 0,15,16
 418 1029.02 418 1029.02 476 994.5 c 0,17,18
 497 982 497 982 535 982 c 128,-1,19
 573 982 573 982 603.5 961.5 c 128,-1,20
 634 941 634 941 634 909.5 c 128,-1,21
 634 878 634 878 625 860 c 128,-1,22
 616 842 616 842 599 828.5 c 0,23,24
 561.852 799 561.852 799 505.926 799 c 128,-1,25
 450 799 450 799 402 823 c 128,-1,26
 354 847 354 847 317.5 889.5 c 0,27,28
 238 982.068 238 982.068 238 1115 c 0,29,30
 238 1301.89 238 1301.89 383 1431 c 0,31,32
 544.723 1575 544.723 1575 821 1575 c 0,33,34
 1077.72 1575 1077.72 1575 1238.5 1435 c 0,35,36
 1390 1303.08 1390 1303.08 1390 1107 c 0,37,38
 1390 894.385 1390 894.385 1235.5 701.5 c 0,39,40
 1086.43 515.394 1086.43 515.394 720 265 c 1,41,42
 784.219 247.875 784.219 247.875 867.109 219.938 c 128,-1,43
 950 192 950 192 994.5 180 c 128,-1,44
 1039 168 1039 168 1074 160.5 c 0,45,46
 1137 147 1137 147 1194 147 c 128,-1,47
 1251 147 1251 147 1305.5 174 c 128,-1,48
 1360 201 1360 201 1383 246 c 128,-1,49
 1406 291 1406 291 1428 308 c 128,-1,50
 1450 325 1450 325 1484 325 c 128,-1,51
 1518 325 1518 325 1539.5 301.5 c 128,-1,52
 1561 278 1561 278 1561 240 c 128,-1,53
 1561 202 1561 202 1530.5 155.5 c 128,-1,54
 1500 109 1500 109 1447 71 c 0,55,56
 1327.05 -15 1327.05 -15 1169 -15 c 0,57,58
 1054.83 -15 1054.83 -15 971.417 7 c 128,-1,59
 888 29 888 29 831 48 c 128,-1,60
 774 67 774 67 731.5 79.5 c 128,-1,61
 689 92 689 92 654.5 100 c 0,62,63
 589.812 115 589.812 115 544.406 115 c 128,-1,64
 499 115 499 115 459 94.5 c 128,-1,65
 419 74 419 74 373.5 40.5 c 0,66,67
 298.119 -15 298.119 -15 235 -15 c 0,68,69
 180.765 -15 180.765 -15 154.5 32 c 0,0,1
EndSplineSet
EndChar

StartChar: nine
Encoding: 57 57 37
Width: 1704
Flags: HW
LayerCount: 2
Fore
SplineSet
1118 777 m 0,0,1
 1189 777 1189 777 1189 703 c 0,2,3
 1189 600.814 1189 600.814 1058 512 c 0,4,5
 925.25 422 925.25 422 781.625 422 c 128,-1,6
 638 422 638 422 531 465.5 c 128,-1,7
 424 509 424 509 347 586 c 0,8,9
 184 749 184 749 184 998 c 0,10,11
 184 1238.04 184 1238.04 369 1405.5 c 0,12,13
 556.257 1575 556.257 1575 827 1575 c 0,14,15
 1128.07 1575 1128.07 1575 1321 1380 c 0,16,17
 1519 1179.87 1519 1179.87 1519 848 c 0,18,19
 1519 616.949 1519 616.949 1393.5 411 c 0,20,21
 1276.87 219.615 1276.87 219.615 1080.5 102 c 0,22,23
 885.152 -15 885.152 -15 676 -15 c 0,24,25
 521.263 -15 521.263 -15 486 52 c 0,26,27
 476 71 476 71 476 102.5 c 128,-1,28
 476 134 476 134 508 160.5 c 128,-1,29
 540 187 540 187 577.5 187 c 128,-1,30
 615 187 615 187 635.5 183 c 0,31,32
 720.2 166.473 720.2 166.473 777.1 168.737 c 128,-1,33
 834 171 834 171 900 195 c 128,-1,34
 966 219 966 219 1028.5 261.5 c 128,-1,35
 1091 304 1091 304 1146.5 363.5 c 128,-1,36
 1202 423 1202 423 1243.5 496 c 0,37,38
 1334 655.193 1334 655.193 1334 815.596 c 128,-1,39
 1334 976 1334 976 1293.5 1085 c 128,-1,40
 1253 1194 1253 1194 1182 1268 c 0,41,42
 1037.12 1419 1037.12 1419 805 1419 c 0,43,44
 626.839 1419 626.839 1419 495.5 1293 c 0,45,46
 361 1163.97 361 1163.97 361 981 c 0,47,48
 361 802.455 361 802.455 481 689 c 0,49,50
 595.231 581 595.231 581 766 581 c 0,51,52
 881.304 581 881.304 581 977 652 c 0,53,54
 1008 675 1008 675 1025 700 c 128,-1,55
 1042 725 1042 725 1053 739.5 c 128,-1,56
 1064 754 1064 754 1074.5 762 c 0,57,58
 1094.19 777 1094.19 777 1118 777 c 0,0,1
EndSplineSet
EndChar

StartChar: six
Encoding: 54 54 38
Width: 1704
Flags: HW
LayerCount: 2
Fore
SplineSet
238.5 409.5 m 128,-1,1
 186 544 186 544 186 688 c 128,-1,2
 186 832 186 832 219.5 943 c 128,-1,3
 253 1054 253 1054 311.5 1149.5 c 128,-1,4
 370 1245 370 1245 450 1323.5 c 128,-1,5
 530 1402 530 1402 623.5 1458 c 0,6,7
 818.848 1575 818.848 1575 1028 1575 c 0,8,9
 1182.38 1575 1182.38 1575 1217 1507.5 c 0,10,11
 1227 1488 1227 1488 1227 1456.5 c 128,-1,12
 1227 1425 1227 1425 1195.5 1399.5 c 128,-1,13
 1164 1374 1164 1374 1126.5 1374 c 128,-1,14
 1089 1374 1089 1374 1067.5 1377 c 2,15,-1
 1025 1383 l 1,16,17
 850.113 1416.63 850.113 1416.63 675 1298.5 c 0,18,19
 544.119 1210.21 544.119 1210.21 460 1064 c 0,20,21
 370 907.571 370 907.571 370 746.286 c 128,-1,22
 370 585 370 585 410 476.5 c 128,-1,23
 450 368 450 368 521 293.5 c 0,24,25
 664.43 143 664.43 143 898 143 c 0,26,27
 1076.28 143 1076.28 143 1205 268.5 c 0,28,29
 1336 396.225 1336 396.225 1336 581 c 0,30,31
 1336 771.667 1336 771.667 1219 880 c 0,32,33
 1109.92 981 1109.92 981 939 981 c 0,34,35
 824.043 981 824.043 981 727 909 c 0,36,37
 696 886 696 886 679 860.5 c 128,-1,38
 662 835 662 835 650.5 821.5 c 128,-1,39
 639 808 639 808 629 799.5 c 0,40,41
 611.941 785 611.941 785 583.471 785 c 128,-1,42
 555 785 555 785 535.5 803.5 c 128,-1,43
 516 822 516 822 516 865 c 128,-1,44
 516 908 516 908 552 958.5 c 128,-1,45
 588 1009 588 1009 647 1049 c 0,46,47
 779.75 1139 779.75 1139 922.875 1139 c 128,-1,48
 1066 1139 1066 1139 1172.5 1100 c 128,-1,49
 1279 1061 1279 1061 1355.5 988 c 0,50,51
 1518 832.935 1518 832.935 1518 574 c 0,52,53
 1518 454 1518 454 1469 347 c 128,-1,54
 1420 240 1420 240 1334 159.5 c 0,55,56
 1147.58 -15 1147.58 -15 877 -15 c 0,57,58
 574.862 -15 574.862 -15 383.5 180.5 c 0,59,0
 291 275 291 275 238.5 409.5 c 128,-1,1
EndSplineSet
EndChar

StartChar: three
Encoding: 51 51 39
Width: 1704
Flags: HW
LayerCount: 2
Fore
SplineSet
954 1388 m 1,0,1
 872.6 1377 872.6 1377 802.3 1377 c 128,-1,2
 732 1377 732 1377 675 1378 c 128,-1,3
 618 1379 618 1379 572.5 1381 c 0,4,5
 322.356 1392 322.356 1392 294.5 1470.5 c 0,6,7
 289 1486 289 1486 289 1512 c 128,-1,8
 289 1538 289 1538 318 1560 c 128,-1,9
 347 1582 347 1582 383.5 1582 c 0,10,11
 436 1582 436 1582 478.5 1573.5 c 128,-1,12
 521 1565 521 1565 552.5 1560.5 c 128,-1,13
 584 1556 584 1556 624.5 1553 c 0,14,15
 705.5 1547 705.5 1547 814.75 1547 c 128,-1,16
 924 1547 924 1547 968.5 1556 c 128,-1,17
 1013 1565 1013 1565 1048 1575.5 c 0,18,19
 1133 1601 1133 1601 1168.5 1601 c 128,-1,20
 1204 1601 1204 1601 1226.5 1580.5 c 128,-1,21
 1249 1560 1249 1560 1249 1539 c 128,-1,22
 1249 1518 1249 1518 1247 1504.5 c 128,-1,23
 1245 1491 1245 1491 1237.5 1477 c 0,24,25
 1222.85 1449.66 1222.85 1449.66 1181 1404 c 2,26,-1
 940 1142 l 1,27,-1
 943 1142 l 2,28,29
 1170.31 1142 1170.31 1142 1328.5 1009 c 0,30,31
 1503 862.287 1503 862.287 1503 618 c 0,32,33
 1503 351.832 1503 351.832 1308.5 171 c 0,34,35
 1108.44 -15 1108.44 -15 808 -15 c 0,36,37
 522.882 -15 522.882 -15 353 137 c 0,38,39
 200 273.895 200 273.895 200 464 c 0,40,41
 200 601.39 200 601.39 264.5 696.5 c 0,42,43
 327.908 790 327.908 790 419 790 c 0,44,45
 468 790 468 790 496 766 c 128,-1,46
 524 742 524 742 524 699 c 128,-1,47
 524 656 524 656 501.5 632.5 c 128,-1,48
 479 609 479 609 446 589.5 c 0,49,50
 386 554.045 386 554.045 386 476.523 c 128,-1,51
 386 399 386 399 420 340.5 c 128,-1,52
 454 282 454 282 512.5 238 c 0,53,54
 638.807 143 638.807 143 812 143 c 0,55,56
 1032.31 143 1032.31 143 1172.5 264.5 c 0,57,58
 1317 389.733 1317 389.733 1317 595 c 0,59,60
 1317 871.622 1317 871.622 1094 956 c 0,61,62
 1020 984 1020 984 959.5 984 c 128,-1,63
 899 984 899 984 873.5 980 c 128,-1,64
 848 976 848 976 820 958.5 c 128,-1,65
 792 941 792 941 776.5 929.5 c 128,-1,66
 761 918 761 918 746.5 908.5 c 0,67,68
 715.211 888 715.211 888 684.105 888 c 128,-1,69
 653 888 653 888 633 909.5 c 128,-1,70
 613 931 613 931 613 956 c 128,-1,71
 613 981 613 981 620 996.5 c 128,-1,72
 627 1012 627 1012 637.5 1027.5 c 0,73,74
 657.91 1057.63 657.91 1057.63 683 1085 c 2,75,-1
 954 1388 l 1,0,1
EndSplineSet
EndChar

StartChar: five
Encoding: 53 53 40
Width: 1704
Flags: HW
LayerCount: 2
Fore
SplineSet
577 1115 m 1,0,1
 662.75 1164 662.75 1164 854 1164 c 0,2,3
 1120.38 1164 1120.38 1164 1310.5 995 c 0,4,5
 1497 829.222 1497 829.222 1497 597 c 0,6,7
 1497 332.913 1497 332.913 1303 160 c 0,8,9
 1106.66 -15 1106.66 -15 804 -15 c 0,10,11
 541.56 -15 541.56 -15 366 127.5 c 0,12,13
 289 190 289 190 247.5 265 c 128,-1,14
 206 340 206 340 206 411 c 0,15,16
 206 600 206 600 332 600 c 0,17,18
 414 600 414 600 414 518 c 0,19,20
 414 499.625 414 499.625 406.5 481.812 c 0,21,22
 392 447.375 392 447.375 392 403.688 c 128,-1,23
 392 360 392 360 427.5 311.5 c 128,-1,24
 463 263 463 263 522 225.5 c 0,25,26
 651.8 143 651.8 143 818 143 c 0,27,28
 1039.5 143 1039.5 143 1173.5 254.5 c 0,29,30
 1313 370.573 1313 370.573 1313 575 c 0,31,32
 1313 773.969 1313 773.969 1178.5 897 c 0,33,34
 1042.94 1021 1042.94 1021 824 1021 c 0,35,36
 615.933 1021 615.933 1021 558 942 c 1,37,38
 515.333 878 515.333 878 459 878 c 0,39,40
 418.2 878 418.2 878 398.6 899 c 0,41,42
 360.396 939.932 360.396 939.932 380 1013 c 1,43,-1
 481 1367 l 1,44,45
 496.482 1416.89 496.482 1416.89 492.741 1445.44 c 0,46,47
 486 1496.9 486 1496.9 486 1522.95 c 128,-1,48
 486 1549 486 1549 507 1571.5 c 128,-1,49
 528 1594 528 1594 563 1594 c 0,50,51
 606.444 1594 606.444 1594 657.222 1576 c 0,52,53
 758.778 1540 758.778 1540 817.889 1540 c 128,-1,54
 877 1540 877 1540 899 1541 c 128,-1,55
 921 1542 921 1542 944 1543.5 c 0,56,57
 1025.83 1548.84 1025.83 1548.84 1072.41 1557.42 c 128,-1,58
 1119 1566 1119 1566 1137.5 1569 c 0,59,60
 1174.5 1575 1174.5 1575 1222.75 1575 c 128,-1,61
 1271 1575 1271 1575 1300 1553 c 128,-1,62
 1329 1531 1329 1531 1329 1505 c 128,-1,63
 1329 1479 1329 1479 1323.5 1463.5 c 128,-1,64
 1318 1448 1318 1448 1304 1434 c 0,65,66
 1273.12 1403.12 1273.12 1403.12 1218.56 1393.56 c 128,-1,67
 1164 1384 1164 1384 1134 1380 c 128,-1,68
 1104 1376 1104 1376 1069.5 1374 c 0,69,70
 1000.5 1370 1000.5 1370 881.679 1370 c 128,-1,71
 762.857 1370 762.857 1370 657 1383 c 1,72,-1
 577 1115 l 1,0,1
EndSplineSet
EndChar

StartChar: zero
Encoding: 48 48 41
Width: 1531
Flags: HW
LayerCount: 2
Fore
SplineSet
756 -15 m 0,0,1
 613 -15 613 -15 500 40 c 128,-1,2
 387 95 387 95 313 196 c 0,3,4
 166 396.635 166 396.635 166 764 c 0,5,6
 166 1367.56 166 1367.56 515.5 1526 c 0,7,8
 628 1577 628 1577 769.5 1577 c 128,-1,9
 911 1577 911 1577 1021 1524 c 128,-1,10
 1131 1471 1131 1471 1207.5 1369.5 c 0,11,12
 1365 1160.53 1365 1160.53 1365 780 c 0,13,14
 1365 401.949 1365 401.949 1198 189.5 c 0,15,16
 1037.25 -15 1037.25 -15 756 -15 c 0,0,1
1183 764 m 0,17,18
 1183 1419 1183 1419 766 1419 c 0,19,20
 470.902 1419 470.902 1419 380.5 1066 c 0,21,22
 349 943 349 943 349 769.5 c 128,-1,23
 349 596 349 596 382 475.5 c 128,-1,24
 415 355 415 355 472 281 c 0,25,26
 579.838 141 579.838 141 768 141 c 0,27,28
 939.349 141 939.349 141 1052.5 288 c 0,29,30
 1183 457.538 1183 457.538 1183 764 c 0,17,18
EndSplineSet
EndChar

StartChar: seven
Encoding: 55 55 42
Width: 1362
Flags: HW
LayerCount: 2
Fore
SplineSet
998 1385 m 1,0,1
 921.2 1377 921.2 1377 703.4 1377 c 128,-1,2
 485.6 1377 485.6 1377 314 1403 c 1,3,4
 288.208 1292.46 288.208 1292.46 236 1225.5 c 0,5,6
 190.39 1167 190.39 1167 148.695 1167 c 128,-1,7
 107 1167 107 1167 84.5 1185.5 c 128,-1,8
 62 1204 62 1204 62 1237.5 c 128,-1,9
 62 1271 62 1271 70.5 1289.5 c 128,-1,10
 79 1308 79 1308 104 1338.5 c 0,11,12
 141.978 1384.83 141.978 1384.83 191 1577 c 0,13,14
 206.273 1640 206.273 1640 269 1640 c 0,15,16
 299 1640 299 1640 319.5 1618.5 c 128,-1,17
 340 1597 340 1597 346 1572 c 1,18,19
 502.476 1550.78 502.476 1550.78 654.738 1548.89 c 128,-1,20
 807 1547 807 1547 882 1547 c 0,21,22
 1003 1547 1003 1547 1065.5 1567.5 c 0,23,24
 1155.44 1597 1155.44 1597 1190.22 1597 c 128,-1,25
 1225 1597 1225 1597 1251.5 1576.5 c 128,-1,26
 1278 1556 1278 1556 1278 1520.5 c 0,27,28
 1278 1464.18 1278 1464.18 1228 1421 c 1,29,30
 1155.52 1360.6 1155.52 1360.6 1002.5 1059.5 c 0,31,32
 777.868 617.483 777.868 617.483 678 254.5 c 0,33,34
 652 160 652 160 642.5 95.5 c 128,-1,35
 633 31 633 31 602.5 8 c 128,-1,36
 572 -15 572 -15 541.5 -15 c 128,-1,37
 511 -15 511 -15 494.5 -8 c 128,-1,38
 478 -1 478 -1 465 12.5 c 0,39,40
 436 42.6154 436 42.6154 436 83.8077 c 128,-1,41
 436 125 436 125 443 166 c 128,-1,42
 450 207 450 207 465 259.5 c 0,43,44
 495.179 365.128 495.179 365.128 551.59 498.064 c 1,45,46
 687.643 806.459 687.643 806.459 749.821 930.229 c 1,47,48
 908.12 1233 908.12 1233 998 1385 c 1,0,1
EndSplineSet
EndChar

StartChar: four
Encoding: 52 52 43
Width: 1704
Flags: HW
LayerCount: 2
Fore
SplineSet
528 511 m 1,0,-1
 372 514 l 1,1,-1
 349 514 l 2,2,3
 326 514 326 514 305.5 508 c 128,-1,4
 285 502 285 502 269.5 498 c 0,5,6
 234.625 489 234.625 489 208.312 489 c 128,-1,7
 182 489 182 489 165.5 497.5 c 128,-1,8
 149 506 149 506 138 519 c 0,9,10
 117 543.818 117 543.818 117 576.909 c 128,-1,11
 117 610 117 610 133.5 635.5 c 128,-1,12
 150 661 150 661 173 686 c 128,-1,13
 196 711 196 711 222 736.5 c 128,-1,14
 248 762 248 762 282 815.5 c 128,-1,15
 316 869 316 869 358 962 c 128,-1,16
 400 1055 400 1055 431 1155 c 0,17,18
 498 1371.13 498 1371.13 498 1552 c 2,19,-1
 498 1609.5 l 2,20,21
 498 1694.14 498 1694.14 537 1741.5 c 0,22,23
 558 1767 558 1767 600 1767 c 0,24,25
 697 1767 697 1767 697 1645 c 0,26,27
 697 1414.72 697 1414.72 594.5 1100.5 c 0,28,29
 532.958 911.839 532.958 911.839 473.479 810.419 c 128,-1,30
 414 709 414 709 375 668 c 1,31,-1
 993 668 l 1,32,-1
 993 742 l 2,33,34
 993 968 993 968 987 1088 c 128,-1,35
 981 1208 981 1208 981 1246.5 c 128,-1,36
 981 1285 981 1285 990 1305 c 128,-1,37
 999 1325 999 1325 1013 1338.5 c 0,38,39
 1041.52 1366 1041.52 1366 1080.26 1366 c 128,-1,40
 1119 1366 1119 1366 1146.5 1340 c 128,-1,41
 1174 1314 1174 1314 1174 1261.5 c 128,-1,42
 1174 1209 1174 1209 1171 1160 c 128,-1,43
 1168 1111 1168 1111 1165 1050.5 c 0,44,45
 1157 889.167 1157 889.167 1157 735 c 2,46,-1
 1157 670 l 1,47,48
 1224.86 673.878 1224.86 673.878 1272.43 678.939 c 0,49,50
 1376.4 690 1376.4 690 1422.2 690 c 0,51,52
 1533 690 1533 690 1533 584 c 0,53,54
 1533 534.196 1533 534.196 1449.5 508 c 0,55,56
 1424 500 1424 500 1391.5 500 c 128,-1,57
 1359 500 1359 500 1321.5 502 c 2,58,-1
 1244 506 l 2,59,60
 1222 508 1222 508 1200.5 508.5 c 128,-1,61
 1179 509 1179 509 1156 510 c 1,62,-1
 1156 157 l 1,63,-1
 1298 157 l 2,64,65
 1425 157 1425 157 1425 76 c 0,66,67
 1425 48 1425 48 1400.5 24 c 128,-1,68
 1376 0 1376 0 1318 0 c 1,69,-1
 1072 6 l 1,70,-1
 759 0 l 2,71,72
 715 0 715 0 689 21.5 c 128,-1,73
 663 43 663 43 663 79 c 256,74,75
 663 115 663 115 693.5 136 c 128,-1,76
 724 157 724 157 776 157 c 2,77,-1
 992 157 l 1,78,-1
 992 511 l 1,79,-1
 528 511 l 1,0,-1
EndSplineSet
EndChar

StartChar: eight
Encoding: 56 56 44
Width: 1531
Flags: HW
LayerCount: 2
Fore
SplineSet
1012 898 m 1,0,1
 1376 756.04 1376 756.04 1376 476 c 0,2,3
 1376 276.069 1376 276.069 1213 136.5 c 0,4,5
 1036.07 -15 1036.07 -15 751 -15 c 0,6,7
 456.669 -15 456.669 -15 295.5 139.5 c 0,8,9
 154 275.145 154 275.145 154 476 c 0,10,11
 154 619.2 154 619.2 247 737 c 0,12,13
 342.285 857.694 342.285 857.694 498 905 c 1,14,15
 310 1021.29 310 1021.29 310 1208 c 0,16,17
 310 1357.33 310 1357.33 412 1456.5 c 0,18,19
 533.886 1575 533.886 1575 766 1575 c 0,20,21
 1001.09 1575 1001.09 1575 1120.5 1468.5 c 0,22,23
 1228 1372.62 1228 1372.62 1228 1206 c 0,24,25
 1228 1057.51 1228 1057.51 1094 951 c 0,26,27
 1055 920 1055 920 1012 898 c 1,0,1
786 966 m 1,28,29
 969.54 987.062 969.54 987.062 1024 1112 c 0,30,31
 1041 1151 1041 1151 1041 1198 c 0,32,33
 1041 1297 1041 1297 967.5 1354 c 128,-1,34
 894 1411 894 1411 746 1411 c 0,35,36
 625.264 1411 625.264 1411 558 1353.5 c 0,37,38
 497 1301.35 497 1301.35 497 1219 c 0,39,40
 497 1101.75 497 1101.75 654.5 1016.5 c 0,41,42
 709 987 709 987 786 966 c 1,28,29
1189 468 m 0,43,44
 1189 710 1189 710 755 806 c 0,45,46
 751 806 751 806 747 808 c 1,47,48
 550.126 798.625 550.126 798.625 439 697.5 c 0,49,50
 341 608.32 341 608.32 341 485 c 0,51,52
 341 344.562 341 344.562 458 249.5 c 0,53,54
 580.462 150 580.462 150 774 150 c 0,55,56
 949.119 150 949.119 150 1067.5 238 c 0,57,58
 1189 328.319 1189 328.319 1189 468 c 0,43,44
EndSplineSet
EndChar

StartChar: m
Encoding: 109 109 45
Width: 2040
Flags: HW
LayerCount: 2
Fore
SplineSet
174 0 m 0,0,1
 78 0 78 0 78 74 c 256,2,3
 78 110 78 110 108 130 c 128,-1,4
 138 150 138 150 191 150 c 2,5,-1
 279 150 l 1,6,-1
 279 802 l 2,7,8
 279 862 279 862 255 862 c 0,9,10
 240 862 240 862 221.5 856.5 c 0,11,12
 192.909 848 192.909 848 159.955 848 c 128,-1,13
 127 848 127 848 102.5 869 c 128,-1,14
 78 890 78 890 78 926.5 c 0,15,16
 78 1002.72 78 1002.72 187 1013 c 0,17,18
 253.379 1019.03 253.379 1019.03 281.19 1027.02 c 0,19,20
 336.87 1043 336.87 1043 364 1043 c 0,21,22
 455 1043 455 1043 455 947 c 2,23,-1
 455 834 l 1,24,25
 508.331 923.52 508.331 923.52 604.5 981 c 0,26,27
 694.846 1035 694.846 1035 785 1035 c 0,28,29
 1055.67 1035 1055.67 1035 1127 821 c 1,30,31
 1177.42 916.03 1177.42 916.03 1276.5 977 c 0,32,33
 1370.75 1035 1370.75 1035 1468.38 1035 c 128,-1,34
 1566 1035 1566 1035 1634 1008.5 c 128,-1,35
 1702 982 1702 982 1746 935 c 0,36,37
 1831 844.205 1831 844.205 1831 683 c 2,38,-1
 1831 145 l 1,39,-1
 1898 144 l 1,40,41
 2024 144 2024 144 2024 65 c 0,42,43
 2024 37 2024 37 2000 15.5 c 128,-1,44
 1976 -6 1976 -6 1937 -6 c 0,45,46
 1840 -6 1840 -6 1807 0 c 128,-1,47
 1774 6 1774 6 1740 6 c 128,-1,48
 1706 6 1706 6 1684.5 5 c 2,49,-1
 1640 3 l 1,50,51
 1604 -2.98023e-08 1604 -2.98023e-08 1548 0 c 0,52,53
 1451 0 1451 0 1451 74 c 256,54,55
 1451 110 1451 110 1481.5 130 c 128,-1,56
 1512 150 1512 150 1563 150 c 1,57,-1
 1658 148 l 1,58,-1
 1658 618 l 2,59,60
 1658 875 1658 875 1459 875 c 0,61,62
 1368.17 875 1368.17 875 1277.5 788.5 c 0,63,64
 1179.21 694.727 1179.21 694.727 1147 564 c 1,65,-1
 1147 150 l 1,66,-1
 1214 150 l 2,67,68
 1340 150 1340 150 1340 71 c 0,69,70
 1340 43 1340 43 1316 21.5 c 128,-1,71
 1292 0 1292 0 1253 0 c 0,72,73
 1192.5 0 1192.5 0 1163.25 2 c 0,74,75
 1104.75 6 1104.75 6 1062.88 6 c 128,-1,76
 1021 6 1021 6 1000 5 c 2,77,-1
 956 3 l 2,78,79
 908 0 908 0 865.5 0 c 128,-1,80
 823 0 823 0 795.5 19 c 128,-1,81
 768 38 768 38 768 74 c 256,82,83
 768 110 768 110 800 130 c 128,-1,84
 832 150 832 150 885 150 c 2,85,-1
 974 150 l 1,86,-1
 974 618 l 2,87,88
 974 875 974 875 772 875 c 0,89,90
 680.253 875 680.253 875 587.5 788.5 c 0,91,92
 487.286 695.042 487.286 695.042 455 564 c 1,93,-1
 455 150 l 1,94,-1
 520 150 l 2,95,96
 646 150 646 150 646 71 c 0,97,98
 646 43 646 43 622 21.5 c 128,-1,99
 598 0 598 0 559 0 c 0,100,101
 498 0 498 0 469 2 c 0,102,103
 411 6 411 6 364 6 c 1,104,-1
 263 3 l 1,105,106
 224 -3.72529e-08 224 -3.72529e-08 174 0 c 0,0,1
EndSplineSet
EndChar

StartChar: p
Encoding: 112 112 46
Width: 1194
Flags: HW
LayerCount: 2
Fore
SplineSet
177 852 m 1,0,-1
 92 840 l 1,1,2
 52 840 52 840 27 860.5 c 128,-1,3
 2 881 2 881 2 918 c 0,4,5
 2 993.519 2 993.519 111 1004 c 0,6,7
 171.69 1009.52 171.69 1009.52 202.845 1017.76 c 2,8,-1
 252 1030.5 l 2,9,10
 270 1035 270 1035 305.5 1035 c 128,-1,11
 341 1035 341 1035 359 1008 c 128,-1,12
 377 981 377 981 377 939 c 2,13,-1
 377 903 l 1,14,15
 431 964 431 964 510.5 999.5 c 128,-1,16
 590 1035 590 1035 684 1035 c 128,-1,17
 778 1035 778 1035 864.5 1004.5 c 128,-1,18
 951 974 951 974 1015.5 911 c 0,19,20
 1155 774.744 1155 774.744 1155 519 c 0,21,22
 1155 293.855 1155 293.855 1010 141.5 c 0,23,24
 861.055 -15 861.055 -15 628 -15 c 0,25,26
 526.518 -15 526.518 -15 430.5 27.5 c 0,27,28
 400 41 400 41 377 59 c 1,29,-1
 377 -140 l 2,30,31
 377 -288.667 377 -288.667 404.5 -334.5 c 0,32,33
 415 -352 415 -352 437 -366 c 0,34,35
 480 -393.364 480 -393.364 480 -433.182 c 0,36,37
 480 -523 480 -523 380 -523 c 0,38,39
 258 -523 258 -523 217.5 -355 c 0,40,41
 204 -299 204 -299 204 -224 c 2,42,-1
 204 794 l 2,43,44
 204 832 204 832 197 842 c 128,-1,45
 190 852 190 852 177 852 c 1,0,-1
669 879 m 0,46,47
 487.582 879 487.582 879 377 723 c 1,48,-1
 377 240 l 1,49,50
 477.66 143 477.66 143 649 143 c 0,51,52
 793.971 143 793.971 143 889.5 255 c 0,53,54
 981 362.276 981 362.276 981 508 c 0,55,56
 981 789.474 981 789.474 795 858 c 0,57,58
 738 879 738 879 669 879 c 0,46,47
EndSplineSet
EndChar

StartChar: b
Encoding: 98 98 47
Width: 1194
Flags: HW
LayerCount: 2
Fore
SplineSet
311 67 m 1,0,1
 264.143 -15 264.143 -15 172.571 -15 c 128,-1,2
 81 -15 81 -15 81 70 c 0,3,4
 81 112.462 81 112.462 128 145 c 1,5,6
 161.678 166.049 161.678 166.049 170.339 202.025 c 0,7,8
 184 258.769 184 258.769 184 395 c 2,9,-1
 184 1353 l 2,10,11
 184 1392 184 1392 177 1402 c 128,-1,12
 170 1412 170 1412 157 1412 c 1,13,-1
 72 1400 l 1,14,15
 32 1400 32 1400 7 1420 c 128,-1,16
 -18 1440 -18 1440 -18 1476.5 c 0,17,18
 -18 1552.41 -18 1552.41 90 1563 c 0,19,20
 162.08 1569.36 162.08 1569.36 188.04 1577.68 c 0,21,22
 238.961 1594 238.961 1594 279.981 1594 c 0,23,24
 357 1594 357 1594 357 1498 c 2,25,-1
 357 933 l 1,26,27
 465.375 1035 465.375 1035 622 1035 c 0,28,29
 829.558 1035 829.558 1035 962 907.5 c 0,30,31
 1108 766.948 1108 766.948 1108 512 c 0,32,33
 1108 289 1108 289 957 138 c 0,34,35
 804 -15 804 -15 569 -15 c 0,36,37
 458.033 -15 458.033 -15 364.5 31 c 0,38,39
 334 46 334 46 311 67 c 1,0,1
354 219 m 1,40,41
 450.9 143 450.9 143 592 143 c 0,42,43
 728.925 143 728.925 143 827.5 239.5 c 0,44,45
 932 341.8 932 341.8 932 498 c 0,46,47
 932 679.442 932 679.442 840 780 c 0,48,49
 754.915 873 754.915 873 605.957 873 c 128,-1,50
 457 873 457 873 357 757 c 1,51,-1
 357 281 l 2,52,53
 357 247 357 247 354 219 c 1,40,41
EndSplineSet
EndChar

StartChar: q
Encoding: 113 113 48
Width: 1194
Flags: HW
LayerCount: 2
Fore
SplineSet
838 85 m 1,0,1
 729.489 -15 729.489 -15 573 -15 c 0,2,3
 367.508 -15 367.508 -15 233.5 118 c 0,4,5
 88 262.406 88 262.406 88 512 c 0,6,7
 88 729 88 729 238.5 879.5 c 0,8,9
 394 1035 394 1035 626 1035 c 0,10,11
 736.032 1035 736.032 1035 829.5 987.5 c 0,12,13
 860 972 860 972 883 952 c 1,14,15
 930.429 1035 930.429 1035 1022.21 1035 c 128,-1,16
 1114 1035 1114 1035 1114 948 c 0,17,18
 1114 905.731 1114 905.731 1067 875 c 0,19,20
 1033 851.627 1033 851.627 1024.5 816.313 c 0,21,22
 1011 760.231 1011 760.231 1011 624 c 2,23,-1
 1011 -281 l 2,24,25
 1011 -341 1011 -341 1037 -341 c 0,26,27
 1051 -341 1051 -341 1076 -334.5 c 128,-1,28
 1101 -328 1101 -328 1132.5 -328 c 128,-1,29
 1164 -328 1164 -328 1188.5 -349 c 128,-1,30
 1213 -370 1213 -370 1213 -406 c 0,31,32
 1213 -481.615 1213 -481.615 1105 -492 c 0,33,34
 1040.07 -497.73 1040.07 -497.73 1011.03 -506.365 c 0,35,36
 955.103 -523 955.103 -523 914.552 -523 c 0,37,38
 838 -523 838 -523 838 -426 c 2,39,-1
 838 85 l 1,0,1
841 807 m 1,40,41
 747.053 877 747.053 877 604 877 c 0,42,43
 465.99 877 465.99 877 363.5 769 c 0,44,45
 263 663.097 263 663.097 263 521 c 0,46,47
 263 337.558 263 337.558 355 237 c 0,48,49
 441 143 441 143 590.2 143 c 128,-1,50
 739.4 143 739.4 143 838 259 c 1,51,-1
 838 737 l 2,52,53
 838 774 838 774 841 807 c 1,40,41
EndSplineSet
EndChar

StartChar: l
Encoding: 108 108 49
Width: 682
Flags: HW
LayerCount: 2
Fore
SplineSet
600 214 m 0,0,1
 665 214 665 214 665 138 c 0,2,3
 665 80.7576 665 80.7576 594 34.5 c 0,4,5
 518.023 -15 518.023 -15 419 -15 c 0,6,7
 251.593 -15 251.593 -15 196 143 c 0,8,9
 177 197 177 197 177 271 c 2,10,-1
 177 1353 l 2,11,12
 177 1392 177 1392 170.5 1402 c 128,-1,13
 164 1412 164 1412 152 1412 c 1,14,-1
 65 1400 l 1,15,16
 26 1400 26 1400 0.5 1420 c 128,-1,17
 -25 1440 -25 1440 -25 1476.5 c 0,18,19
 -25 1552.41 -25 1552.41 83 1563 c 0,20,21
 153 1569 153 1569 180 1577.5 c 0,22,23
 232.412 1594 232.412 1594 273.206 1594 c 0,24,25
 351 1594 351 1594 351 1498 c 2,26,-1
 351 385 l 2,27,28
 351 245 351 245 365 206.5 c 128,-1,29
 379 168 379 168 396 156 c 128,-1,30
 413 144 413 144 440 144 c 0,31,32
 483.75 144 483.75 144 512.375 169 c 128,-1,33
 541 194 541 194 557 204 c 128,-1,34
 573 214 573 214 600 214 c 0,0,1
EndSplineSet
EndChar

StartChar: u
Encoding: 117 117 50
Width: 1190
Flags: HW
LayerCount: 2
Fore
SplineSet
741 840 m 1,0,1
 652 840 652 840 652 922 c 0,2,3
 652 994.577 652 994.577 750 1004 c 0,4,5
 802.308 1008.62 802.308 1008.62 834.654 1017.31 c 2,6,-1
 885 1030.5 l 2,7,8
 903 1035 903 1035 938.5 1035 c 128,-1,9
 974 1035 974 1035 992.5 1008 c 128,-1,10
 1011 981 1011 981 1011 939 c 2,11,-1
 1011 395 l 2,12,13
 1011 206.714 1011 206.714 1057 164 c 0,14,15
 1071 151 1071 151 1093.5 142 c 0,16,17
 1134 125.8 1134 125.8 1134 78.9 c 0,18,19
 1134 -15 1134 -15 1025 -15 c 0,20,21
 911.286 -15 911.286 -15 863.5 96.5 c 0,22,23
 847 135 847 135 841 188 c 1,24,25
 773.21 49.0302 773.21 49.0302 633.5 1.5 c 0,26,27
 585 -15 585 -15 509 -15 c 128,-1,28
 433 -15 433 -15 367.5 12.5 c 128,-1,29
 302 40 302 40 262 88.5 c 0,30,31
 187 179.438 187 179.438 187 345 c 2,32,-1
 187 794 l 2,33,34
 187 852 187 852 161 852 c 1,35,-1
 87 840 l 1,36,37
 -2 840 -2 840 -2 922 c 0,38,39
 -2 994.769 -2 994.769 94 1004 c 0,40,41
 150.571 1009.14 150.571 1009.14 183.286 1017.57 c 2,42,-1
 234.5 1030.5 l 2,43,44
 253 1035 253 1035 288 1035 c 128,-1,45
 323 1035 323 1035 342 1008 c 128,-1,46
 361 981 361 981 361 939 c 2,47,-1
 361 410 l 2,48,49
 361 209.274 361 209.274 462.5 162 c 0,50,51
 499 145 499 145 549 145 c 128,-1,52
 599 145 599 145 643.5 170.5 c 128,-1,53
 688 196 688 196 726 239 c 0,54,55
 805.156 328.571 805.156 328.571 838 462 c 1,56,-1
 838 794 l 2,57,58
 838 832 838 832 831 842 c 128,-1,59
 824 852 824 852 811 852 c 1,60,-1
 741 840 l 1,0,1
EndSplineSet
EndChar

StartChar: j
Encoding: 106 106 51
Width: 682
Flags: HW
LayerCount: 2
Fore
SplineSet
443.5 1252 m 128,-1,1
 421 1244 421 1244 393.5 1244 c 128,-1,2
 366 1244 366 1244 341 1253.5 c 128,-1,3
 316 1263 316 1263 299 1278.5 c 0,4,5
 265 1309.5 265 1309.5 265 1362.75 c 128,-1,6
 265 1416 265 1416 302 1451 c 128,-1,7
 339 1486 339 1486 401 1486 c 128,-1,8
 463 1486 463 1486 494 1452.5 c 128,-1,9
 525 1419 525 1419 525 1376.5 c 128,-1,10
 525 1334 525 1334 513.5 1312 c 128,-1,11
 502 1290 502 1290 484 1275 c 128,-1,0
 466 1260 466 1260 443.5 1252 c 128,-1,1
305 862 m 1,12,-1
 190 848 l 1,13,14
 150 848 150 848 125 869 c 128,-1,15
 100 890 100 890 100 926.5 c 128,-1,16
 100 963 100 963 128.5 987 c 128,-1,17
 157 1011 157 1011 233 1014.5 c 128,-1,18
 309 1018 309 1018 343 1025.5 c 128,-1,19
 377 1033 377 1033 395 1038 c 128,-1,20
 413 1043 413 1043 435 1043 c 128,-1,21
 457 1043 457 1043 475 1036 c 128,-1,22
 493 1029 493 1029 503 1016 c 0,23,24
 521 992.6 521 992.6 521 947 c 2,25,-1
 521 -53 l 2,26,27
 521 -404.75 521 -404.75 338 -481 c 0,28,29
 278 -506 278 -506 208.5 -506 c 128,-1,30
 139 -506 139 -506 89 -488 c 128,-1,31
 39 -470 39 -470 3 -437 c 0,32,33
 -72 -368.25 -72 -368.25 -72 -255 c 0,34,35
 -72 -182 -72 -182 -39 -139 c 128,-1,36
 -6 -96 -6 -96 40 -96 c 0,37,38
 132 -96 132 -96 132 -170 c 0,39,40
 132 -198 132 -198 121 -216.5 c 0,41,42
 103 -246.773 103 -246.773 103 -276 c 256,43,44
 103 -307.875 103 -307.875 122.5 -324.938 c 0,45,46
 155.714 -354 155.714 -354 190.357 -354 c 128,-1,47
 225 -354 225 -354 252 -342 c 128,-1,48
 279 -330 279 -330 298 -299 c 0,49,50
 337 -235.368 337 -235.368 337 -79 c 2,51,-1
 337 802 l 2,52,53
 337 862 337 862 305 862 c 1,12,-1
EndSplineSet
EndChar

StartChar: t
Encoding: 116 116 52
Width: 852
Flags: HW
LayerCount: 2
Fore
SplineSet
439 1013 m 1,0,-1
 692 1020 l 1,1,2
 751 1020 751 1020 775 998.5 c 128,-1,3
 799 977 799 977 799 955.5 c 128,-1,4
 799 934 799 934 793.5 919.5 c 128,-1,5
 788 905 788 905 775 893.5 c 0,6,7
 745.043 867 745.043 867 699.522 867 c 0,8,9
 636.5 867 636.5 867 539 872 c 1,10,-1
 439 875 l 1,11,-1
 439 395 l 2,12,13
 439 245.552 439 245.552 460.5 204.776 c 128,-1,14
 482 164 482 164 503.5 154 c 128,-1,15
 525 144 525 144 556.5 144 c 0,16,17
 612.714 144 612.714 144 651.857 179.5 c 128,-1,18
 691 215 691 215 709.5 226.5 c 128,-1,19
 728 238 728 238 757.5 238 c 128,-1,20
 787 238 787 238 807.5 215 c 128,-1,21
 828 192 828 192 828 161 c 128,-1,22
 828 130 828 130 806.5 98.5 c 128,-1,23
 785 67 785 67 748.5 42 c 0,24,25
 665.28 -15 665.28 -15 574.64 -15 c 128,-1,26
 484 -15 484 -15 430 7.5 c 128,-1,27
 376 30 376 30 339 69.5 c 0,28,29
 265 148.5 265 148.5 265 281 c 2,30,-1
 265 868 l 1,31,32
 230 865 230 865 188.5 865 c 128,-1,33
 147 865 147 865 120.5 887 c 128,-1,34
 94 909 94 909 94 944.5 c 128,-1,35
 94 980 94 980 120.5 1000 c 128,-1,36
 147 1020 147 1020 185.5 1020 c 128,-1,37
 224 1020 224 1020 264 1018 c 1,38,39
 263 1051 263 1051 261.5 1096 c 2,40,-1
 258.5 1184.5 l 2,41,42
 257 1228 257 1228 255.5 1262 c 128,-1,43
 254 1296 254 1296 254 1307 c 0,44,45
 254 1358 254 1358 282 1383 c 128,-1,46
 310 1408 310 1408 339.5 1408 c 128,-1,47
 369 1408 369 1408 385.5 1404.5 c 128,-1,48
 402 1401 402 1401 416 1389 c 0,49,50
 448 1361.57 448 1361.57 448 1297 c 1,51,-1
 439 1013 l 1,0,-1
EndSplineSet
EndChar

StartChar: f
Encoding: 102 102 53
Width: 856
Flags: HW
LayerCount: 2
Fore
SplineSet
629 0 m 1,0,-1
 412 6 l 2,1,2
 376 6 376 6 355 5 c 2,3,-1
 311 3 l 2,4,5
 260 0 260 0 219 0 c 128,-1,6
 178 0 178 0 151.5 19 c 128,-1,7
 125 38 125 38 125 74 c 256,8,9
 125 110 125 110 156 130 c 128,-1,10
 187 150 187 150 238 150 c 2,11,-1
 317 150 l 1,12,-1
 317 888 l 1,13,14
 311 887 311 887 305.5 887 c 2,15,-1
 295 887 l 1,16,17
 244 884 244 884 203 884 c 128,-1,18
 162 884 162 884 135.5 903.5 c 128,-1,19
 109 923 109 923 109 958.5 c 128,-1,20
 109 994 109 994 135.5 1014 c 128,-1,21
 162 1034 162 1034 203 1034 c 128,-1,22
 244 1034 244 1034 295 1031 c 1,23,-1
 317 1029 l 1,24,-1
 317 1241 l 2,25,26
 317 1403.4 317 1403.4 401 1500 c 0,27,28
 482.739 1594 482.739 1594 611.37 1594 c 128,-1,29
 740 1594 740 1594 806 1541.5 c 128,-1,30
 872 1489 872 1489 872 1395 c 0,31,32
 872 1351 872 1351 850 1325.5 c 128,-1,33
 828 1300 828 1300 793 1300 c 0,34,35
 727.735 1300 727.735 1300 710 1367 c 1,36,37
 691.156 1434 691.156 1434 609 1434 c 0,38,39
 491 1434 491 1434 491 1205 c 2,40,-1
 491 1028 l 1,41,-1
 532 1031 l 1,42,43
 605 1034 605 1034 670.5 1034 c 128,-1,44
 736 1034 736 1034 760 1012.5 c 128,-1,45
 784 991 784 991 784 969.5 c 128,-1,46
 784 948 784 948 778.5 934 c 128,-1,47
 773 920 773 920 760 909 c 0,48,49
 730.455 884 730.455 884 669.227 884 c 0,50,51
 546 884 546 884 491 889 c 1,52,-1
 491 150 l 1,53,-1
 611 150 l 2,54,55
 736 150 736 150 736 71 c 0,56,57
 736 43 736 43 711.5 21.5 c 128,-1,58
 687 0 687 0 629 0 c 1,0,-1
EndSplineSet
EndChar

StartChar: g
Encoding: 103 103 54
Width: 1194
Flags: HW
LayerCount: 2
Fore
SplineSet
903 952 m 1,0,1
 950.429 1035 950.429 1035 1042.21 1035 c 128,-1,2
 1134 1035 1134 1035 1134 948 c 0,3,4
 1134 905.731 1134 905.731 1087 875 c 0,5,6
 1053 853 1053 853 1045 817 c 0,7,8
 1032 758.5 1032 758.5 1032 624 c 2,9,-1
 1032 9 l 2,10,11
 1032 -237.61 1032 -237.61 909 -382.5 c 0,12,13
 786.331 -527 786.331 -527 581 -527 c 0,14,15
 413.471 -527 413.471 -527 312.5 -451 c 0,16,17
 217 -379.118 217 -379.118 217 -270 c 0,18,19
 217 -192.205 217 -192.205 258.5 -139 c 0,20,21
 300.62 -85 300.62 -85 367 -85 c 0,22,23
 405.5 -85 405.5 -85 429.25 -104 c 0,24,25
 471 -137.4 471 -137.4 471 -167.2 c 128,-1,26
 471 -197 471 -197 461 -210 c 128,-1,27
 451 -223 451 -223 439.5 -234 c 128,-1,28
 428 -245 428 -245 414 -254.5 c 128,-1,29
 400 -264 400 -264 400 -280 c 0,30,31
 400 -317 400 -317 443.5 -341 c 128,-1,32
 487 -365 487 -365 566 -365 c 128,-1,33
 645 -365 645 -365 695.5 -341.5 c 128,-1,34
 746 -318 746 -318 782 -272.5 c 0,35,36
 858 -176.444 858 -176.444 858 -4 c 2,37,-1
 858 85 l 1,38,39
 747.362 -15 747.362 -15 592 -15 c 0,40,41
 386.015 -15 386.015 -15 251 118 c 0,42,43
 104 262.806 104 262.806 104 512 c 0,44,45
 104 737.553 104 737.553 252.5 885 c 0,46,47
 403.571 1035 403.571 1035 635 1035 c 0,48,49
 753 1035 753 1035 847.5 988.5 c 0,50,51
 879 973 879 973 903 952 c 1,0,1
858 259 m 1,52,-1
 858 769.5 l 2,53,54
 858 785 858 785 860 799 c 1,55,56
 757 881 757 881 614 881 c 0,57,58
 479.2 881 479.2 881 378 771 c 0,59,60
 279 663.391 279 663.391 279 521 c 0,61,62
 279 337.409 279 337.409 373 237 c 0,63,64
 461 143 461 143 609.233 143 c 128,-1,65
 757.467 143 757.467 143 858 259 c 1,52,-1
EndSplineSet
EndChar

StartChar: r
Encoding: 114 114 55
Width: 1190
Flags: HW
LayerCount: 2
Fore
SplineSet
226 0 m 0,0,1
 129 0 129 0 129 74 c 256,2,3
 129 110 129 110 159.5 130 c 128,-1,4
 190 150 190 150 241 150 c 2,5,-1
 331 150 l 1,6,-1
 331 802 l 2,7,8
 331 862 331 862 305 862 c 0,9,10
 293.25 862 293.25 862 273.125 856.5 c 0,11,12
 242.023 848 242.023 848 210.511 848 c 128,-1,13
 179 848 179 848 154 869 c 128,-1,14
 129 890 129 890 129 926.5 c 0,15,16
 129 1002.41 129 1002.41 237 1013 c 0,17,18
 303.879 1018.9 303.879 1018.9 332.44 1026.95 c 0,19,20
 389.385 1043 389.385 1043 428.693 1043 c 0,21,22
 504 1043 504 1043 504 947 c 2,23,-1
 504 793 l 1,24,25
 582.164 964.961 582.164 964.961 760 1018 c 0,26,27
 817 1035 817 1035 873.5 1035 c 128,-1,28
 930 1035 930 1035 972.5 1022 c 128,-1,29
 1015 1009 1015 1009 1046 985 c 0,30,31
 1112 933.903 1112 933.903 1112 839.952 c 128,-1,32
 1112 746 1112 746 1079 696 c 128,-1,33
 1046 646 1046 646 991 646 c 0,34,35
 905 646 905 646 905 724 c 0,36,37
 905 740 905 740 908.5 750.5 c 2,38,-1
 916 772 l 258,39,40
 925 796.75 925 796.75 925 822.875 c 128,-1,41
 925 849 925 849 900.5 864.5 c 128,-1,42
 876 880 876 880 828.5 880 c 128,-1,43
 781 880 781 880 731.5 851 c 128,-1,44
 682 822 682 822 638 769.5 c 0,45,46
 545.912 659.622 545.912 659.622 504 480 c 1,47,-1
 504 150 l 1,48,-1
 666 150 l 2,49,50
 794 150 794 150 794 71 c 0,51,52
 794 43 794 43 769.5 21.5 c 128,-1,53
 745 0 745 0 683 0 c 128,-1,54
 621 0 621 0 570 2 c 0,55,56
 468 6 468 6 423.5 6 c 128,-1,57
 379 6 379 6 358 5 c 2,58,-1
 314 3 l 2,59,60
 264 0 264 0 226 0 c 0,0,1
EndSplineSet
EndChar

StartChar: v
Encoding: 118 118 56
Width: 1190
Flags: HW
LayerCount: 2
Fore
SplineSet
1090 1020 m 1,0,1
 1171 1020 1171 1020 1171 963 c 0,2,3
 1171 924.333 1171 924.333 1135.5 895.167 c 128,-1,4
 1100 866 1100 866 1078 845.5 c 128,-1,5
 1056 825 1056 825 1036 798 c 0,6,7
 993.94 741.219 993.94 741.219 954 645 c 0,8,9
 736.63 120.817 736.63 120.817 724.315 88.4085 c 128,-1,10
 712 56 712 56 702.5 30.5 c 128,-1,11
 693 5 693 5 665 -15.5 c 128,-1,12
 637 -36 637 -36 594 -36 c 256,13,14
 512.378 -36 512.378 -36 484 39 c 0,15,16
 470 77 470 77 442 144.5 c 2,17,-1
 234 645 l 2,18,19
 183.802 765.116 183.802 765.116 155.901 800.558 c 128,-1,20
 128 836 128 836 108.5 851 c 2,21,-1
 63 886 l 1,22,23
 16 923.6 16 923.6 16 963 c 0,24,25
 16 1020 16 1020 98 1020 c 1,26,-1
 210 1013 l 1,27,-1
 383 1020 l 1,28,29
 431 1020 431 1020 456 1001 c 128,-1,30
 481 982 481 982 481 954 c 0,31,32
 481 869 481 869 325 869 c 2,33,-1
 317 869 l 1,34,-1
 599 191 l 1,35,-1
 878 869 l 1,36,-1
 863 869 l 2,37,38
 708 869 708 869 708 954 c 0,39,40
 708 982 708 982 732.5 1001 c 128,-1,41
 757 1020 757 1020 805 1020 c 1,42,-1
 985 1013 l 1,43,-1
 1090 1020 l 1,0,1
EndSplineSet
EndChar

StartChar: c
Encoding: 99 99 57
Width: 1194
Flags: HW
LayerCount: 2
Fore
SplineSet
161.5 282.5 m 128,-1,1
 119 381 119 381 119 499.5 c 128,-1,2
 119 618 119 618 158.5 713 c 128,-1,3
 198 808 198 808 269.5 879.5 c 0,4,5
 425 1035 425 1035 656 1035 c 0,6,7
 718.556 1035 718.556 1035 783 1015 c 1,8,9
 781 1020 781 1020 781 1024 c 128,-1,10
 781 1028 781 1028 781 1046.5 c 128,-1,11
 781 1065 781 1065 799.5 1086.5 c 128,-1,12
 818 1108 818 1108 847 1108 c 0,13,14
 898.667 1108 898.667 1108 916 1056 c 1,15,-1
 928.5 1021 l 2,16,17
 951.562 958.103 951.562 958.103 1020 875 c 0,18,19
 1073 810.643 1073 810.643 1073 773.821 c 128,-1,20
 1073 737 1073 737 1054 716 c 128,-1,21
 1035 695 1035 695 1012.5 695 c 128,-1,22
 990 695 990 695 976 698.5 c 128,-1,23
 962 702 962 702 948 711 c 0,24,25
 917.413 730.663 917.413 730.663 881 778 c 1,26,27
 800 877 800 877 644 877 c 128,-1,28
 488.152 877 488.152 877 387.5 767.5 c 0,29,30
 293 664.692 293 664.692 293 521 c 0,31,32
 293 338.421 293 338.421 395.5 237 c 0,33,34
 490.5 143 490.5 143 636 143 c 0,35,36
 833.214 143 833.214 143 888 261 c 1,37,38
 922.667 325 922.667 325 967.333 325 c 128,-1,39
 1012 325 1012 325 1034 304 c 128,-1,40
 1056 283 1056 283 1056 246.5 c 128,-1,41
 1056 210 1056 210 1027.5 164 c 128,-1,42
 999 118 999 118 944 78 c 0,43,44
 816.125 -15 816.125 -15 623 -15 c 0,45,46
 416.568 -15 416.568 -15 274.5 118 c 0,47,0
 204 184 204 184 161.5 282.5 c 128,-1,1
EndSplineSet
EndChar

StartChar: w
Encoding: 119 119 58
Width: 1868
Flags: HW
LayerCount: 2
Fore
SplineSet
1761 1014 m 1,0,1
 1842 1014 1842 1014 1842 949 c 0,2,3
 1842 916.8 1842 916.8 1796 880 c 256,4,5
 1740.91 835.929 1740.91 835.929 1717.46 802.964 c 0,6,7
 1677.14 746.304 1677.14 746.304 1634.57 637.652 c 2,8,-1
 1422.5 85 l 2,9,10
 1417 70 1417 70 1414 60 c 0,11,12
 1398 10 1398 10 1365 -13 c 128,-1,13
 1332 -36 1332 -36 1292 -36 c 128,-1,14
 1252 -36 1252 -36 1219 -10.5 c 128,-1,15
 1186 15 1186 15 1173 62 c 0,16,17
 1171 70 1171 70 1166.5 83.5 c 128,-1,18
 1162 97 1162 97 1153.5 125 c 128,-1,19
 1145 153 1145 153 1129.5 199 c 2,20,-1
 945 748 l 1,21,22
 760.415 211.415 760.415 211.415 748.707 179.707 c 2,23,-1
 698 39 l 1,24,25
 669.324 -36 669.324 -36 579 -36 c 0,26,27
 500.432 -36 500.432 -36 468 39 c 0,28,29
 463 51 463 51 456.5 68.5 c 2,30,-1
 238 645 l 1,31,32
 174.273 800.493 174.273 800.493 120.5 847 c 0,33,34
 102 863 102 863 78 881.5 c 0,35,36
 33 916.188 33 916.188 33 957 c 0,37,38
 33 1014 33 1014 116 1014 c 1,39,-1
 220 1007 l 1,40,41
 248 1007 248 1007 270.5 1008.5 c 2,42,-1
 307 1011 l 2,43,44
 321 1012 321 1012 336.5 1014.5 c 0,45,46
 370.6 1020 370.6 1020 421.8 1020 c 128,-1,47
 473 1020 473 1020 497 1001 c 128,-1,48
 521 982 521 982 521 954 c 0,49,50
 521 863 521 863 366 863 c 2,51,-1
 335 863 l 1,52,-1
 587 199 l 1,53,-1
 808 862 l 2,54,55
 854.31 999 854.31 999 946 999 c 0,56,57
 996.387 999 996.387 999 1017.19 977.5 c 0,58,59
 1051.21 942.348 1051.21 942.348 1077 863 c 2,60,-1
 1293 199 l 1,61,-1
 1548 863 l 1,62,-1
 1511 863 l 2,63,64
 1356 863 1356 863 1356 954 c 0,65,66
 1356 982 1356 982 1380.5 1001 c 128,-1,67
 1405 1020 1405 1020 1453 1020 c 1,68,-1
 1656 1007 l 1,69,-1
 1761 1014 l 1,0,1
EndSplineSet
EndChar

StartChar: y
Encoding: 121 121 59
Width: 1194
Flags: HW
LayerCount: 2
Fore
SplineSet
1091 1020 m 1,0,1
 1173 1020 1173 1020 1173 952 c 0,2,3
 1173 918.458 1173 918.458 1151.5 903.229 c 128,-1,4
 1130 888 1130 888 1111.5 878 c 128,-1,5
 1093 868 1093 868 1075 851 c 128,-1,6
 1057 834 1057 834 1039 806.5 c 0,7,8
 1001.97 749.929 1001.97 749.929 960 645 c 2,9,-1
 646 -125 l 1,10,11
 553.212 -359.078 553.212 -359.078 483 -443.5 c 0,12,13
 402.743 -540 402.743 -540 269 -540 c 0,14,15
 163.831 -540 163.831 -540 95 -474.5 c 0,16,17
 31 -413.597 31 -413.597 31 -337.798 c 128,-1,18
 31 -262 31 -262 62.5 -221 c 128,-1,19
 94 -180 94 -180 141.5 -180 c 0,20,21
 232 -180 232 -180 232 -261 c 0,22,23
 232 -280.75 232 -280.75 226 -294.875 c 0,24,25
 215 -320.771 215 -320.771 215 -338.385 c 128,-1,26
 215 -356 215 -356 235.5 -370.5 c 128,-1,27
 256 -385 256 -385 284.5 -385 c 128,-1,28
 313 -385 313 -385 339 -367 c 128,-1,29
 365 -349 365 -349 395 -304 c 0,30,31
 454.321 -215.019 454.321 -215.019 539 14 c 1,32,-1
 250 645 l 1,33,34
 171.491 813.506 171.491 813.506 84 876 c 0,35,36
 27 916.714 27 916.714 27 956 c 0,37,38
 27 1020 27 1020 110 1020 c 1,39,-1
 218 1013 l 1,40,-1
 397 1026 l 1,41,42
 445 1026 445 1026 470 1007 c 128,-1,43
 495 988 495 988 495 960 c 0,44,45
 495 869 495 869 340 869 c 1,46,-1
 626 209 l 1,47,-1
 871 869 l 1,48,-1
 856 869 l 2,49,50
 700 869 700 869 700 960 c 0,51,52
 700 988 700 988 724 1007 c 128,-1,53
 748 1026 748 1026 796 1026 c 1,54,-1
 977 1013 l 1,55,-1
 1091 1020 l 1,0,1
EndSplineSet
EndChar

StartChar: k
Encoding: 107 107 60
Width: 1364
Flags: HW
LayerCount: 2
Fore
SplineSet
915 874 m 1,0,-1
 801 868 l 1,1,2
 753 868 753 868 725.5 889 c 128,-1,3
 698 910 698 910 698 944.5 c 128,-1,4
 698 979 698 979 727 1000 c 128,-1,5
 756 1021 756 1021 810 1021 c 1,6,-1
 1016 1013 l 1,7,-1
 1191 1025 l 1,8,9
 1244 1025 1244 1025 1267.5 1003 c 128,-1,10
 1291 981 1291 981 1291 949 c 0,11,12
 1291 873 1291 873 1186 873 c 2,13,-1
 1153.5 873 l 2,14,15
 1135 873 1135 873 1110 875 c 1,16,17
 1021.6 733.567 1021.6 733.567 843 598 c 1,18,19
 952.649 473.122 952.649 473.122 1026.82 351.061 c 1,20,-1
 1146 150 l 1,21,-1
 1214 150 l 2,22,23
 1340 150 1340 150 1340 71 c 0,24,25
 1340 43 1340 43 1316 21.5 c 128,-1,26
 1292 0 1292 0 1253 0 c 0,27,28
 1194 0 1194 0 1165 2 c 0,29,30
 1107 6 1107 6 1060 6 c 1,31,-1
 959 3 l 1,32,33
 920 -3.72529e-08 920 -3.72529e-08 870 0 c 0,34,35
 774 0 774 0 774 74 c 256,36,37
 774 110 774 110 804 130 c 128,-1,38
 834 150 834 150 887 150 c 2,39,-1
 955 150 l 1,40,41
 828.798 372.958 828.798 372.958 710 509 c 1,42,43
 577.362 430.246 577.362 430.246 454 395 c 1,44,-1
 454 150 l 1,45,-1
 499 150 l 2,46,47
 625 150 625 150 625 71 c 0,48,49
 625 43 625 43 601 21.5 c 128,-1,50
 577 0 577 0 538 0 c 0,51,52
 489 0 489 0 460 2 c 0,53,54
 402 6 402 6 355 6 c 1,55,-1
 254 3 l 1,56,57
 215 -3.72529e-08 215 -3.72529e-08 175 0 c 0,58,59
 79 0 79 0 79 74 c 256,60,61
 79 110 79 110 109 130 c 128,-1,62
 139 150 139 150 192 150 c 2,63,-1
 278 150 l 1,64,-1
 278 1352 l 2,65,66
 278 1412 278 1412 254 1412 c 0,67,68
 246 1412 246 1412 235.5 1409.5 c 2,69,-1
 212 1404 l 2,70,71
 187 1399 187 1399 166 1399 c 0,72,73
 78 1399 78 1399 78 1480 c 0,74,75
 78 1512 78 1512 106 1534.5 c 128,-1,76
 134 1557 134 1557 176 1561 c 0,77,78
 250.831 1568.13 250.831 1568.13 278.915 1576.06 c 2,79,-1
 324.5 1589 l 2,80,81
 342 1594 342 1594 363 1594 c 0,82,83
 454 1594 454 1594 454 1497 c 2,84,-1
 454 548 l 1,85,86
 663.383 616.704 663.383 616.704 826.5 770.5 c 0,87,88
 879 820 879 820 915 874 c 1,0,-1
EndSplineSet
EndChar

StartChar: z
Encoding: 122 122 61
Width: 1192
Flags: HW
LayerCount: 2
Fore
SplineSet
822 -9 m 1,0,1
 687 16 687 16 585 16 c 128,-1,2
 483 16 483 16 453.5 15.5 c 128,-1,3
 424 15 424 15 398.5 13.5 c 128,-1,4
 373 12 373 12 349 10 c 2,5,-1
 299 6 l 2,6,7
 227 -5.96046e-08 227 -5.96046e-08 187.5 -2.98023e-08 c 128,-1,8
 148 0 148 0 123 24.5 c 128,-1,9
 98 49 98 49 98 74.5 c 128,-1,10
 98 100 98 100 103 115.5 c 128,-1,11
 108 131 108 131 120 149.5 c 0,12,13
 141.261 182.277 141.261 182.277 205 250 c 1,14,-1
 813 870 l 1,15,16
 649 878 649 878 537.5 878 c 128,-1,17
 426 878 426 878 398.5 875 c 128,-1,18
 371 872 371 872 351.5 864 c 0,19,20
 318.17 850.326 318.17 850.326 293.085 803.163 c 128,-1,21
 268 756 268 756 245 737 c 128,-1,22
 222 718 222 718 190 718 c 256,23,24
 158 718 158 718 141 737.5 c 128,-1,25
 124 757 124 757 124 793.5 c 128,-1,26
 124 830 124 830 159 880 c 128,-1,27
 194 930 194 930 207 950.5 c 128,-1,28
 220 971 220 971 229 988.5 c 128,-1,29
 238 1006 238 1006 244.5 1022.5 c 2,30,-1
 258 1058 l 2,31,32
 279.111 1115 279.111 1115 331 1115 c 0,33,34
 360 1115 360 1115 380 1096.5 c 128,-1,35
 400 1078 400 1078 400 1058 c 128,-1,36
 400 1038 400 1038 396 1026 c 1,37,38
 459.636 1006 459.636 1006 513.818 1006 c 2,39,-1
 581 1006 l 1,40,-1
 902 1019 l 1,41,42
 1040 1019 1040 1019 1040 929 c 0,43,44
 1040 860 1040 860 935 755 c 1,45,-1
 351 163 l 1,46,47
 556.333 152 556.333 152 676.667 152 c 128,-1,48
 797 152 797 152 817 156.5 c 128,-1,49
 837 161 837 161 856.5 171 c 0,50,51
 897.708 192.132 897.708 192.132 927 239 c 0,52,53
 1003.36 365.388 1003.36 365.388 1044 377 c 0,54,55
 1058 381 1058 381 1073 381 c 128,-1,56
 1088 381 1088 381 1100.5 375 c 128,-1,57
 1113 369 1113 369 1122.5 360 c 0,58,59
 1143 340.579 1143 340.579 1143 315.789 c 0,60,61
 1143 268.04 1143 268.04 1107 225.52 c 0,62,63
 1035.04 140.531 1035.04 140.531 977 -25 c 1,64,65
 949 -101 949 -101 886 -101 c 0,66,67
 854 -101 854 -101 836.5 -81 c 128,-1,68
 819 -61 819 -61 819 -41 c 128,-1,69
 819 -21 819 -21 822 -9 c 1,0,1
EndSplineSet
EndChar

StartChar: x
Encoding: 120 120 62
Width: 1360
Flags: HW
LayerCount: 2
Fore
SplineSet
281 6 m 1,0,-1
 172 0 l 1,1,2
 128 0 128 0 106 20.5 c 128,-1,3
 84 41 84 41 84 69 c 0,4,5
 84 124.9 84 124.9 168 148 c 1,6,7
 235.181 168.994 235.181 168.994 305 248 c 1,8,-1
 560 522 l 1,9,-1
 330 761 l 1,10,11
 257.435 833.565 257.435 833.565 195.5 857 c 0,12,13
 177 864 177 864 149.5 874 c 0,14,15
 88 896.364 88 896.364 88 950 c 0,16,17
 88 978 88 978 110 999 c 128,-1,18
 132 1020 132 1020 174 1020 c 1,19,20
 295 1014 l 1,21,-1
 470 1024 l 1,22,23
 512 1024 512 1024 536.5 1003.5 c 128,-1,24
 561 983 561 983 561 952 c 0,25,26
 561 870.899 561 870.899 430 869 c 1,27,-1
 689 613 l 1,28,-1
 936 869 l 1,29,-1
 920 869 l 2,30,31
 782 869 782 869 782 951 c 0,32,33
 782 982 782 982 806.5 1002.5 c 128,-1,34
 831 1023 831 1023 873 1023 c 1,35,-1
 1049 1014 l 1,36,37
 1094 1014 1094 1014 1111.5 1016 c 0,38,39
 1146.5 1020 1146.5 1020 1178.25 1020 c 128,-1,40
 1210 1020 1210 1020 1233 999 c 128,-1,41
 1256 978 1256 978 1256 948.5 c 0,42,43
 1256 897.382 1256 897.382 1187 871 c 1,44,45
 1091.12 839.038 1091.12 839.038 995 739 c 1,46,-1
 786 517 l 1,47,-1
 1058 248 l 2,48,49
 1124.92 181.077 1124.92 181.077 1152.96 166.538 c 128,-1,50
 1181 152 1181 152 1210.5 143.5 c 0,51,52
 1278 124.051 1278 124.051 1278 70 c 0,53,54
 1278 41 1278 41 1253.5 20.5 c 128,-1,55
 1229 0 1229 0 1196.5 0 c 128,-1,56
 1164 0 1164 0 1144 2 c 0,57,58
 1104 6 1104 6 1080.5 6 c 128,-1,59
 1057 6 1057 6 1033.5 4.5 c 2,60,-1
 981 1 l 2,61,62
 951 -1 951 -1 922 -3.5 c 128,-1,63
 893 -6 893 -6 846 -6 c 128,-1,64
 799 -6 799 -6 770.5 17 c 128,-1,65
 742 40 742 40 742 64 c 128,-1,66
 742 88 742 88 748.5 101.5 c 128,-1,67
 755 115 755 115 772.5 125.5 c 0,68,69
 810 148 810 148 901 148 c 2,70,-1
 921 148 l 1,71,-1
 658 421 l 1,72,-1
 426 148 l 1,73,-1
 462 148 l 2,74,75
 620 148 620 148 620 70 c 0,76,77
 620 34 620 34 582.5 14 c 128,-1,78
 545 -6 545 -6 500.5 -6 c 128,-1,79
 456 -6 456 -6 429 -4 c 2,80,-1
 377 0 l 2,81,82
 351 2 351 2 327.5 4 c 128,-1,83
 304 6 304 6 281 6 c 1,0,-1
EndSplineSet
EndChar

StartChar: exclam
Encoding: 33 33 63
Width: 512
Flags: HW
LayerCount: 2
Fore
SplineSet
293.5 533.5 m 128,-1,1
 276 527 276 527 254.5 527 c 128,-1,2
 233 527 233 527 212.5 536 c 128,-1,3
 192 545 192 545 178 560 c 0,4,5
 150 590 150 590 150 622 c 128,-1,6
 150 654 150 654 152.5 674.5 c 2,7,-1
 158 718 l 2,8,9
 167 784 167 784 167 887 c 2,10,-1
 167 1236 l 2,11,12
 167 1344.5 167 1344.5 160.5 1380.75 c 0,13,14
 150 1439.31 150 1439.31 150 1479.15 c 128,-1,15
 150 1519 150 1519 178 1547 c 128,-1,16
 206 1575 206 1575 241 1575 c 128,-1,17
 276 1575 276 1575 293.5 1570 c 128,-1,18
 311 1565 311 1565 326 1553 c 0,19,20
 360 1525.8 360 1525.8 360 1491.4 c 0,21,22
 360 1451.5 360 1451.5 356.5 1411.75 c 0,23,24
 349 1326.57 349 1326.57 349 1236 c 2,25,-1
 349 887 l 2,26,27
 349 775 349 775 355 715 c 128,-1,28
 361 655 361 655 361 631.5 c 128,-1,29
 361 608 361 608 351 587.5 c 128,-1,30
 341 567 341 567 326 553.5 c 128,-1,0
 311 540 311 540 293.5 533.5 c 128,-1,1
154 23 m 128,-1,32
 116 61 116 61 116 122 c 128,-1,33
 116 183 116 183 152 222 c 128,-1,34
 188 261 188 261 254 261 c 128,-1,35
 320 261 320 261 357.5 223.5 c 128,-1,36
 395 186 395 186 395 139.5 c 128,-1,37
 395 93 395 93 385 68.5 c 128,-1,38
 375 44 375 44 356.5 25 c 0,39,40
 317.553 -15 317.553 -15 254.776 -15 c 128,-1,31
 192 -15 192 -15 154 23 c 128,-1,32
EndSplineSet
EndChar

StartChar: bullet
Encoding: 8226 8226 65
Width: 512
Flags: HW
LayerCount: 2
Fore
SplineSet
257 478 m 0,0,1
 216 478 216 478 180.5 491 c 128,-1,2
 145 504 145 504 120 528 c 0,3,4
 67 578.88 67 578.88 67 659 c 0,5,6
 67 784.071 67 784.071 177 826.5 c 0,7,8
 212 840 212 840 255 840 c 128,-1,9
 298 840 298 840 332.5 827 c 128,-1,10
 367 814 367 814 392 790.5 c 0,11,12
 445 740.68 445 740.68 445 658 c 0,13,14
 445 583.42 445 583.42 391 530.5 c 0,15,16
 337.429 478 337.429 478 257 478 c 0,0,1
EndSplineSet
EndChar

StartChar: period
Encoding: 46 46 66
Width: 512
Flags: HW
LayerCount: 2
Fore
SplineSet
150.5 24.5 m 128,-1,1
 111 64 111 64 111 128 c 128,-1,2
 111 192 111 192 148.5 232 c 128,-1,3
 186 272 186 272 254.5 272 c 128,-1,4
 323 272 323 272 362 233 c 128,-1,5
 401 194 401 194 401 127 c 0,6,7
 401 67.5526 401 67.5526 361 26.5 c 0,8,9
 320.564 -15 320.564 -15 255.282 -15 c 128,-1,0
 190 -15 190 -15 150.5 24.5 c 128,-1,1
EndSplineSet
EndChar

StartChar: comma
Encoding: 44 44 68
Width: 512
Flags: HW
LayerCount: 2
Fore
SplineSet
155 -318 m 0,0,1
 96 -318 96 -318 96 -267 c 0,2,3
 96 -231.217 96 -231.217 144.5 -197.609 c 0,4,5
 242 -130.045 242 -130.045 242 -73 c 0,6,7
 242 -39.4286 242 -39.4286 209.5 -4.71429 c 0,8,9
 144 65.2484 144 65.2484 144 122.624 c 128,-1,10
 144 180 144 180 179.5 214 c 128,-1,11
 215 248 215 248 260.5 248 c 128,-1,12
 306 248 306 248 332 234 c 128,-1,13
 358 220 358 220 376.5 196 c 0,14,15
 415 146.054 415 146.054 415 81.527 c 0,16,17
 415 -33.7692 415 -33.7692 353 -153 c 0,18,19
 293.742 -268.695 293.742 -268.695 199.5 -307.5 c 0,20,21
 174 -318 174 -318 155 -318 c 0,0,1
EndSplineSet
EndChar

StartChar: question
Encoding: 63 63 71
Width: 851
Flags: HW
LayerCount: 2
Fore
SplineSet
529 521.5 m 128,-1,1
 485 506 485 506 436 506 c 128,-1,2
 387 506 387 506 341.5 523.5 c 128,-1,3
 296 541 296 541 262 572.5 c 0,4,5
 189 640.132 189 640.132 189 747 c 0,6,7
 189 834.543 189 834.543 221.5 891.772 c 0,8,9
 277.082 989.645 277.082 989.645 365.041 1067.82 c 128,-1,10
 453 1146 453 1146 484.5 1200.5 c 128,-1,11
 516 1255 516 1255 516 1311 c 128,-1,12
 516 1367 516 1367 491 1395.5 c 128,-1,13
 466 1424 466 1424 434 1424 c 128,-1,14
 402 1424 402 1424 386.5 1420 c 128,-1,15
 371 1416 371 1416 359 1407.5 c 0,16,17
 336.94 1391.87 336.94 1391.87 317.97 1351.94 c 128,-1,18
 299 1312 299 1312 280 1295.5 c 128,-1,19
 261 1279 261 1279 226.5 1279 c 128,-1,20
 192 1279 192 1279 171 1303 c 128,-1,21
 150 1327 150 1327 150 1367 c 128,-1,22
 150 1407 150 1407 171 1445.5 c 128,-1,23
 192 1484 192 1484 228.5 1512.5 c 0,24,25
 308.544 1575 308.544 1575 422 1575 c 0,26,27
 545.174 1575 545.174 1575 624 1501.5 c 0,28,29
 701 1429.7 701 1429.7 701 1318 c 0,30,31
 701 1239.93 701 1239.93 672 1185.46 c 0,32,33
 622.663 1092.81 622.663 1092.81 549.331 1023.9 c 128,-1,34
 476 955 476 955 444.5 919.5 c 128,-1,35
 413 884 413 884 396.5 855 c 0,36,37
 369 806.667 369 806.667 369 757.833 c 0,38,39
 369 655 369 655 454 655 c 0,40,41
 506.957 655 506.957 655 534.978 692.5 c 128,-1,42
 563 730 563 730 579 742 c 128,-1,43
 595 754 595 754 620.5 754 c 128,-1,44
 646 754 646 754 664.5 736.5 c 128,-1,45
 683 719 683 719 683 683.5 c 128,-1,46
 683 648 683 648 662.5 617 c 128,-1,47
 642 586 642 586 607.5 561.5 c 128,-1,0
 573 537 573 537 529 521.5 c 128,-1,1
333 23 m 128,-1,49
 295 61 295 61 295 122 c 128,-1,50
 295 183 295 183 331 222 c 128,-1,51
 367 261 367 261 433 261 c 128,-1,52
 499 261 499 261 536.5 223.5 c 128,-1,53
 574 186 574 186 574 139.5 c 128,-1,54
 574 93 574 93 564 68.5 c 128,-1,55
 554 44 554 44 535.5 25 c 0,56,57
 496.553 -15 496.553 -15 433.776 -15 c 128,-1,48
 371 -15 371 -15 333 23 c 128,-1,49
EndSplineSet
EndChar

StartChar: quoteleft
Encoding: 8216 8216 73
Width: 512
Flags: HW
LayerCount: 2
Fore
SplineSet
340 1594 m 0,0,1
 399 1594 399 1594 399 1543 c 0,2,3
 399 1507.22 399 1507.22 356.5 1477.61 c 0,4,5
 277 1422.22 277 1422.22 277 1365 c 0,6,7
 277 1331.43 277 1331.43 309.5 1296.71 c 0,8,9
 370 1232.09 370 1232.09 370 1167 c 0,10,11
 370 1122.42 370 1122.42 345.5 1098.71 c 0,12,13
 303.433 1058 303.433 1058 262.717 1058 c 128,-1,14
 222 1058 222 1058 196 1071.5 c 128,-1,15
 170 1085 170 1085 151.5 1108 c 0,16,17
 113 1155.86 113 1155.86 113 1220.43 c 0,18,19
 113 1393.78 113 1393.78 206 1507 c 0,20,21
 250.143 1560.74 250.143 1560.74 286.571 1577.37 c 128,-1,22
 323 1594 323 1594 340 1594 c 0,0,1
EndSplineSet
EndChar

StartChar: quotesingle
Encoding: 39 39 79
Width: 512
Flags: HW
LayerCount: 2
Fore
SplineSet
256 971 m 0,0,1
 187 971 187 971 187 1072 c 0,2,3
 187 1215.67 187 1215.67 175 1292.83 c 2,4,-1
 157.5 1403 l 2,5,6
 152 1436 152 1436 152 1480.5 c 128,-1,7
 152 1525 152 1525 181 1559.5 c 128,-1,8
 210 1594 210 1594 259 1594 c 256,9,10
 308 1594 308 1594 333.5 1558.5 c 128,-1,11
 359 1523 359 1523 359 1476.5 c 0,12,13
 359 1420.5 359 1420.5 348 1357.75 c 0,14,15
 326 1232.25 326 1232.25 326 1072 c 0,16,17
 326 1022 326 1022 305.5 996.5 c 128,-1,18
 285 971 285 971 256 971 c 0,0,1
EndSplineSet
EndChar

StartChar: guilsinglleft
Encoding: 8249 8249 81
Width: 849
Flags: HW
LayerCount: 2
Fore
SplineSet
305.896 387.246 m 128,-1,1
 233 456 233 456 221 468.5 c 128,-1,2
 209 481 209 481 203 490.5 c 0,3,4
 194 504.75 194 504.75 194 527.875 c 0,5,6
 194 569.667 194 569.667 261 630.333 c 0,7,8
 375.475 733.987 375.475 733.987 472 870 c 0,9,10
 507.54 918.867 507.54 918.867 530.77 928.934 c 128,-1,11
 554 939 554 939 581.5 939 c 128,-1,12
 609 939 609 939 632 920 c 128,-1,13
 655 901 655 901 655 876 c 128,-1,14
 655 851 655 851 652.5 837 c 128,-1,15
 650 823 650 823 642 808.5 c 0,16,17
 627.865 782.88 627.865 782.88 592.432 751.44 c 128,-1,18
 557 720 557 720 534 695.5 c 0,19,20
 468.445 623.117 468.445 623.117 440.223 588.558 c 2,21,-1
 393 529 l 1,22,23
 412 503 412 503 436.5 473.5 c 0,24,25
 537.33 355.356 537.33 355.356 569.165 327.178 c 128,-1,26
 601 299 601 299 617.5 281.5 c 128,-1,27
 634 264 634 264 642 249.5 c 0,28,29
 655 225.938 655 225.938 655 191.469 c 128,-1,30
 655 157 655 157 632 138 c 128,-1,31
 609 119 609 119 581.5 119 c 128,-1,32
 554 119 554 119 539 125.5 c 128,-1,33
 524 132 524 132 512 142 c 0,34,35
 495.385 155.846 495.385 155.846 437.088 237.169 c 128,-1,0
 378.791 318.493 378.791 318.493 305.896 387.246 c 128,-1,1
EndSplineSet
EndChar

StartChar: hyphen
Encoding: 45 45 85
Width: 1022
Flags: HW
LayerCount: 2
Fore
SplineSet
511 740 m 257,0,-1
 701 747 l 1,1,2
 767.375 747 767.375 747 791 693 c 0,3,4
 798 677 798 677 798 650 c 128,-1,5
 798 623 798 623 771.5 597 c 128,-1,6
 745 571 745 571 704 571 c 128,-1,7
 663 571 663 571 626.5 573 c 0,8,9
 553.5 577 553.5 577 511 577 c 256,10,11
 475 577 475 577 453.5 576 c 2,12,-1
 410 574 l 2,13,14
 359 571 359 571 318 571 c 128,-1,15
 277 571 277 571 250.5 597 c 128,-1,16
 224 623 224 623 224 650 c 128,-1,17
 224 677 224 677 231 693 c 128,-1,18
 238 709 238 709 250.5 721 c 0,19,20
 277.583 747 277.583 747 321 747 c 1,21,-1
 511 740 l 257,0,-1
EndSplineSet
EndChar

StartChar: endash
Encoding: 8211 8211 86
Width: 1025
Flags: HW
LayerCount: 2
Fore
SplineSet
477 577 m 1,0,-1
 221 571 l 1,1,2
 159 571 159 571 129.5 597 c 128,-1,3
 100 623 100 623 100 658.5 c 128,-1,4
 100 694 100 694 131.5 720.5 c 128,-1,5
 163 747 163 747 234 747 c 1,6,7
 477 740 l 1,8,-1
 736 747 l 1,9,10
 796 747 796 747 825 720.5 c 128,-1,11
 854 694 854 694 854 658.5 c 128,-1,12
 854 623 854 623 826.5 597 c 128,-1,13
 799 571 799 571 761 571 c 128,-1,14
 723 571 723 571 692 572 c 2,15,-1
 629 574 l 2,16,17
 555 577 555 577 477 577 c 1,0,-1
EndSplineSet
EndChar

StartChar: emdash
Encoding: 8212 8212 87
Width: 1196
Flags: HW
LayerCount: 2
Fore
SplineSet
577 582 m 1,0,-1
 157 571 l 1,1,2
 0 571 0 571 0 659 c 256,3,4
 0 747 0 747 170 747 c 0,5,6
 253 747 253 747 318.5 742.5 c 0,7,8
 427.667 735 427.667 735 538.833 735 c 0,9,10
 706 735 706 735 805 741 c 128,-1,11
 904 747 904 747 1004 747 c 0,12,13
 1154 747 1154 747 1154 659 c 256,14,15
 1154 571 1154 571 1000 571 c 0,16,17
 908.333 571 908.333 571 841.167 575 c 0,18,19
 723.625 582 723.625 582 577 582 c 1,0,-1
EndSplineSet
EndChar

StartChar: bar
Encoding: 124 124 88
Width: 849
Flags: HW
LayerCount: 2
Fore
SplineSet
424 -360 m 256,0,1
 324 -360 324 -360 324 -200 c 0,2,3
 324 -136.333 324 -136.333 328.5 -70.1667 c 128,-1,4
 333 -4 333 -4 334 40.5 c 128,-1,5
 335 85 335 85 335.5 146 c 128,-1,6
 336 207 336 207 336.5 277.5 c 2,7,-1
 337.5 414 l 2,8,9
 338 480 338 480 338 534 c 2,10,-1
 338 693 l 2,11,12
 338 745 338 745 337.5 810.5 c 128,-1,13
 337 876 337 876 336.5 949 c 128,-1,14
 336 1022 336 1022 335 1089 c 0,15,16
 332.736 1240.7 332.736 1240.7 330.368 1274.35 c 2,17,-1
 326.5 1328.5 l 2,18,19
 325 1349 325 1349 324 1371 c 2,20,-1
 322 1414 l 2,21,22
 321 1435 321 1435 321 1464.5 c 128,-1,23
 321 1494 321 1494 330.5 1521 c 128,-1,24
 340 1548 340 1548 355 1564.5 c 0,25,26
 381.818 1594 381.818 1594 424 1594 c 256,27,28
 492.667 1594 492.667 1594 517.5 1519.5 c 0,29,30
 527 1491 527 1491 527 1461 c 128,-1,31
 527 1431 527 1431 526 1410 c 128,-1,32
 525 1389 525 1389 523.5 1367.5 c 128,-1,33
 522 1346 522 1346 521 1326.5 c 128,-1,34
 520 1307 520 1307 519 1287.5 c 128,-1,35
 518 1268 518 1268 517 1216.5 c 128,-1,36
 516 1165 516 1165 515 1099 c 128,-1,37
 514 1033 514 1033 513 959.5 c 128,-1,38
 512 886 512 886 511.5 819 c 128,-1,39
 511 752 511 752 511 698 c 2,40,-1
 511 540.5 l 2,41,42
 511 488 511 488 511.5 422 c 2,43,44
 512.5 284.5 l 2,45,46
 514.36 18.5221 514.36 18.5221 517.18 -30.739 c 0,47,48
 524 -149.874 524 -149.874 524 -212 c 0,49,50
 524 -360 524 -360 424 -360 c 256,0,1
EndSplineSet
EndChar

StartChar: brokenbar
Encoding: 166 166 89
Width: 849
Flags: HW
LayerCount: 2
Fore
SplineSet
524 888 m 1,0,1
 524 740 524 740 424 740 c 256,2,3
 324 740 324 740 324 900 c 0,4,5
 324 934 324 934 327 973 c 2,6,7
 333 1049 l 2,8,9
 338 1116.5 338 1116.5 338 1167 c 1,10,-1
 321 1452 l 1,11,12
 321 1563.31 321 1563.31 388 1587.5 c 0,13,14
 406 1594 406 1594 424 1594 c 256,15,16
 492.667 1594 492.667 1594 517.5 1519.5 c 0,17,18
 527 1491 527 1491 527 1448 c 1,19,-1
 511 1167 l 1,20,-1
 524 888 l 1,0,1
424 -360 m 256,21,22
 324 -360 324 -360 324 -200 c 0,23,24
 324 -166 324 -166 327 -132 c 2,25,-1
 333 -61 l 2,26,27
 338 6.5 338 6.5 338 54.25 c 128,-1,28
 338 102 338 102 335 137 c 128,-1,29
 332 172 332 172 329 206 c 0,30,31
 321 296.667 321 296.667 321 345.333 c 128,-1,32
 321 394 321 394 330.5 421 c 128,-1,33
 340 448 340 448 355 464.5 c 0,34,35
 381.818 494 381.818 494 424 494 c 256,36,37
 492.667 494 492.667 494 517.5 419.5 c 0,38,39
 527 391 527 391 527 354 c 0,40,41
 527 288.667 527 288.667 522 233.833 c 0,42,43
 511 113.2 511 113.2 511 67 c 1,44,-1
 524 -212 l 1,45,46
 524 -360 524 -360 424 -360 c 256,21,22
EndSplineSet
EndChar

StartChar: slash
Encoding: 47 47 90
Width: 1024
Flags: HW
LayerCount: 2
Fore
SplineSet
241.5 -182.5 m 0,0,1
 233 -163 233 -163 233 -134.5 c 0,2,3
 233 -100.353 233 -100.353 272 -4 c 257,4,-1
 311.5 97 l 2,5,6
 334 156 334 156 357 244 c 2,7,-1
 609 1203 l 2,8,9
 633.267 1292.6 633.267 1292.6 652.633 1408.3 c 128,-1,10
 672 1524 672 1524 703.5 1559 c 128,-1,11
 735 1594 735 1594 778.5 1594 c 128,-1,12
 822 1594 822 1594 846.5 1568.5 c 128,-1,13
 871 1543 871 1543 871 1511.5 c 0,14,15
 871 1465 871 1465 852.5 1409 c 2,16,-1
 818 1301 l 2,17,18
 802 1249 802 1249 781 1171 c 2,19,-1
 493 103 l 2,20,21
 485 72 485 72 478.5 40.5 c 2,22,-1
 465.5 -24.5 l 2,23,24
 459 -58 459 -58 448.5 -116.5 c 0,25,26
 427.051 -236 427.051 -236 320 -236 c 0,27,28
 264.821 -236 264.821 -236 241.5 -182.5 c 0,0,1
EndSplineSet
EndChar

StartChar: underscore
Encoding: 95 95 91
Width: 849
Flags: HW
LayerCount: 2
Fore
SplineSet
860 0 m 1,0,-1
 860 -165 l 1,1,-1
 -10 -165 l 1,2,-1
 -10 0 l 1,3,-1
 860 0 l 1,0,-1
EndSplineSet
EndChar

StartChar: plus
Encoding: 43 43 92
Width: 1192
Flags: HW
LayerCount: 2
Fore
SplineSet
591 133 m 128,-1,1
 508 133 508 133 508 260 c 2,2,-1
 508 529 l 1,3,-1
 271 529 l 2,4,5
 144 529 144 529 144 610 c 0,6,7
 144 645 144 645 174.5 668 c 128,-1,8
 205 691 205 691 271 691 c 2,9,-1
 508 691 l 1,10,-1
 508 963 l 2,11,12
 508 1026 508 1026 532 1056.5 c 128,-1,13
 556 1087 556 1087 591 1087 c 0,14,15
 674 1087 674 1087 674 963 c 2,16,-1
 674 691 l 1,17,-1
 924 691 l 2,18,19
 981 691 981 691 1014.5 670 c 128,-1,20
 1048 649 1048 649 1048 610 c 0,21,22
 1048 529 1048 529 924 529 c 2,23,-1
 674 529 l 1,24,-1
 674 260 l 2,25,0
 674 133 674 133 591 133 c 128,-1,1
EndSplineSet
EndChar

StartChar: equal
Encoding: 61 61 93
Width: 1022
Flags: HW
LayerCount: 2
Fore
SplineSet
963 786 m 0,0,1
 963 705 963 705 839 705 c 2,2,-1
 186 705 l 2,3,4
 59 705 59 705 59 786 c 0,5,6
 59 821 59 821 89.5 844 c 128,-1,7
 120 867 120 867 186 867 c 2,8,-1
 839 867 l 2,9,10
 896 867 896 867 929.5 846 c 128,-1,11
 963 825 963 825 963 786 c 0,0,1
963 427 m 0,12,13
 963 346 963 346 839 346 c 2,14,-1
 186 346 l 2,15,16
 59 346 59 346 59 427 c 0,17,18
 59 462 59 462 89.5 485 c 128,-1,19
 120 508 120 508 186 508 c 2,20,-1
 839 508 l 2,21,22
 896 508 896 508 929.5 487 c 128,-1,23
 963 466 963 466 963 427 c 0,12,13
EndSplineSet
EndChar

StartChar: divide
Encoding: 247 247 94
Width: 1022
Flags: HW
LayerCount: 2
Fore
SplineSet
567.5 857.5 m 128,-1,1
 542 847 542 847 494.5 847 c 128,-1,2
 447 847 447 847 409 885 c 128,-1,3
 371 923 371 923 371 984 c 128,-1,4
 371 1045 371 1045 407 1084 c 128,-1,5
 443 1123 443 1123 509 1123 c 128,-1,6
 575 1123 575 1123 612.5 1085.5 c 128,-1,7
 650 1048 650 1048 650 1001.5 c 128,-1,8
 650 955 650 955 640 930.5 c 128,-1,9
 630 906 630 906 611.5 887 c 128,-1,0
 593 868 593 868 567.5 857.5 c 128,-1,1
958 610 m 0,10,11
 958 529 958 529 834 529 c 2,12,-1
 191 529 l 2,13,14
 64 529 64 529 64 610 c 0,15,16
 64 645 64 645 94.5 668 c 128,-1,17
 125 691 125 691 191 691 c 2,18,-1
 834 691 l 2,19,20
 891 691 891 691 924.5 670 c 128,-1,21
 958 649 958 649 958 610 c 0,10,11
409 145 m 128,-1,23
 371 183 371 183 371 244 c 128,-1,24
 371 305 371 305 407 344 c 128,-1,25
 443 383 443 383 509 383 c 128,-1,26
 575 383 575 383 612.5 345.5 c 128,-1,27
 650 308 650 308 650 261.5 c 128,-1,28
 650 215 650 215 640 190.5 c 128,-1,29
 630 166 630 166 611.5 147 c 0,30,31
 572.553 107 572.553 107 509.776 107 c 128,-1,22
 447 107 447 107 409 145 c 128,-1,23
EndSplineSet
EndChar

StartChar: multiply
Encoding: 215 215 95
Width: 1022
Flags: HW
LayerCount: 2
Fore
SplineSet
226 247 m 256,0,1
 190 247 190 247 169.5 267.5 c 128,-1,2
 149 288 149 288 149 314 c 0,3,4
 149 364 149 364 202 417 c 2,5,-1
 396 611 l 1,6,-1
 202 805 l 2,7,8
 149 858 149 858 149 895 c 128,-1,9
 149 932 149 932 169.5 951 c 128,-1,10
 190 970 190 970 227.5 970 c 128,-1,11
 265 970 265 970 316 919 c 2,12,-1
 510 725 l 1,13,-1
 705 919 l 2,14,15
 756 970 756 970 793.5 970 c 128,-1,16
 831 970 831 970 851.5 951 c 128,-1,17
 872 932 872 932 872 895 c 128,-1,18
 872 858 872 858 819 805 c 2,19,-1
 624 610 l 1,20,-1
 818 417 l 2,21,22
 871 364 871 364 871 326 c 128,-1,23
 871 288 871 288 850.5 267.5 c 128,-1,24
 830 247 830 247 802.5 247 c 0,25,26
 760 247 760 247 704 303 c 2,27,-1
 510 496 l 1,28,-1
 316 303 l 1,29,30
 262 247 262 247 226 247 c 256,0,1
EndSplineSet
EndChar

StartChar: logicalnot
Encoding: 172 172 96
Width: 1192
Flags: HW
LayerCount: 2
Fore
SplineSet
970 211 m 256,0,1
 887 211 887 211 887 338 c 2,2,-1
 887 529 l 1,3,-1
 265 529 l 2,4,5
 198 529 198 529 168 548.5 c 128,-1,6
 138 568 138 568 138 610 c 0,7,8
 138 691 138 691 265 691 c 2,9,-1
 918 691 l 2,10,11
 990 691 990 691 1021 663.5 c 128,-1,12
 1052 636 1052 636 1052 576 c 2,13,-1
 1053 338 l 2,14,15
 1053 211 1053 211 970 211 c 256,0,1
EndSplineSet
EndChar

StartChar: plusminus
Encoding: 177 177 97
Width: 1104
Flags: HW
LayerCount: 2
Fore
SplineSet
630 565 m 2,0,1
 630 438 630 438 547 438 c 128,-1,2
 464 438 464 438 464 565 c 2,3,-1
 464 774 l 1,4,-1
 227 774 l 2,5,6
 100 774 100 774 100 855 c 0,7,8
 100 890 100 890 130.5 913 c 128,-1,9
 161 936 161 936 227 936 c 2,10,-1
 464 936 l 1,11,-1
 464 1178 l 2,12,13
 464 1241 464 1241 488 1271.5 c 128,-1,14
 512 1302 512 1302 547 1302 c 0,15,16
 630 1302 630 1302 630 1178 c 2,17,-1
 630 936 l 1,18,-1
 880 936 l 2,19,20
 937 936 937 936 970.5 915 c 128,-1,21
 1004 894 1004 894 1004 855 c 0,22,23
 1004 774 1004 774 880 774 c 2,24,-1
 630 774 l 1,25,-1
 630 565 l 2,0,1
227 172 m 2,26,27
 100 172 100 172 100 253 c 0,28,29
 100 288 100 288 130.5 311 c 128,-1,30
 161 334 161 334 227 334 c 2,31,-1
 880 334 l 2,32,33
 937 334 937 334 970.5 313 c 128,-1,34
 1004 292 1004 292 1004 253 c 0,35,36
 1004 172 1004 172 880 172 c 2,37,-1
 227 172 l 2,26,27
EndSplineSet
EndChar

StartChar: less
Encoding: 60 60 98
Width: 1022
Flags: HW
LayerCount: 2
Fore
SplineSet
208.5 527 m 2,0,1
 131 572 131 572 108.5 609 c 128,-1,2
 86 646 86 646 86 672 c 128,-1,3
 86 698 86 698 88.5 714.5 c 128,-1,4
 91 731 91 731 101.5 747.5 c 0,5,6
 122.627 780.699 122.627 780.699 204.813 827.849 c 0,7,8
 572.679 1041.15 572.679 1041.15 624.339 1074.57 c 128,-1,9
 676 1108 676 1108 695.5 1131.5 c 0,10,11
 745.702 1192 745.702 1192 790.351 1192 c 128,-1,12
 835 1192 835 1192 859.5 1169.5 c 128,-1,13
 884 1147 884 1147 884 1123.5 c 128,-1,14
 884 1100 884 1100 880 1085 c 128,-1,15
 876 1070 876 1070 865.5 1055 c 0,16,17
 831.102 1005.86 831.102 1005.86 719.551 938.43 c 2,18,-1
 536 829 l 1,19,-1
 272 679 l 1,20,-1
 675 446.5 l 1,21,22
 831.102 352.14 831.102 352.14 865.5 303 c 0,23,24
 884 276.571 884 276.571 884 243.786 c 128,-1,25
 884 211 884 211 859.5 188.5 c 128,-1,26
 835 166 835 166 799.5 166 c 128,-1,27
 764 166 764 166 739.5 184.5 c 128,-1,28
 715 203 715 203 695.5 226.5 c 128,-1,29
 676 250 676 250 633.5 277.5 c 128,-1,30
 591 305 591 305 524.5 344.5 c 2,31,-1
 208.5 527 l 2,0,1
EndSplineSet
EndChar

StartChar: degree
Encoding: 176 176 100
Width: 855
Flags: HW
LayerCount: 2
Fore
SplineSet
424 1035 m 0,0,1
 365 1035 365 1035 313.5 1055.5 c 128,-1,2
 262 1076 262 1076 224 1111.5 c 0,3,4
 144 1186.24 144 1186.24 144 1300 c 0,5,6
 144 1418.13 144 1418.13 225 1497 c 0,7,8
 305.108 1575 305.108 1575 430 1575 c 0,9,10
 550.743 1575 550.743 1575 630 1502 c 0,11,12
 711 1427.39 711 1427.39 711 1306 c 0,13,14
 711 1193.99 711 1193.99 625 1113.5 c 0,15,16
 541.123 1035 541.123 1035 424 1035 c 0,0,1
375 1178.5 m 128,-1,18
 400 1168 400 1168 430 1168 c 128,-1,19
 460 1168 460 1168 485.5 1178.5 c 128,-1,20
 511 1189 511 1189 529 1207 c 0,21,22
 566 1244 566 1244 566 1304 c 128,-1,23
 566 1364 566 1364 529 1404 c 128,-1,24
 492 1444 492 1444 443 1444 c 128,-1,25
 394 1444 394 1444 369 1433 c 128,-1,26
 344 1422 344 1422 326.5 1403.5 c 0,27,28
 290 1364.91 290 1364.91 290 1321.46 c 128,-1,29
 290 1278 290 1278 301 1252 c 128,-1,30
 312 1226 312 1226 331 1207.5 c 128,-1,17
 350 1189 350 1189 375 1178.5 c 128,-1,18
EndSplineSet
EndChar

StartChar: parenleft
Encoding: 40 40 101
Width: 856
Flags: HW
LayerCount: 2
Fore
SplineSet
704 -224 m 0,0,1
 596.136 -224 596.136 -224 468 -104 c 1,2,3
 150 189.221 150 189.221 150 676 c 256,4,5
 150 1161.78 150 1161.78 468 1455 c 1,6,7
 596.136 1575 596.136 1575 704 1575 c 0,8,9
 742 1575 742 1575 765 1554 c 128,-1,10
 788 1533 788 1533 788 1510 c 128,-1,11
 788 1487 788 1487 785 1474 c 128,-1,12
 782 1461 782 1461 773.5 1449 c 0,13,14
 756.803 1425.43 756.803 1425.43 690.901 1393.21 c 128,-1,15
 625 1361 625 1361 554.5 1294 c 128,-1,16
 484 1227 484 1227 435 1136 c 0,17,18
 333 946.571 333 946.571 333 676 c 0,19,20
 333 410.222 333 410.222 437.5 216 c 0,21,22
 535.241 34.3397 535.241 34.3397 712 -53 c 0,23,24
 755 -74 755 -74 771.5 -96.5 c 128,-1,25
 788 -119 788 -119 788 -150 c 128,-1,26
 788 -181 788 -181 765 -202.5 c 128,-1,27
 742 -224 742 -224 704 -224 c 0,0,1
EndSplineSet
EndChar

StartChar: bracketleft
Encoding: 91 91 103
Width: 856
Flags: HW
LayerCount: 2
Fore
SplineSet
601 -224 m 1,0,-1
 470 -218 l 2,1,2
 451 -218 451 -218 435.5 -219 c 2,3,-1
 404 -221 l 1,4,5
 378.5 -224 378.5 -224 316.75 -224 c 128,-1,6
 255 -224 255 -224 217.5 -179.5 c 128,-1,7
 180 -135 180 -135 180 -65 c 0,8,9
 180 34 180 34 183 113 c 128,-1,10
 186 192 186 192 187 230.5 c 128,-1,11
 188 269 188 269 189.5 314 c 128,-1,12
 191 359 191 359 192 412.5 c 0,13,14
 194 519.5 194 519.5 194 636.75 c 128,-1,15
 194 754 194 754 193.5 819 c 128,-1,16
 193 884 193 884 192 938 c 128,-1,17
 191 992 191 992 189.5 1037 c 128,-1,18
 188 1082 188 1082 187 1120.5 c 128,-1,19
 186 1159 186 1159 184.5 1198.5 c 128,-1,20
 183 1238 183 1238 182 1277 c 0,21,22
 180 1355 180 1355 180 1420.5 c 128,-1,23
 180 1486 180 1486 217.5 1530.5 c 128,-1,24
 255 1575 255 1575 324 1575 c 0,25,26
 378.5 1575 378.5 1575 399.25 1573 c 0,27,28
 440.75 1569 440.75 1569 470 1569 c 1,29,30
 601 1575 l 1,31,32
 652 1575 652 1575 679.5 1553.5 c 128,-1,33
 707 1532 707 1532 707 1505 c 128,-1,34
 707 1478 707 1478 701 1462 c 128,-1,35
 695 1446 695 1446 682.5 1433 c 0,36,37
 655.577 1405 655.577 1405 615.288 1405 c 128,-1,38
 575 1405 575 1405 557 1407 c 128,-1,39
 539 1409 539 1409 524.5 1409.5 c 128,-1,40
 510 1410 510 1410 492 1410.5 c 2,41,-1
 454.5 1411.5 l 2,42,43
 435 1412 435 1412 418 1412 c 2,44,-1
 365 1412 l 1,45,-1
 365 -61 l 1,46,-1
 418 -61 l 2,47,48
 435 -61 435 -61 454.5 -60.5 c 2,49,-1
 492 -59.5 l 2,50,51
 537 -58.25 537 -58.25 556 -56.125 c 128,-1,52
 575 -54 575 -54 599 -54 c 0,53,54
 707 -54 707 -54 707 -136 c 0,55,56
 707 -172 707 -172 679.5 -198 c 128,-1,57
 652 -224 652 -224 601 -224 c 1,0,-1
EndSplineSet
EndChar

StartChar: braceleft
Encoding: 123 123 105
Width: 856
Flags: HW
LayerCount: 2
Fore
SplineSet
587 -223 m 0,0,1
 291.353 -223 291.353 -223 277 204 c 1,2,3
 267.514 425.977 267.514 425.977 248.257 484.489 c 128,-1,4
 229 543 229 543 212.5 557.5 c 128,-1,5
 196 572 196 572 150 579 c 128,-1,6
 104 586 104 586 77 611 c 128,-1,7
 50 636 50 636 50 676 c 256,8,9
 50 716 50 716 77 741 c 128,-1,10
 104 766 104 766 150 773 c 128,-1,11
 196 780 196 780 212.5 794.5 c 128,-1,12
 229 809 229 809 242 848.5 c 0,13,14
 267.514 926.023 267.514 926.023 274.257 1096.51 c 128,-1,15
 281 1267 281 1267 306 1348.5 c 128,-1,16
 331 1430 331 1430 371.5 1480.5 c 0,17,18
 447.287 1575 447.287 1575 587 1575 c 0,19,20
 738.15 1575 738.15 1575 775 1508 c 0,21,22
 786 1488 786 1488 786 1457 c 128,-1,23
 786 1426 786 1426 759.5 1403 c 128,-1,24
 733 1380 733 1380 707.5 1380 c 0,25,26
 669 1380 669 1380 643 1393.5 c 0,27,28
 601.593 1415 601.593 1415 572.796 1415 c 128,-1,29
 544 1415 544 1415 522 1399 c 128,-1,30
 500 1383 500 1383 485.5 1335 c 0,31,32
 459.764 1249.8 459.764 1249.8 444 970 c 1,33,34
 429.28 738.687 429.28 738.687 291 676 c 1,35,36
 429.263 611.477 429.263 611.477 444 382 c 1,37,38
 459.628 102.644 459.628 102.644 479.814 35.8221 c 128,-1,39
 500 -31 500 -31 522 -47 c 128,-1,40
 544 -63 544 -63 568 -63 c 0,41,42
 602.231 -63 602.231 -63 627.615 -49.5 c 0,43,44
 710.979 -5.16555 710.979 -5.16555 761.5 -49.5 c 0,45,46
 786 -71 786 -71 786 -100 c 0,47,48
 786 -159 786 -159 735 -191 c 128,-1,49
 684 -223 684 -223 587 -223 c 0,0,1
EndSplineSet
EndChar

StartChar: germandbls
Encoding: 223 223 107
Width: 1366
Flags: HW
LayerCount: 2
Fore
SplineSet
166 0 m 0,0,1
 70 0 70 0 70 74 c 256,2,3
 70 110 70 110 100 130 c 128,-1,4
 130 150 130 150 183 150 c 2,5,-1
 270 150 l 1,6,-1
 270 868 l 1,7,8
 240 865 240 865 191 865 c 128,-1,9
 142 865 142 865 115.5 887 c 128,-1,10
 89 909 89 909 89 944.5 c 128,-1,11
 89 980 89 980 115.5 1000 c 128,-1,12
 142 1020 142 1020 184 1020 c 128,-1,13
 226 1020 226 1020 270 1018 c 1,14,-1
 270 1083 l 2,15,16
 270 1307.76 270 1307.76 383 1448.5 c 0,17,18
 499.825 1594 499.825 1594 694 1594 c 0,19,20
 860.482 1594 860.482 1594 961 1505.5 c 0,21,22
 1055 1422.74 1055 1422.74 1055 1296 c 0,23,24
 1055 1160.24 1055 1160.24 919 1046 c 0,25,26
 872.857 1008 872.857 1008 869.429 996 c 128,-1,27
 866 984 866 984 866 976.5 c 128,-1,28
 866 969 866 969 871 959 c 128,-1,29
 876 949 876 949 892 934 c 0,30,31
 927.25 900.953 927.25 900.953 1013.62 841.977 c 128,-1,32
 1100 783 1100 783 1156.5 728.5 c 128,-1,33
 1213 674 1213 674 1247 619.5 c 0,34,35
 1308 521.721 1308 521.721 1308 405.86 c 128,-1,36
 1308 290 1308 290 1282.5 216.5 c 128,-1,37
 1257 143 1257 143 1212 91.5 c 0,38,39
 1118.94 -15 1118.94 -15 972 -15 c 0,40,41
 842.017 -15 842.017 -15 766.5 51.5 c 0,42,43
 700 110.06 700 110.06 700 189 c 0,44,45
 700 241 700 241 736 277 c 0,46,47
 767 308 767 308 805.5 308 c 0,48,49
 877 308 877 308 877 237 c 0,50,51
 877 167.256 877 167.256 943.5 148.5 c 0,52,53
 963 143 963 143 993 143 c 128,-1,54
 1023 143 1023 143 1051.5 162 c 128,-1,55
 1080 181 1080 181 1098.5 211 c 0,56,57
 1135 270.189 1135 270.189 1135 340.595 c 128,-1,58
 1135 411 1135 411 1123.5 457 c 128,-1,59
 1112 503 1112 503 1083 547 c 0,60,61
 1030.53 626.617 1030.53 626.617 882 735 c 0,62,63
 697 869.216 697 869.216 697 969 c 0,64,65
 697 1012.81 697 1012.81 714.5 1040.4 c 0,66,67
 742.118 1083.95 742.118 1083.95 800.059 1137.48 c 128,-1,68
 858 1191 858 1191 875.5 1221.5 c 128,-1,69
 893 1252 893 1252 893 1286 c 128,-1,70
 893 1320 893 1320 875.5 1347.5 c 128,-1,71
 858 1375 858 1375 829 1394 c 0,72,73
 767.947 1434 767.947 1434 682 1434 c 0,74,75
 567 1434 567 1434 505.5 1343 c 128,-1,76
 444 1252 444 1252 444 1066 c 2,77,-1
 444 150 l 1,78,-1
 482 150 l 2,79,80
 608 150 608 150 608 71 c 0,81,82
 608 43 608 43 584 21.5 c 128,-1,83
 560 0 560 0 515 0 c 128,-1,84
 470 0 470 0 434 3 c 1,85,-1
 356 6 l 1,86,-1
 255 3 l 1,87,88
 216 -3.72529e-08 216 -3.72529e-08 166 0 c 0,0,1
EndSplineSet
EndChar

StartChar: percent
Encoding: 37 37 108
Width: 1707
Flags: HW
LayerCount: 2
Fore
SplineSet
270.5 55 m 128,-1,1
 264 71 264 71 264 87 c 128,-1,2
 264 103 264 103 267.5 118.5 c 128,-1,3
 271 134 271 134 281.5 153 c 0,4,5
 304.923 195.385 304.923 195.385 339.462 232.192 c 128,-1,6
 374 269 374 269 396 295 c 0,7,8
 498.29 417.965 498.29 417.965 539 480 c 2,9,-1
 1013 1184 l 2,10,11
 1045 1232 1045 1232 1080 1294 c 2,12,13
 1153 1422 l 2,14,15
 1203.11 1508.18 1203.11 1508.18 1234.05 1534.09 c 0,16,17
 1282.92 1575 1282.92 1575 1326.96 1575 c 128,-1,18
 1371 1575 1371 1575 1397 1552 c 128,-1,19
 1423 1529 1423 1529 1423 1505.5 c 128,-1,20
 1423 1482 1423 1482 1421 1468.5 c 128,-1,21
 1419 1455 1419 1455 1411.5 1438 c 0,22,23
 1396.48 1403.96 1396.48 1403.96 1365.74 1366.98 c 0,24,25
 1302.84 1291.11 1302.84 1291.11 1283.92 1266.05 c 2,26,-1
 1243 1211 l 2,27,28
 1221 1181 1221 1181 1195 1142 c 0,29,30
 664.859 365.982 664.859 365.982 642.93 331.991 c 2,31,-1
 518 128 l 2,32,33
 472.774 53.2795 472.774 53.2795 442.887 32.1397 c 0,34,35
 397.448 -2.86604e-06 397.448 -2.86604e-06 354 0 c 256,36,37
 316 0 316 0 296.5 19.5 c 128,-1,0
 277 39 277 39 270.5 55 c 128,-1,1
474 978 m 0,38,39
 409 978 409 978 352 1000.5 c 128,-1,40
 295 1023 295 1023 253.5 1062.5 c 0,41,42
 165 1146.73 165 1146.73 165 1271 c 0,43,44
 165 1399.12 165 1399.12 254 1486 c 0,45,46
 345.171 1575 345.171 1575 481 1575 c 0,47,48
 615.727 1575 615.727 1575 702.5 1494.5 c 0,49,50
 792 1411.47 792 1411.47 792 1277 c 0,51,52
 792 1151.82 792 1151.82 696.5 1064 c 0,53,54
 602.975 978 602.975 978 474 978 c 0,38,39
421.5 1131 m 128,-1,56
 450 1119 450 1119 483 1119 c 128,-1,57
 516 1119 516 1119 544.5 1131 c 128,-1,58
 573 1143 573 1143 592.5 1164 c 0,59,60
 634 1208.69 634 1208.69 634 1256.85 c 128,-1,61
 634 1305 634 1305 623.5 1335 c 128,-1,62
 613 1365 613 1365 593 1386.5 c 0,63,64
 549.744 1433 549.744 1433 478 1433 c 0,65,66
 410.256 1433 410.256 1433 367 1386.5 c 0,67,68
 326 1342.43 326 1342.43 326 1293.71 c 128,-1,69
 326 1245 326 1245 338.5 1215.5 c 128,-1,70
 351 1186 351 1186 372 1164.5 c 128,-1,55
 393 1143 393 1143 421.5 1131 c 128,-1,56
915 293.5 m 0,71,72
 915 356 915 356 939 411.5 c 128,-1,73
 963 467 963 467 1005 508 c 0,74,75
 1096.17 597 1096.17 597 1231 597 c 128,-1,76
 1365.73 597 1365.73 597 1452.5 516.5 c 0,77,78
 1542 433.47 1542 433.47 1542 299 c 0,79,80
 1542 173.816 1542 173.816 1446.5 86 c 0,81,82
 1352.97 -2.22783e-05 1352.97 -2.22783e-05 1227 0 c 0,83,84
 1092.28 0 1092.28 0 1003.5 84.5 c 0,85,86
 915 168.735 915 168.735 915 293.5 c 0,71,72
1216.22 141 m 128,-1,88
 1266 141 1266 141 1294.5 153 c 128,-1,89
 1323 165 1323 165 1342.5 186 c 0,90,91
 1384 230.692 1384 230.692 1384 278.846 c 128,-1,92
 1384 327 1384 327 1373.5 357 c 128,-1,93
 1363 387 1363 387 1343 408.5 c 0,94,95
 1299.74 455 1299.74 455 1228 455 c 0,96,97
 1160.26 455 1160.26 455 1117 408.5 c 0,98,99
 1076 364.425 1076 364.425 1076 315.712 c 0,100,101
 1076 233.595 1076 233.595 1121.22 187.298 c 128,-1,87
 1166.44 141 1166.44 141 1216.22 141 c 128,-1,88
EndSplineSet
EndChar

StartChar: mu
Encoding: 181 181 109
AltUni2: 0003bc.ffffffff.0
Width: 1363
Flags: HW
LayerCount: 2
Fore
SplineSet
579 -15 m 0,0,1
 439.9 -15 439.9 -15 362 42 c 1,2,-1
 369 -115 l 2,3,4
 374.657 -248.892 374.657 -248.892 388.829 -286.446 c 128,-1,5
 403 -324 403 -324 418 -338.5 c 128,-1,6
 433 -353 433 -353 455 -366.5 c 128,-1,7
 477 -380 477 -380 491 -396 c 128,-1,8
 505 -412 505 -412 505 -452 c 128,-1,9
 505 -492 505 -492 476 -516 c 128,-1,10
 447 -540 447 -540 408.5 -540 c 0,11,12
 341.048 -540 341.048 -540 310.024 -507.5 c 128,-1,13
 279 -475 279 -475 262 -440.5 c 128,-1,14
 245 -406 245 -406 234 -356.5 c 0,15,16
 212 -257.5 212 -257.5 212 -80 c 2,17,-1
 212 734 l 2,18,19
 212 816 212 816 209 845.5 c 0,20,21
 204 894.667 204 894.667 204 924 c 0,22,23
 204 1035 204 1035 300 1035 c 0,24,25
 345 1035 345 1035 369 1011.5 c 128,-1,26
 393 988 393 988 393 924 c 1,27,-1
 386 732 l 1,28,-1
 386 280 l 2,29,30
 386 233.66 386 233.66 440.5 191.5 c 0,31,32
 500.61 145 500.61 145 594 145 c 0,33,34
 735.617 145 735.617 145 821 268.5 c 0,35,36
 849 309 849 309 863 362 c 1,37,-1
 863 734 l 2,38,39
 863 816 863 816 860 845.5 c 0,40,41
 855 894.667 855 894.667 855 924 c 0,42,43
 855 1035 855 1035 951 1035 c 0,44,45
 996 1035 996 1035 1020 1011.5 c 128,-1,46
 1044 988 1044 988 1044 924 c 1,47,-1
 1037 732 l 1,48,-1
 1037 395 l 2,49,50
 1037 251.214 1037 251.214 1046.5 216.607 c 128,-1,51
 1056 182 1056 182 1067 170.5 c 128,-1,52
 1078 159 1078 159 1103 149 c 0,53,54
 1159 126.6 1159 126.6 1159 79.3 c 0,55,56
 1159 -15 1159 -15 1050 -15 c 0,57,58
 990 -15 990 -15 941 26.5 c 128,-1,59
 892 68 892 68 872 151 c 1,60,61
 810.892 38.9678 810.892 38.9678 674.5 -1.5 c 0,62,63
 629 -15 629 -15 579 -15 c 0,0,1
EndSplineSet
EndChar

StartChar: numbersign
Encoding: 35 35 110
Width: 1536
Flags: HW
LayerCount: 2
Fore
SplineSet
627 521 m 2,0,-1
 491 520 l 1,1,2
 456.215 388.975 456.215 388.975 445.607 345.988 c 2,3,-1
 394 123 l 258,4,5
 377 48 377 48 346.5 16.5 c 128,-1,6
 316 -15 316 -15 273.5 -15 c 0,7,8
 186 -15 186 -15 186 73 c 0,9,10
 186 120.118 186 120.118 211 182.059 c 128,-1,11
 236 244 236 244 248 277.5 c 2,12,-1
 271.5 344 l 2,13,14
 293.147 406.118 293.147 406.118 309 465 c 2,15,-1
 321 511 l 1,16,17
 286.5 508 286.5 508 217 508 c 0,18,19
 80 508 80 508 80 598 c 0,20,21
 80 641 80 641 120 664.5 c 128,-1,22
 160 688 160 688 228.5 688 c 128,-1,23
 297 688 297 688 365 680 c 1,24,-1
 415 872 l 1,25,26
 382 869 382 869 317 869 c 0,27,28
 180 869 180 869 180 959 c 0,29,30
 180 1002 180 1002 220 1025.5 c 128,-1,31
 260 1049 260 1049 330 1049 c 1,32,-1
 460 1042 l 1,33,-1
 502 1203 l 2,34,35
 534.375 1327.88 534.375 1327.88 554.188 1425.94 c 128,-1,36
 574 1524 574 1524 602.5 1559 c 128,-1,37
 631 1594 631 1594 674.5 1594 c 0,38,39
 761 1594 761 1594 761 1501 c 0,40,41
 761 1465 761 1465 736 1388.5 c 2,42,-1
 694.5 1259 l 2,43,44
 678 1206 678 1206 668 1171 c 2,45,-1
 631 1035 l 1,46,47
 745.75 1035 745.75 1035 818.875 1035 c 128,-1,48
 892 1035 892 1035 918 1036 c 1,49,-1
 962 1203 l 2,50,51
 991.778 1312.95 991.778 1312.95 1012.39 1418.47 c 128,-1,52
 1033 1524 1033 1524 1062 1559 c 128,-1,53
 1091 1594 1091 1594 1134.5 1594 c 0,54,55
 1221 1594 1221 1594 1221 1501 c 0,56,57
 1221 1465 1221 1465 1199.5 1400 c 2,58,-1
 1161 1281.5 l 2,59,60
 1144 1228 1144 1228 1128 1171 c 2,61,-1
 1093 1044 l 1,62,63
 1150.5 1049 1150.5 1049 1204 1049 c 0,64,65
 1354 1049 1354 1049 1354 967 c 256,66,67
 1354 899.983 1354 899.983 1272.5 876.5 c 0,68,69
 1243 868 1243 868 1210 868 c 0,70,71
 1153 868 1153 868 1107 872 c 1,72,-1
 1047 875 l 1,73,-1
 995 683 l 1,74,75
 1050 688 1050 688 1104 688 c 0,76,77
 1254 688 1254 688 1254 606 c 256,78,79
 1254 538.983 1254 538.983 1172.5 515.5 c 0,80,81
 1143 507 1143 507 1110 507 c 0,82,83
 1053 507 1053 507 1007 511 c 1,84,-1
 949 514 l 1,85,-1
 934 458 l 2,86,87
 925 426 925 426 917.5 395.5 c 0,88,89
 871.023 200.172 871.023 200.172 854.012 124.086 c 128,-1,90
 837 48 837 48 806.5 16.5 c 128,-1,91
 776 -15 776 -15 733.5 -15 c 0,92,93
 646 -15 646 -15 646 73 c 0,94,95
 646 120.118 646 120.118 671 182.059 c 128,-1,96
 696 244 696 244 708 277.5 c 2,97,-1
 731.5 344 l 2,98,99
 753.147 406.118 753.147 406.118 769 465 c 2,100,-1
 783 519 l 1,101,102
 705 521 705 521 627 521 c 2,0,-1
727 882 m 1,103,-1
 589 881 l 1,104,-1
 533 674 l 1,105,106
 648.25 674 648.25 674 722.125 674 c 128,-1,107
 796 674 796 674 824 675 c 1,108,-1
 878 881 l 1,109,110
 840 882 840 882 802.5 882 c 2,111,-1
 727 882 l 1,103,-1
EndSplineSet
EndChar

StartChar: section
Encoding: 167 167 111
Width: 1196
Flags: HW
LayerCount: 2
Fore
SplineSet
848 387 m 1,0,1
 994 283.263 994 283.263 994 132 c 0,2,3
 994 -20.3913 994 -20.3913 876.5 -119.5 c 0,4,5
 752.608 -224 752.608 -224 546 -224 c 0,6,7
 392.217 -224 392.217 -224 283 -145.5 c 0,8,9
 182 -72.9062 182 -72.9062 182 18 c 0,10,11
 182 88.6 182 88.6 238.5 122.5 c 0,12,13
 256 133 256 133 285 133 c 128,-1,14
 314 133 314 133 338.5 112 c 128,-1,15
 363 91 363 91 369.5 62 c 128,-1,16
 376 33 376 33 393.5 10.5 c 128,-1,17
 411 -12 411 -12 439.5 -29 c 0,18,19
 499.853 -65 499.853 -65 575.426 -65 c 128,-1,20
 651 -65 651 -65 693 -50 c 128,-1,21
 735 -35 735 -35 761 -10 c 0,22,23
 810 37.1154 810 37.1154 810 110 c 0,24,25
 810 179.778 810 179.778 750.5 227 c 128,-1,26
 690.817 274.368 690.817 274.368 564.908 313.684 c 128,-1,27
 439 353 439 353 366 391.5 c 128,-1,28
 293 430 293 430 247.5 475 c 0,29,30
 162 559.56 162 559.56 162 685 c 0,31,32
 162 817.059 162 817.059 273 915 c 0,33,34
 307 945 307 945 349 966 c 1,35,36
 201 1075.05 201 1075.05 201 1241 c 0,37,38
 201 1377.67 201 1377.67 314 1471.5 c 0,39,40
 438.645 1575 438.645 1575 648 1575 c 0,41,42
 801.783 1575 801.783 1575 911 1496.5 c 0,43,44
 1012 1423.91 1012 1423.91 1012 1333 c 0,45,46
 1012 1260.57 1012 1260.57 955.5 1228.5 c 0,47,48
 937 1218 937 1218 908 1218 c 128,-1,49
 879 1218 879 1218 855.5 1239 c 128,-1,50
 832 1260 832 1260 825.5 1289 c 128,-1,51
 819 1318 819 1318 801.5 1340.5 c 128,-1,52
 784 1363 784 1363 755.5 1380 c 0,53,54
 695.147 1416 695.147 1416 619.573 1416 c 128,-1,55
 544 1416 544 1416 502 1401 c 128,-1,56
 460 1386 460 1386 434.5 1361.5 c 0,57,58
 386 1314.9 386 1314.9 386 1245.95 c 128,-1,59
 386 1177 386 1177 451.5 1125 c 128,-1,60
 517 1073 517 1073 644 1033.5 c 128,-1,61
 771 994 771 994 842.5 955.5 c 128,-1,62
 914 917 914 917 956 874 c 0,63,64
 1033 795.167 1033 795.167 1033 680 c 0,65,66
 1033 540.294 1033 540.294 923 440 c 0,67,68
 889 409 889 409 848 387 c 1,0,1
389.5 818 m 128,-1,70
 351 771 351 771 351 725.5 c 128,-1,71
 351 680 351 680 364 649 c 128,-1,72
 377 618 377 618 410 588 c 0,73,74
 478.658 525.584 478.658 525.584 642 480 c 1,75,-1
 674.5 470 l 2,76,77
 690 465 690 465 704 460 c 1,78,79
 767 486 767 486 805 533 c 128,-1,80
 843 580 843 580 843 628.5 c 128,-1,81
 843 677 843 677 830 708.5 c 128,-1,82
 817 740 817 740 784 767.5 c 0,83,84
 720.075 820.771 720.075 820.771 552 871 c 0,85,86
 510.667 884.333 510.667 884.333 492 891 c 1,87,69
 428 865 428 865 389.5 818 c 128,-1,70
EndSplineSet
EndChar

StartChar: paragraph
Encoding: 182 182 112
Width: 1707
Flags: HW
LayerCount: 2
Fore
SplineSet
796 -224 m 128,-1,1
 696 -224 696 -224 696 -84 c 0,2,3
 696 -17 696 -17 702 67 c 128,-1,4
 708 151 708 151 708.5 176 c 0,5,6
 710 251 710 251 710 308 c 2,7,-1
 710 651 l 1,8,9
 415.384 656.666 415.384 656.666 244.5 805.5 c 0,10,11
 90 940.065 90 940.065 90 1137 c 0,12,13
 90 1347.27 90 1347.27 267 1461.5 c 0,14,15
 442.874 1575 442.874 1575 759 1575 c 1,16,-1
 1271 1568 l 1,17,-1
 1446 1575 l 1,18,19
 1528.25 1575 1528.25 1575 1547.5 1526 c 0,20,21
 1553 1512 1553 1512 1553 1497 c 0,22,23
 1553 1414 1553 1414 1427 1414 c 2,24,-1
 1361 1414 l 1,25,-1
 1361 308 l 2,26,27
 1361 158 1361 158 1365.5 92 c 0,28,29
 1374 -32.6667 1374 -32.6667 1374 -94.3333 c 128,-1,30
 1374 -156 1374 -156 1348 -190 c 128,-1,31
 1322 -224 1322 -224 1279 -224 c 0,32,33
 1174 -224 1174 -224 1174 -84 c 0,34,35
 1174 -17 1174 -17 1180 67 c 128,-1,36
 1186 151 1186 151 1186.5 176 c 0,37,38
 1188 251 1188 251 1188 308 c 2,39,-1
 1188 1414 l 1,40,-1
 883 1414 l 1,41,-1
 883 308 l 2,42,43
 883 158 883 158 887.5 92 c 0,44,45
 896 -32.6667 896 -32.6667 896 -96 c 0,46,0
 896 -224 896 -224 796 -224 c 128,-1,1
EndSplineSet
EndChar

StartChar: ampersand
Encoding: 38 38 113
Width: 1703
Flags: HW
LayerCount: 2
Fore
SplineSet
1076 163 m 1,0,1
 847.457 -15 847.457 -15 620 -15 c 0,2,3
 359.495 -15 359.495 -15 232.5 107.5 c 0,4,5
 129 207.336 129 207.336 129 363 c 0,6,7
 129 534 129 534 283 688 c 0,8,9
 339 744 339 744 420 804 c 1,10,11
 316.402 938.873 316.402 938.873 283.701 1013.94 c 0,12,13
 232 1132.61 232 1132.61 232 1209.31 c 128,-1,14
 232 1286 232 1286 254.5 1349 c 128,-1,15
 277 1412 277 1412 323.5 1462 c 0,16,17
 428.59 1575 428.59 1575 605 1575 c 0,18,19
 775.186 1575 775.186 1575 879 1482 c 0,20,21
 978 1393.31 978 1393.31 978 1258 c 0,22,23
 978 1056.15 978 1056.15 821 900.5 c 0,24,25
 763 843 763 843 678 782 c 1,26,-1
 712 743 l 1,27,28
 889.602 526.365 889.602 526.365 1088 376 c 1,29,30
 1229.38 511.095 1229.38 511.095 1275 651 c 0,31,32
 1290 697 1290 697 1290 727 c 0,33,34
 1290 776.727 1290 776.727 1253 811.864 c 128,-1,35
 1216 847 1216 847 1216 878 c 128,-1,36
 1216 909 1216 909 1224 927 c 128,-1,37
 1232 945 1232 945 1247.5 959.5 c 0,38,39
 1282.24 992 1282.24 992 1327.62 992 c 128,-1,40
 1373 992 1373 992 1400 980 c 128,-1,41
 1427 968 1427 968 1445.5 946.5 c 0,42,43
 1483 902.919 1483 902.919 1483 837.959 c 128,-1,44
 1483 773 1483 773 1463.5 704.5 c 128,-1,45
 1444 636 1444 636 1408.5 565 c 0,46,47
 1333.95 415.896 1333.95 415.896 1213 289 c 1,48,49
 1338 211 1338 211 1410.5 189.5 c 128,-1,50
 1483 168 1483 168 1510 157 c 128,-1,51
 1537 146 1537 146 1553 133 c 0,52,53
 1583 108.625 1583 108.625 1583 73 c 0,54,55
 1583 -15 1583 -15 1479 -15 c 0,56,57
 1336.93 -15 1336.93 -15 1076 163 c 1,0,1
575 908 m 1,58,59
 759.424 1034.62 759.424 1034.62 786.5 1141.5 c 0,60,61
 796 1179 796 1179 796 1227 c 128,-1,62
 796 1275 796 1275 780 1311 c 128,-1,63
 764 1347 764 1347 737 1370 c 0,64,65
 685.348 1414 685.348 1414 616.674 1414 c 128,-1,66
 548 1414 548 1414 513 1396.5 c 128,-1,67
 478 1379 478 1379 456 1353 c 0,68,69
 413 1302.18 413 1302.18 413 1256.09 c 128,-1,70
 413 1210 413 1210 420.5 1176.5 c 128,-1,71
 428 1143 428 1143 447 1103.5 c 0,72,73
 487.002 1020.34 487.002 1020.34 575 908 c 1,58,59
943 261 m 1,74,75
 715 442.962 715 442.962 521 678 c 1,76,77
 362.161 564.543 362.161 564.543 330.5 457.5 c 0,78,79
 320 422 320 422 320 376.5 c 128,-1,80
 320 331 320 331 340.5 287.5 c 128,-1,81
 361 244 361 244 398 212 c 0,82,83
 475.469 145 475.469 145 581.234 145 c 0,84,85
 765.717 145 765.717 145 943 261 c 1,74,75
EndSplineSet
EndChar

StartChar: asciicircum
Encoding: 94 94 114
Width: 1196
Flags: HW
LayerCount: 2
Fore
SplineSet
276.5 840 m 128,-1,1
 263 836 263 836 239.5 836 c 128,-1,2
 216 836 216 836 195 856 c 128,-1,3
 174 876 174 876 174 896.5 c 128,-1,4
 174 917 174 917 178 929 c 128,-1,5
 182 941 182 941 190 956 c 128,-1,6
 198 971 198 971 211.5 990 c 2,7,-1
 243 1034 l 1,8,-1
 483 1518 l 1,9,10
 515 1561 515 1561 538.5 1577.5 c 128,-1,11
 562 1594 562 1594 585.5 1594 c 128,-1,12
 609 1594 609 1594 622 1591 c 128,-1,13
 635 1588 635 1588 647.5 1580 c 0,14,15
 672.5 1564 672.5 1564 707 1518 c 1,16,-1
 955 1034 l 1,17,18
 1013.51 957.679 1013.51 957.679 1017.76 934.339 c 128,-1,19
 1022 911 1022 911 1022 890.5 c 128,-1,20
 1022 870 1022 870 1002 853 c 128,-1,21
 982 836 982 836 958.5 836 c 128,-1,22
 935 836 935 836 921.5 840 c 128,-1,23
 908 844 908 844 894 854.5 c 0,24,25
 870.32 872.26 870.32 872.26 825 932 c 1,26,-1
 595 1359 l 1,27,-1
 373 932 l 1,28,29
 329.377 872.515 329.377 872.515 309.689 858.257 c 128,-1,0
 290 844 290 844 276.5 840 c 128,-1,1
EndSplineSet
EndChar

StartChar: at
Encoding: 64 64 115
Width: 2218
Flags: HW
LayerCount: 2
Fore
SplineSet
1344 955 m 1,0,1
 1395.56 1054 1395.56 1054 1486 1054 c 0,2,3
 1549.35 1054 1549.35 1054 1570.5 1004 c 0,4,5
 1576 991 1576 991 1576 971 c 0,6,7
 1576 928.652 1576 928.652 1529 898 c 1,8,9
 1497.94 875.222 1497.94 875.222 1490.97 848.611 c 0,10,11
 1480 806.727 1480 806.727 1480 699 c 2,12,-1
 1480 455 l 2,13,14
 1480 370.191 1480 370.191 1535.5 326.5 c 0,15,16
 1578.05 293 1578.05 293 1635 293 c 128,-1,17
 1692 293 1692 293 1741.5 318.5 c 128,-1,18
 1791 344 1791 344 1828.5 396.5 c 0,19,20
 1909 509.2 1909 509.2 1909 723 c 0,21,22
 1909 941.396 1909 941.396 1796 1104.5 c 0,23,24
 1640.28 1329.27 1640.28 1329.27 1329 1392.5 c 0,25,26
 1233 1412 1233 1412 1122.5 1412 c 128,-1,27
 1012 1412 1012 1412 904 1384 c 128,-1,28
 796 1356 796 1356 704.5 1305 c 128,-1,29
 613 1254 613 1254 540 1182 c 128,-1,30
 467 1110 467 1110 416 1022 c 0,31,32
 310 839.098 310 839.098 310 639.049 c 128,-1,33
 310 439 310 439 365.5 296 c 128,-1,34
 421 153 421 153 515 53.5 c 0,35,36
 708.196 -151 708.196 -151 987 -151 c 0,37,38
 1022.83 -151 1022.83 -151 1049.42 -140 c 0,39,40
 1182.19 -85.058 1182.19 -85.058 1211 -183 c 0,41,42
 1216 -200 1216 -200 1216 -217.5 c 128,-1,43
 1216 -235 1216 -235 1205.5 -256.5 c 128,-1,44
 1195 -278 1195 -278 1171.5 -296.5 c 0,45,46
 1117.51 -339 1117.51 -339 1010.26 -339 c 128,-1,47
 903 -339 903 -339 792.5 -310.5 c 128,-1,48
 682 -282 682 -282 583.5 -226.5 c 128,-1,49
 485 -171 485 -171 402 -90 c 128,-1,50
 319 -9 319 -9 258.5 97 c 0,51,52
 130 322.141 130 322.141 130 615 c 0,53,54
 130 879.008 130 879.008 258.5 1099 c 0,55,56
 386.098 1317.45 386.098 1317.45 614 1443.5 c 0,57,58
 851.752 1575 851.752 1575 1150 1575 c 0,59,60
 1550.33 1575 1550.33 1575 1819.5 1334.5 c 0,61,62
 1990 1182.16 1990 1182.16 2055.5 965.5 c 0,63,64
 2088 858 2088 858 2088 732 c 128,-1,65
 2088 606 2088 606 2052 497 c 128,-1,66
 2016 388 2016 388 1953 310.5 c 0,67,68
 1820.9 148 1820.9 148 1618.8 148 c 128,-1,69
 1416.69 148 1416.69 148 1345 286 c 1,70,71
 1280.44 190.691 1280.44 190.691 1141.5 158 c 0,72,73
 1099 148 1099 148 1029.5 148 c 128,-1,74
 960 148 960 148 883.5 180 c 128,-1,75
 807 212 807 212 753 271 c 0,76,77
 641 393.37 641 393.37 641 600 c 0,78,79
 641 792.018 641 792.018 753.5 920 c 0,80,81
 871.29 1054 871.29 1054 1051.96 1054 c 128,-1,82
 1232.62 1054 1232.62 1054 1344 955 c 1,0,1
1074 302 m 0,83,84
 1218.01 302 1218.01 302 1306 433 c 1,85,-1
 1306 793 l 1,86,87
 1249.05 859.437 1249.05 859.437 1134.5 886 c 0,88,89
 1100 894 1100 894 1056.5 894 c 128,-1,90
 1013 894 1013 894 967 874 c 128,-1,91
 921 854 921 854 887.5 817 c 0,92,93
 816 738.03 816 738.03 816 610 c 0,94,95
 816 465.217 816 465.217 890.5 381 c 0,96,97
 960.385 302 960.385 302 1074 302 c 0,83,84
EndSplineSet
EndChar

StartChar: yen
Encoding: 165 165 116
Width: 1710
Flags: HW
LayerCount: 2
Fore
SplineSet
370 375 m 2,0,1
 263 375 263 375 263 446 c 128,-1,2
 263 517 263 517 370 517 c 2,3,-1
 768 517 l 1,4,-1
 768 684 l 1,5,-1
 767 685 l 1,6,-1
 370 685 l 2,7,8
 263 685 263 685 263 756 c 128,-1,9
 263 827 263 827 370 827 c 2,10,-1
 661 827 l 1,11,12
 362.416 1224.82 362.416 1224.82 305.208 1284.41 c 128,-1,13
 248 1344 248 1344 219.5 1364.5 c 0,14,15
 177.905 1394.42 177.905 1394.42 134.953 1402.71 c 128,-1,16
 92 1411 92 1411 72 1414.5 c 128,-1,17
 52 1418 52 1418 34.5 1426 c 0,18,19
 -6 1444.51 -6 1444.51 -6 1491 c 0,20,21
 -6 1570 -6 1570 82 1570 c 0,22,23
 113.75 1570 113.75 1570 140.375 1564.5 c 0,24,25
 181.523 1556 181.523 1556 215.261 1556 c 128,-1,26
 249 1556 249 1556 271 1557 c 2,27,-1
 315.5 1559 l 2,28,29
 365.931 1561.24 365.931 1561.24 388.466 1563.62 c 2,30,-1
 429 1568 l 2,31,32
 492 1575 492 1575 534 1575 c 128,-1,33
 576 1575 576 1575 601 1554.5 c 128,-1,34
 626 1534 626 1534 626 1497 c 128,-1,35
 626 1460 626 1460 585.5 1434 c 128,-1,36
 545 1408 545 1408 457 1408 c 2,37,-1
 417 1408 l 1,38,-1
 673 1078.5 l 1,39,-1
 777 939 l 2,40,41
 824 875 824 875 856 827 c 1,42,-1
 857 827 l 1,43,-1
 936.5 938 l 1,44,-1
 1163 1234 l 1,45,-1
 1301 1408 l 1,46,-1
 1255 1408 l 2,47,48
 1180 1408 1180 1408 1137 1431.5 c 128,-1,49
 1094 1455 1094 1455 1094 1493.5 c 128,-1,50
 1094 1532 1094 1532 1119 1553.5 c 128,-1,51
 1144 1575 1144 1575 1180 1575 c 128,-1,52
 1216 1575 1216 1575 1251 1571.5 c 2,53,-1
 1315 1565 l 2,54,55
 1344.52 1561.31 1344.52 1561.31 1381.76 1559.66 c 2,56,-1
 1440.5 1557 l 2,57,58
 1462 1556 1462 1556 1479 1556 c 1,59,-1
 1630 1568 l 1,60,61
 1687.15 1568 1687.15 1568 1710.5 1519.5 c 0,62,63
 1717 1506 1717 1506 1717 1485.5 c 128,-1,64
 1717 1465 1717 1465 1705.5 1449.5 c 128,-1,65
 1694 1434 1694 1434 1676.5 1425.5 c 0,66,67
 1652.18 1413.69 1652.18 1413.69 1615.09 1409.34 c 128,-1,68
 1578 1405 1578 1405 1553.5 1395 c 128,-1,69
 1529 1385 1529 1385 1498.5 1361.5 c 128,-1,70
 1468 1338 1468 1338 1429 1297.5 c 128,-1,71
 1390 1257 1390 1257 1337 1193.5 c 1,72,-1
 1215 1040 l 1,73,-1
 1055 827 l 1,74,-1
 1343 827 l 2,75,76
 1396 827 1396 827 1421.5 806.5 c 128,-1,77
 1447 786 1447 786 1447 756 c 0,78,79
 1447 685 1447 685 1343 685 c 2,80,-1
 954 685 l 1,81,-1
 954 517 l 1,82,-1
 1343 517 l 2,83,84
 1396 517 1396 517 1421.5 496.5 c 128,-1,85
 1447 476 1447 476 1447 446 c 0,86,87
 1447 375 1447 375 1343 375 c 2,88,-1
 954 375 l 1,89,-1
 954 161 l 1,90,-1
 1065 161 l 2,91,92
 1135 161 1135 161 1163 136.5 c 128,-1,93
 1191 112 1191 112 1191 80 c 128,-1,94
 1191 48 1191 48 1167 24 c 128,-1,95
 1143 0 1143 0 1085 0 c 2,96,-1
 1060 0 l 2,97,98
 1045 0 1045 0 1028 0.5 c 2,99,-1
 994.5 1.5 l 2,100,101
 978 2 978 2 962 3 c 0,102,103
 914 6 914 6 868 6 c 0,104,105
 816 6 816 6 775.5 4 c 128,-1,106
 735 2 735 2 717 1.5 c 2,107,-1
 680.5 0.5 l 2,108,109
 662 0 662 0 645.5 0 c 2,110,-1
 619 0 l 2,111,112
 574 0 574 0 547.5 21.5 c 128,-1,113
 521 43 521 43 521 79 c 256,114,115
 521 115 521 115 552 138 c 128,-1,116
 583 161 583 161 635 161 c 2,117,-1
 768 161 l 1,118,-1
 768 375 l 1,119,-1
 370 375 l 2,0,1
EndSplineSet
EndChar

StartChar: Euro
Encoding: 8364 8364 117
Width: 1710
Flags: HW
LayerCount: 2
Fore
SplineSet
145 555 m 2,0,1
 38 555 38 555 38 626 c 128,-1,2
 38 697 38 697 145 697 c 2,3,-1
 278 697 l 1,4,5
 275 737 275 737 275 780 c 128,-1,6
 275 823 275 823 279 865 c 1,7,-1
 145 865 l 2,8,9
 38 865 38 865 38 936 c 128,-1,10
 38 1007 38 1007 145 1007 c 2,11,-1
 302 1007 l 1,12,13
 368.134 1265.34 368.134 1265.34 565 1416 c 0,14,15
 772.76 1575 772.76 1575 1070 1575 c 0,16,17
 1332.26 1575 1332.26 1575 1511 1448 c 1,18,19
 1651 1347.02 1651 1347.02 1651 1245 c 0,20,21
 1651 1208 1651 1208 1633 1181 c 128,-1,22
 1615 1154 1615 1154 1581.5 1154 c 128,-1,23
 1548 1154 1548 1154 1524.5 1170 c 128,-1,24
 1501 1186 1501 1186 1474.5 1228.5 c 128,-1,25
 1448 1271 1448 1271 1405.5 1308 c 128,-1,26
 1363 1345 1363 1345 1309 1371.5 c 0,27,28
 1195.91 1427 1195.91 1427 1071.45 1427 c 128,-1,29
 947 1427 947 1427 855.5 1396.5 c 128,-1,30
 764 1366 764 1366 693.5 1311 c 0,31,32
 551.428 1200.16 551.428 1200.16 498 1007 c 1,33,-1
 1218 1007 l 2,34,35
 1271 1007 1271 1007 1296.5 986.5 c 128,-1,36
 1322 966 1322 966 1322 936 c 0,37,38
 1322 865 1322 865 1218 865 c 2,39,-1
 472 865 l 1,40,41
 469 826 469 826 469 782.5 c 128,-1,42
 469 739 469 739 473 697 c 1,43,-1
 1088 697 l 2,44,45
 1141 697 1141 697 1166.5 676.5 c 128,-1,46
 1192 656 1192 656 1192 626 c 0,47,48
 1192 555 1192 555 1088 555 c 2,49,-1
 501 555 l 1,50,51
 560.172 355.789 560.172 355.789 721 243 c 0,52,53
 877.852 133 877.852 133 1092 133 c 0,54,55
 1307.68 133 1307.68 133 1436 253.5 c 0,56,57
 1477 292 1477 292 1497.5 334 c 128,-1,58
 1518 376 1518 376 1539.5 390.5 c 128,-1,59
 1561 405 1561 405 1595.5 405 c 128,-1,60
 1630 405 1630 405 1651 381.5 c 128,-1,61
 1672 358 1672 358 1672 315 c 0,62,63
 1672 233.8 1672 233.8 1521 113 c 1,64,65
 1355.07 -15 1355.07 -15 1067 -15 c 0,66,67
 786.007 -15 786.007 -15 579.5 135 c 0,68,69
 369.33 287.661 369.33 287.661 302 555 c 1,70,-1
 145 555 l 2,0,1
EndSplineSet
EndChar

StartChar: sterling
Encoding: 163 163 118
Width: 1369
Flags: HW
LayerCount: 2
Fore
SplineSet
537 665 m 1,0,1
 573 527.545 573 527.545 573 430.523 c 128,-1,2
 573 333.5 573 333.5 518 251 c 1,3,4
 618.792 247.946 618.792 247.946 707.896 214.973 c 128,-1,5
 797 182 797 182 832.5 171 c 128,-1,6
 868 160 868 160 894 155 c 0,7,8
 935.6 147 935.6 147 980.3 147 c 0,9,10
 1079.7 147 1079.7 147 1121 226 c 1,11,12
 1163.89 305 1163.89 305 1217 305 c 0,13,14
 1251.6 305 1251.6 305 1270.8 285 c 0,15,16
 1304 250.417 1304 250.417 1304 211.708 c 128,-1,17
 1304 173 1304 173 1275 131 c 128,-1,18
 1246 89 1246 89 1198 56.5 c 0,19,20
 1092.4 -15 1092.4 -15 960 -15 c 0,21,22
 831.556 -15 831.556 -15 668 49 c 1,23,24
 538.38 97.6076 538.38 97.6076 504.19 101.304 c 128,-1,25
 470 105 470 105 449.5 105 c 0,26,27
 412.719 105 412.719 105 345.859 56 c 128,-1,28
 279 7 279 7 247.5 -4 c 128,-1,29
 216 -15 216 -15 183.5 -15 c 128,-1,30
 151 -15 151 -15 124 8 c 128,-1,31
 97 31 97 31 97 63.5 c 128,-1,32
 97 96 97 96 103 114.5 c 128,-1,33
 109 133 109 133 124 148 c 0,34,35
 148.462 172.462 148.462 172.462 227.731 199.731 c 0,36,37
 412.437 263.271 412.437 263.271 381 521.5 c 0,38,39
 374 579 374 579 353 665 c 1,40,-1
 171 665 l 2,41,42
 65 665 65 665 65 736 c 128,-1,43
 65 807 65 807 173 807 c 2,44,-1
 314 807 l 1,45,46
 255 1013.5 255 1013.5 255 1118.75 c 128,-1,47
 255 1224 255 1224 287.5 1305 c 128,-1,48
 320 1386 320 1386 386 1446 c 0,49,50
 527.9 1575 527.9 1575 783 1575 c 0,51,52
 977.389 1575 977.389 1575 1098.5 1475 c 0,53,54
 1209 1383.76 1209 1383.76 1209 1260 c 0,55,56
 1209 1152.37 1209 1152.37 1142.5 1087 c 0,57,58
 1083.5 1029 1083.5 1029 1008 1029 c 0,59,60
 900 1029 900 1029 900 1113 c 0,61,62
 900 1181.14 900 1181.14 978 1198 c 0,63,64
 1029 1209.77 1029 1209.77 1029 1268 c 128,-1,65
 1029 1326.11 1029 1326.11 953 1371.5 c 0,66,67
 873.465 1419 873.465 1419 772.733 1419 c 128,-1,68
 672 1419 672 1419 611.5 1394 c 128,-1,69
 551 1369 551 1369 513 1328.5 c 0,70,71
 441 1251.76 441 1251.76 441 1128.31 c 128,-1,72
 441 1004.87 441 1004.87 497 807 c 1,73,-1
 816 807 l 2,74,75
 869 807 869 807 894 786.5 c 128,-1,76
 919 766 919 766 919 737 c 0,77,78
 919 665 919 665 814 665 c 2,79,-1
 537 665 l 1,0,1
EndSplineSet
EndChar

StartChar: currency
Encoding: 164 164 119
Width: 1199
Flags: HW
LayerCount: 2
Fore
SplineSet
806 325 m 1,0,1
 706.444 269 706.444 269 593.097 269 c 128,-1,2
 479.75 269 479.75 269 386 319 c 1,3,-1
 256 181 l 1,4,5
 215.308 135 215.308 135 174.154 135 c 128,-1,6
 133 135 133 135 110.5 156 c 128,-1,7
 88 177 88 177 86.5 204 c 0,8,9
 83.2413 262.656 83.2413 262.656 141 315 c 0,10,11
 225.335 390.633 225.335 390.633 263 427 c 1,12,13
 192 524.371 192 524.371 192 661.417 c 128,-1,14
 192 798.462 192 798.462 275 907 c 1,15,16
 141 1032 l 1,17,18
 83.6092 1084.01 83.6092 1084.01 85.8046 1127.01 c 128,-1,19
 88 1170 88 1170 110.5 1191 c 128,-1,20
 133 1212 133 1212 159.5 1212 c 0,21,22
 215.308 1212 215.308 1212 253.154 1169.5 c 0,23,24
 352.132 1060.87 352.132 1060.87 400 1013 c 1,25,26
 491.8 1064 491.8 1064 599 1064 c 256,27,28
 708 1064 708 1064 802 1017 c 1,29,-1
 942 1166 l 1,30,31
 982.692 1212 982.692 1212 1023.85 1212 c 128,-1,32
 1065 1212 1065 1212 1087.5 1191 c 128,-1,33
 1110 1170 1110 1170 1111.5 1143 c 0,34,35
 1114.76 1084.34 1114.76 1084.34 1068.38 1042.67 c 1,36,-1
 930 914 l 1,37,38
 1010 812.947 1010 812.947 1010 675.197 c 128,-1,39
 1010 537.447 1010 537.447 929 433 c 1,40,-1
 1057 315 l 2,41,42
 1114.39 262.99 1114.39 262.99 1112.2 219.995 c 128,-1,43
 1110 177 1110 177 1087.5 156 c 128,-1,44
 1065 135 1065 135 1038.5 135 c 0,45,46
 982.692 135 982.692 135 945.346 176.5 c 0,47,48
 847.881 283.119 847.881 283.119 806 325 c 1,0,1
598 426 m 0,49,50
 644 426 644 426 689 442.5 c 128,-1,51
 734 459 734 459 769 489 c 0,52,53
 846 555 846 555 846 659 c 0,54,55
 846 771.261 846 771.261 772.5 840.5 c 0,56,57
 699.785 909 699.785 909 590 909 c 0,58,59
 491.565 909 491.565 909 424.5 843 c 0,60,61
 356 775.587 356 775.587 356 680 c 0,62,63
 356 563.191 356 563.191 431 491.5 c 0,64,65
 499.523 426 499.523 426 598 426 c 0,49,50
EndSplineSet
EndChar

StartChar: asterisk
Encoding: 42 42 120
Width: 1196
Flags: HW
LayerCount: 2
Fore
SplineSet
366.5 703.5 m 128,-1,1
 351 697 351 697 324.5 697 c 128,-1,2
 298 697 298 697 273.5 717 c 128,-1,3
 249 737 249 737 249 764 c 128,-1,4
 249 791 249 791 255 810.5 c 128,-1,5
 261 830 261 830 275 853 c 0,6,7
 301.465 896.478 301.465 896.478 348.233 944.239 c 2,8,9
 418.5 1017.5 l 2,10,11
 442 1043 442 1043 462 1069 c 1,12,13
 414.083 1088.17 414.083 1088.17 363.042 1098.58 c 2,14,15
 289 1114 l 1,16,17
 138.943 1142.31 138.943 1142.31 109.5 1195 c 0,18,19
 100 1212 100 1212 100 1232 c 128,-1,20
 100 1252 100 1252 108 1267 c 128,-1,21
 116 1282 116 1282 129 1292.5 c 0,22,23
 155.704 1314.07 155.704 1314.07 190.852 1313.03 c 0,24,25
 244.766 1311.45 244.766 1311.45 316.383 1276.22 c 0,26,27
 447.058 1211.95 447.058 1211.95 501 1195 c 1,28,29
 498.913 1261.78 498.913 1261.78 492.457 1317.89 c 0,30,31
 480 1426.14 480 1426.14 480 1479.57 c 128,-1,32
 480 1533 480 1533 503.5 1563.5 c 128,-1,33
 527 1594 527 1594 557 1594 c 128,-1,34
 587 1594 587 1594 603.5 1586 c 128,-1,35
 620 1578 620 1578 632 1563.5 c 0,36,37
 657 1533.29 657 1533.29 657 1493.65 c 0,38,39
 657 1436.4 657 1436.4 646 1351.2 c 128,-1,40
 635 1266 635 1266 633 1193 c 1,41,42
 721.696 1215.17 721.696 1215.17 773.848 1242.59 c 2,43,-1
 848 1281.5 l 2,44,45
 910.174 1314 910.174 1314 947.587 1314 c 128,-1,46
 985 1314 985 1314 1010.5 1292 c 128,-1,47
 1036 1270 1036 1270 1036 1237 c 128,-1,48
 1036 1204 1036 1204 1022 1185.5 c 128,-1,49
 1008 1167 1008 1167 979.5 1153.5 c 0,50,51
 935.696 1132.75 935.696 1132.75 853.348 1114.88 c 0,52,53
 729.05 1087.89 729.05 1087.89 676 1068 c 1,54,55
 709.746 1016.49 709.746 1016.49 754.873 969.746 c 2,56,-1
 825.5 895 l 1,57,58
 874.134 841.598 874.134 841.598 881.567 819.299 c 128,-1,59
 889 797 889 797 889 778 c 128,-1,60
 889 759 889 759 882 743.5 c 128,-1,61
 875 728 875 728 864.5 717.5 c 0,62,63
 844 697 844 697 819.5 697 c 128,-1,64
 795 697 795 697 777 704 c 128,-1,65
 759 711 759 711 738 732 c 0,66,67
 696.483 773.517 696.483 773.517 658.241 844.259 c 128,-1,68
 620 915 620 915 611 930 c 128,-1,69
 602 945 602 945 594.5 956 c 2,70,-1
 567 996 l 1,71,72
 523.615 938.154 523.615 938.154 491.808 878.577 c 128,-1,73
 460 819 460 819 438.5 783.5 c 128,-1,74
 417 748 417 748 399.5 729 c 128,-1,0
 382 710 382 710 366.5 703.5 c 128,-1,1
EndSplineSet
EndChar

StartChar: onesuperior
Encoding: 185 185 121
Width: 855
Flags: HW
LayerCount: 2
Fore
SplineSet
419.5 661 m 1,0,-1
 322 657 l 1,1,-1
 282 657 l 2,2,3
 240 657 240 657 221.5 678 c 128,-1,4
 203 699 203 699 203 724.5 c 128,-1,5
 203 750 203 750 223 771 c 128,-1,6
 243 792 243 792 285 792 c 2,7,-1
 392 792 l 1,8,-1
 392 1354 l 1,9,10
 373 1335 373 1335 357.5 1317.5 c 2,11,-1
 322 1277 l 2,12,13
 266.269 1214 266.269 1214 226.635 1214 c 128,-1,14
 187 1214 187 1214 165.5 1235 c 128,-1,15
 144 1256 144 1256 144 1278.5 c 128,-1,16
 144 1301 144 1301 147 1313 c 128,-1,17
 150 1325 150 1325 159 1337.5 c 0,18,19
 176.507 1361.82 176.507 1361.82 228.254 1399.41 c 0,20,21
 314.979 1462.41 314.979 1462.41 360.49 1513.71 c 128,-1,22
 406 1565 406 1565 431 1575.5 c 128,-1,23
 456 1586 456 1586 482 1586 c 256,24,25
 508 1586 508 1586 529.5 1567.5 c 128,-1,26
 551 1549 551 1549 551 1514 c 2,27,-1
 551 792 l 1,28,-1
 627 792 l 2,29,30
 672 792 672 792 691.5 771 c 128,-1,31
 711 750 711 750 711 723.5 c 128,-1,32
 711 697 711 697 689 677 c 128,-1,33
 667 657 667 657 629 657 c 2,34,-1
 470 661 l 1,35,-1
 419.5 661 l 1,0,-1
EndSplineSet
EndChar

StartChar: twosuperior
Encoding: 178 178 122
Width: 1025
Flags: HW
LayerCount: 2
Fore
SplineSet
495 848 m 1,0,1
 657.25 789 657.25 789 698.125 789 c 0,2,3
 772.895 789 772.895 789 795 831 c 0,4,5
 820.846 879 820.846 879 857.923 879 c 0,6,7
 930 879 930 879 930 803 c 0,8,9
 930 748.129 930 748.129 863 699.5 c 0,10,11
 793.422 649 793.422 649 699 649 c 0,12,13
 606.917 649 606.917 649 499 686 c 1,14,-1
 442 704 l 2,15,16
 373.25 726 373.25 726 339.625 726 c 128,-1,17
 306 726 306 726 291.5 713.5 c 128,-1,18
 277 701 277 701 250.5 681.5 c 0,19,20
 206.333 649 206.333 649 169.667 649 c 128,-1,21
 133 649 133 649 113.5 670.5 c 128,-1,22
 94 692 94 692 94 721 c 0,23,24
 94 783 94 783 192 832 c 1,25,26
 422.615 944.448 422.615 944.448 551.5 1075.5 c 0,27,28
 669 1194.97 669 1194.97 669 1300 c 0,29,30
 669 1370 669 1370 622.5 1414 c 128,-1,31
 576 1458 576 1458 481 1458 c 0,32,33
 340.137 1458 340.137 1458 307 1373.5 c 0,34,35
 297 1348 297 1348 297 1320 c 0,36,37
 297 1265.96 297 1265.96 339 1255 c 0,38,39
 390 1242.25 390 1242.25 390 1188 c 256,40,41
 390 1163 390 1163 369.5 1145 c 128,-1,42
 349 1127 349 1127 314 1127 c 128,-1,43
 279 1127 279 1127 248.5 1140.5 c 128,-1,44
 218 1154 218 1154 194.5 1178.5 c 0,45,46
 144 1231.15 144 1231.15 144 1297.57 c 128,-1,47
 144 1364 144 1364 165 1412.5 c 128,-1,48
 186 1461 186 1461 229.5 1499.5 c 0,49,50
 327.234 1586 327.234 1586 495 1586 c 0,51,52
 648 1586 648 1586 741.5 1503.5 c 0,53,54
 829 1426.29 829 1426.29 829 1310 c 0,55,56
 829 1075.73 829 1075.73 495 848 c 1,0,1
EndSplineSet
EndChar

StartChar: threesuperior
Encoding: 179 179 123
Width: 1025
Flags: HW
LayerCount: 2
Fore
SplineSet
493 649 m 0,0,1
 404 649 404 649 337 672 c 128,-1,2
 270 695 270 695 222 733.5 c 0,3,4
 122 813.708 122 813.708 122 929 c 0,5,6
 122 1005.11 122 1005.11 162 1054 c 0,7,8
 199.636 1100 199.636 1100 241.818 1100 c 0,9,10
 327 1100 327 1100 327 1030 c 0,11,12
 327 1004.14 327 1004.14 305.5 984.071 c 0,13,14
 270 950.93 270 950.93 270 924.965 c 128,-1,15
 270 899 270 899 287 871 c 128,-1,16
 304 843 304 843 335 822 c 0,17,18
 402.905 776 402.905 776 477.952 776 c 128,-1,19
 553 776 553 776 597.5 790 c 128,-1,20
 642 804 642 804 673.5 833.5 c 0,21,22
 741 896.714 741 896.714 741 1013 c 0,23,24
 741 1100.56 741 1100.56 686 1154.5 c 0,25,26
 632.471 1207 632.471 1207 546 1207 c 0,27,28
 503.556 1207 503.556 1207 474.778 1194 c 0,29,30
 423.863 1171 423.863 1171 401.432 1171 c 128,-1,31
 379 1171 379 1171 363.5 1185.5 c 128,-1,32
 348 1200 348 1200 348 1223 c 128,-1,33
 348 1246 348 1246 359.5 1263.5 c 128,-1,34
 371 1281 371 1281 394 1307 c 2,35,-1
 514 1439 l 1,36,-1
 490 1439 l 2,37,38
 317.75 1439 317.75 1439 277.375 1446.5 c 128,-1,39
 237 1454 237 1454 222.5 1462.5 c 128,-1,40
 208 1471 208 1471 199.5 1481 c 0,41,42
 185 1498.06 185 1498.06 185 1523.53 c 128,-1,43
 185 1549 185 1549 204.5 1569.5 c 128,-1,44
 224 1590 224 1590 249.5 1590 c 128,-1,45
 275 1590 275 1590 285 1588 c 128,-1,46
 295 1586 295 1586 315.5 1582.5 c 0,47,48
 388.714 1570 388.714 1570 475.357 1570 c 0,49,50
 580 1570 580 1570 613.5 1581 c 0,51,52
 674.409 1601 674.409 1601 699 1601 c 0,53,54
 755 1601 755 1601 755 1549 c 0,55,56
 755 1521.52 755 1521.52 704 1467 c 2,57,-1
 577 1333 l 1,58,59
 715.36 1328.87 715.36 1328.87 806 1247.5 c 0,60,61
 902 1161.32 902 1161.32 902 1027 c 0,62,63
 902 864.778 902 864.778 790 759 c 0,64,65
 673.529 649 673.529 649 493 649 c 0,0,1
EndSplineSet
EndChar

StartChar: onequarter
Encoding: 188 188 124
Width: 2221
Flags: HW
LayerCount: 2
Fore
SplineSet
398 24 m 128,-1,1
 378 48 378 48 378 71.5 c 128,-1,2
 378 95 378 95 380.5 110 c 128,-1,3
 383 125 383 125 394.5 144.5 c 0,4,5
 421.274 189.899 421.274 189.899 466.137 229.449 c 128,-1,6
 511 269 511 269 537.5 295 c 2,7,-1
 653.5 415 l 1,8,9
 711 480 l 1,10,-1
 1308 1184 l 2,11,12
 1349 1232 1349 1232 1395 1294 c 2,13,-1
 1491 1422 l 2,14,15
 1558.49 1512.69 1558.49 1512.69 1586.74 1536.34 c 0,16,17
 1632.92 1575 1632.92 1575 1677.46 1575 c 128,-1,18
 1722 1575 1722 1575 1743.5 1553 c 128,-1,19
 1765 1531 1765 1531 1765 1505 c 128,-1,20
 1765 1479 1765 1479 1761 1463.5 c 128,-1,21
 1757 1448 1757 1448 1747 1431 c 0,22,23
 1727.1 1397.18 1727.1 1397.18 1692.55 1363.59 c 128,-1,24
 1658 1330 1658 1330 1639 1310 c 0,25,26
 1533.5 1194.59 1533.5 1194.59 1489 1142 c 0,27,28
 766.604 299.982 766.604 299.982 740.302 267.491 c 0,29,30
 660.762 169.015 660.762 169.015 630.881 129.508 c 128,-1,31
 601 90 601 90 577 65 c 128,-1,32
 553 40 553 40 532 25.5 c 0,33,34
 495.069 3.08731e-06 495.069 3.08731e-06 456.534 1.54365e-06 c 128,-1,0
 418 0 418 0 398 24 c 128,-1,1
1317 272 m 2,35,36
 1218 272 1218 272 1218 340 c 0,37,38
 1218 389.043 1218 389.043 1279 458 c 2,39,-1
 1618 845 l 1,40,41
 1690.24 929 1690.24 929 1747 929 c 0,42,43
 1833 929 1833 929 1833 840 c 2,44,-1
 1833 407 l 1,45,-1
 1869 410 l 2,46,47
 1931.5 415 1931.5 415 1968.75 415 c 128,-1,48
 2006 415 2006 415 2032 393.5 c 128,-1,49
 2058 372 2058 372 2058 339.5 c 128,-1,50
 2058 307 2058 307 2032 286 c 128,-1,51
 2006 265 2006 265 1959 265 c 128,-1,52
 1912 265 1912 265 1862 269 c 1,53,-1
 1833 270 l 1,54,-1
 1833 135 l 1,55,-1
 1892 135 l 2,56,57
 1937 135 1937 135 1956.5 114 c 128,-1,58
 1976 93 1976 93 1976 66.5 c 128,-1,59
 1976 40 1976 40 1954.5 20 c 128,-1,60
 1933 0 1933 0 1895 0 c 1,61,-1
 1755 4 l 1,62,-1
 1578 0 l 1,63,64
 1528 0 1528 0 1508 21 c 128,-1,65
 1488 42 1488 42 1488 67.5 c 128,-1,66
 1488 93 1488 93 1508 114 c 128,-1,67
 1528 135 1528 135 1570 135 c 2,68,-1
 1673 135 l 1,69,-1
 1673 272 l 1,70,-1
 1317 272 l 2,35,36
1408 399 m 1,71,72
 1458 404 1458 404 1477 404 c 2,73,-1
 1673 404 l 1,74,-1
 1673 701 l 1,75,-1
 1408 399 l 1,71,72
438.5 661 m 1,76,-1
 341 657 l 1,77,-1
 301 657 l 2,78,79
 259 657 259 657 240.5 678 c 128,-1,80
 222 699 222 699 222 724.5 c 128,-1,81
 222 750 222 750 242 771 c 128,-1,82
 262 792 262 792 304 792 c 2,83,-1
 411 792 l 1,84,-1
 411 1354 l 1,85,86
 392 1335 392 1335 376.5 1317.5 c 2,87,-1
 341 1277 l 2,88,89
 285.269 1214 285.269 1214 245.635 1214 c 128,-1,90
 206 1214 206 1214 184.5 1235 c 128,-1,91
 163 1256 163 1256 163 1278.5 c 128,-1,92
 163 1301 163 1301 166 1313 c 128,-1,93
 169 1325 169 1325 178 1337.5 c 0,94,95
 195.507 1361.82 195.507 1361.82 247.254 1399.41 c 0,96,97
 333.979 1462.41 333.979 1462.41 379.49 1513.71 c 128,-1,98
 425 1565 425 1565 450 1575.5 c 128,-1,99
 475 1586 475 1586 501 1586 c 256,100,101
 527 1586 527 1586 548.5 1567.5 c 128,-1,102
 570 1549 570 1549 570 1514 c 2,103,-1
 570 792 l 1,104,-1
 646 792 l 2,105,106
 691 792 691 792 710.5 771 c 128,-1,107
 730 750 730 750 730 723.5 c 128,-1,108
 730 697 730 697 708 677 c 128,-1,109
 686 657 686 657 648 657 c 2,110,-1
 489 661 l 1,111,-1
 438.5 661 l 1,76,-1
EndSplineSet
EndChar

StartChar: onehalf
Encoding: 189 189 125
Width: 2218
Flags: HW
LayerCount: 2
Fore
SplineSet
369 24 m 128,-1,1
 349 48 349 48 349 71.5 c 128,-1,2
 349 95 349 95 351.5 110 c 128,-1,3
 354 125 354 125 365.5 144.5 c 0,4,5
 392.274 189.899 392.274 189.899 437.137 229.449 c 128,-1,6
 482 269 482 269 508.5 295 c 2,7,-1
 624.5 415 l 1,8,9
 682 480 l 1,10,-1
 1279 1184 l 2,11,12
 1320 1232 1320 1232 1366 1294 c 2,13,-1
 1462 1422 l 2,14,15
 1529.49 1512.69 1529.49 1512.69 1557.74 1536.34 c 0,16,17
 1603.92 1575 1603.92 1575 1648.46 1575 c 128,-1,18
 1693 1575 1693 1575 1714.5 1553 c 128,-1,19
 1736 1531 1736 1531 1736 1505 c 128,-1,20
 1736 1479 1736 1479 1732 1463.5 c 128,-1,21
 1728 1448 1728 1448 1718 1431 c 0,22,23
 1698.1 1397.18 1698.1 1397.18 1663.55 1363.59 c 128,-1,24
 1629 1330 1629 1330 1610 1310 c 0,25,26
 1504.5 1194.59 1504.5 1194.59 1460 1142 c 0,27,28
 737.604 299.982 737.604 299.982 711.302 267.491 c 0,29,30
 631.762 169.015 631.762 169.015 601.881 129.508 c 128,-1,31
 572 90 572 90 548 65 c 128,-1,32
 524 40 524 40 503 25.5 c 0,33,34
 466.069 3.08731e-06 466.069 3.08731e-06 427.534 1.54365e-06 c 128,-1,0
 389 0 389 0 369 24 c 128,-1,1
375.5 661 m 1,35,-1
 278 657 l 1,36,-1
 238 657 l 2,37,38
 196 657 196 657 177.5 678 c 128,-1,39
 159 699 159 699 159 724.5 c 128,-1,40
 159 750 159 750 179 771 c 128,-1,41
 199 792 199 792 241 792 c 2,42,-1
 348 792 l 1,43,-1
 348 1354 l 1,44,45
 329 1335 329 1335 313.5 1317.5 c 2,46,-1
 278 1277 l 2,47,48
 222.269 1214 222.269 1214 182.635 1214 c 128,-1,49
 143 1214 143 1214 121.5 1235 c 128,-1,50
 100 1256 100 1256 100 1278.5 c 128,-1,51
 100 1301 100 1301 103 1313 c 128,-1,52
 106 1325 106 1325 115 1337.5 c 0,53,54
 132.507 1361.82 132.507 1361.82 184.254 1399.41 c 0,55,56
 270.979 1462.41 270.979 1462.41 316.49 1513.71 c 128,-1,57
 362 1565 362 1565 387 1575.5 c 128,-1,58
 412 1586 412 1586 438 1586 c 256,59,60
 464 1586 464 1586 485.5 1567.5 c 128,-1,61
 507 1549 507 1549 507 1514 c 2,62,-1
 507 792 l 1,63,-1
 583 792 l 2,64,65
 628 792 628 792 647.5 771 c 128,-1,66
 667 750 667 750 667 723.5 c 128,-1,67
 667 697 667 697 645 677 c 128,-1,68
 623 657 623 657 585 657 c 2,69,-1
 426 661 l 1,70,-1
 375.5 661 l 1,35,-1
1683 184 m 1,71,72
 1845.25 125 1845.25 125 1886.12 125 c 0,73,74
 1960.89 125 1960.89 125 1983 167 c 0,75,76
 2008.85 215 2008.85 215 2045.92 215 c 0,77,78
 2118 215 2118 215 2118 139 c 0,79,80
 2118 84.129 2118 84.129 2051 35.5 c 0,81,82
 1981.42 -15 1981.42 -15 1887 -15 c 0,83,84
 1794.92 -15 1794.92 -15 1687 22 c 1,85,-1
 1630 40 l 2,86,87
 1561.25 62 1561.25 62 1527.62 62 c 128,-1,88
 1494 62 1494 62 1479.5 49.5 c 128,-1,89
 1465 37 1465 37 1438.5 17.5 c 0,90,91
 1394.33 -15 1394.33 -15 1357.67 -15 c 128,-1,92
 1321 -15 1321 -15 1301.5 6.5 c 128,-1,93
 1282 28 1282 28 1282 57 c 0,94,95
 1282 119 1282 119 1380 168 c 1,96,97
 1610.61 280.448 1610.61 280.448 1739.5 411.5 c 0,98,99
 1857 530.975 1857 530.975 1857 636 c 0,100,101
 1857 706 1857 706 1810.5 750 c 128,-1,102
 1764 794 1764 794 1669 794 c 0,103,104
 1528.14 794 1528.14 794 1495 709.5 c 0,105,106
 1485 684 1485 684 1485 656 c 0,107,108
 1485 601.957 1485 601.957 1527 591 c 0,109,110
 1578 578.25 1578 578.25 1578 524 c 256,111,112
 1578 499 1578 499 1557.5 481 c 128,-1,113
 1537 463 1537 463 1502 463 c 128,-1,114
 1467 463 1467 463 1436.5 476.5 c 128,-1,115
 1406 490 1406 490 1382.5 514.5 c 0,116,117
 1332 567.149 1332 567.149 1332 633.574 c 128,-1,118
 1332 700 1332 700 1353 748.5 c 128,-1,119
 1374 797 1374 797 1417.5 835.5 c 0,120,121
 1515.23 922 1515.23 922 1683 922 c 0,122,123
 1836 922 1836 922 1929.5 839.5 c 0,124,125
 2017 762.294 2017 762.294 2017 646 c 0,126,127
 2017 411.727 2017 411.727 1683 184 c 1,71,72
EndSplineSet
EndChar

StartChar: threequarters
Encoding: 190 190 126
Width: 2385
Flags: HW
LayerCount: 2
Fore
SplineSet
558 24 m 128,-1,1
 538 48 538 48 538 71.5 c 128,-1,2
 538 95 538 95 540.5 110 c 128,-1,3
 543 125 543 125 554.5 144.5 c 0,4,5
 581.274 189.899 581.274 189.899 626.137 229.449 c 128,-1,6
 671 269 671 269 697.5 295 c 2,7,-1
 813.5 415 l 1,8,9
 871 480 l 1,10,-1
 1468 1184 l 2,11,12
 1509 1232 1509 1232 1555 1294 c 2,13,-1
 1651 1422 l 2,14,15
 1718.49 1512.69 1718.49 1512.69 1746.74 1536.34 c 0,16,17
 1792.92 1575 1792.92 1575 1837.46 1575 c 128,-1,18
 1882 1575 1882 1575 1903.5 1553 c 128,-1,19
 1925 1531 1925 1531 1925 1505 c 128,-1,20
 1925 1479 1925 1479 1921 1463.5 c 128,-1,21
 1917 1448 1917 1448 1907 1431 c 0,22,23
 1887.1 1397.18 1887.1 1397.18 1852.55 1363.59 c 128,-1,24
 1818 1330 1818 1330 1799 1310 c 0,25,26
 1693.5 1194.59 1693.5 1194.59 1649 1142 c 0,27,28
 926.604 299.982 926.604 299.982 900.302 267.491 c 0,29,30
 820.762 169.015 820.762 169.015 790.881 129.508 c 128,-1,31
 761 90 761 90 737 65 c 128,-1,32
 713 40 713 40 692 25.5 c 0,33,34
 655.069 3.08731e-06 655.069 3.08731e-06 616.534 1.54365e-06 c 128,-1,0
 578 0 578 0 558 24 c 128,-1,1
1477 272 m 2,35,36
 1378 272 1378 272 1378 340 c 0,37,38
 1378 389.043 1378 389.043 1439 458 c 2,39,-1
 1778 845 l 1,40,41
 1850.24 929 1850.24 929 1907 929 c 0,42,43
 1993 929 1993 929 1993 840 c 2,44,-1
 1993 407 l 1,45,-1
 2029 410 l 2,46,47
 2091.5 415 2091.5 415 2128.75 415 c 128,-1,48
 2166 415 2166 415 2192 393.5 c 128,-1,49
 2218 372 2218 372 2218 339.5 c 128,-1,50
 2218 307 2218 307 2192 286 c 128,-1,51
 2166 265 2166 265 2119 265 c 128,-1,52
 2072 265 2072 265 2022 269 c 1,53,-1
 1993 270 l 1,54,-1
 1993 135 l 1,55,-1
 2052 135 l 2,56,57
 2097 135 2097 135 2116.5 114 c 128,-1,58
 2136 93 2136 93 2136 66.5 c 128,-1,59
 2136 40 2136 40 2114.5 20 c 128,-1,60
 2093 0 2093 0 2055 0 c 1,61,-1
 1915 4 l 1,62,-1
 1738 0 l 1,63,64
 1688 0 1688 0 1668 21 c 128,-1,65
 1648 42 1648 42 1648 67.5 c 128,-1,66
 1648 93 1648 93 1668 114 c 128,-1,67
 1688 135 1688 135 1730 135 c 2,68,-1
 1833 135 l 1,69,-1
 1833 272 l 1,70,-1
 1477 272 l 2,35,36
1568 399 m 1,71,72
 1618 404 1618 404 1637 404 c 2,73,-1
 1833 404 l 1,74,-1
 1833 701 l 1,75,-1
 1568 399 l 1,71,72
537 649 m 0,76,77
 448 649 448 649 381 672 c 128,-1,78
 314 695 314 695 266 733.5 c 0,79,80
 166 813.708 166 813.708 166 929 c 0,81,82
 166 1005.11 166 1005.11 206 1054 c 0,83,84
 243.636 1100 243.636 1100 285.818 1100 c 0,85,86
 371 1100 371 1100 371 1030 c 0,87,88
 371 1004.14 371 1004.14 349.5 984.071 c 0,89,90
 314 950.93 314 950.93 314 924.965 c 128,-1,91
 314 899 314 899 331 871 c 128,-1,92
 348 843 348 843 379 822 c 0,93,94
 446.905 776 446.905 776 521.952 776 c 128,-1,95
 597 776 597 776 641.5 790 c 128,-1,96
 686 804 686 804 717.5 833.5 c 0,97,98
 785 896.714 785 896.714 785 1013 c 0,99,100
 785 1100.56 785 1100.56 730 1154.5 c 0,101,102
 676.471 1207 676.471 1207 590 1207 c 0,103,104
 547.556 1207 547.556 1207 518.778 1194 c 0,105,106
 467.863 1171 467.863 1171 445.432 1171 c 128,-1,107
 423 1171 423 1171 407.5 1185.5 c 128,-1,108
 392 1200 392 1200 392 1223 c 128,-1,109
 392 1246 392 1246 403.5 1263.5 c 128,-1,110
 415 1281 415 1281 438 1307 c 2,111,-1
 558 1439 l 1,112,-1
 534 1439 l 2,113,114
 361.75 1439 361.75 1439 321.375 1446.5 c 128,-1,115
 281 1454 281 1454 266.5 1462.5 c 128,-1,116
 252 1471 252 1471 243.5 1481 c 0,117,118
 229 1498.06 229 1498.06 229 1523.53 c 128,-1,119
 229 1549 229 1549 248.5 1569.5 c 128,-1,120
 268 1590 268 1590 293.5 1590 c 128,-1,121
 319 1590 319 1590 329 1588 c 128,-1,122
 339 1586 339 1586 359.5 1582.5 c 0,123,124
 432.714 1570 432.714 1570 519.357 1570 c 0,125,126
 624 1570 624 1570 657.5 1581 c 0,127,128
 718.409 1601 718.409 1601 743 1601 c 0,129,130
 799 1601 799 1601 799 1549 c 0,131,132
 799 1521.52 799 1521.52 748 1467 c 2,133,-1
 621 1333 l 1,134,135
 759.36 1328.87 759.36 1328.87 850 1247.5 c 0,136,137
 946 1161.32 946 1161.32 946 1027 c 0,138,139
 946 864.778 946 864.778 834 759 c 0,140,141
 717.529 649 717.529 649 537 649 c 0,76,77
EndSplineSet
EndChar

StartChar: ordfeminine
Encoding: 170 170 127
Width: 1196
Flags: HW
LayerCount: 2
Fore
SplineSet
795 803 m 1,0,1
 727.605 726.415 727.605 726.415 591 701 c 0,2,3
 548 693 548 693 483.5 693 c 128,-1,4
 419 693 419 693 356 710.5 c 128,-1,5
 293 728 293 728 251 760.5 c 0,6,7
 166 826.274 166 826.274 166 941 c 0,8,9
 166 1131.27 166 1131.27 376.5 1188 c 0,10,11
 447 1207 447 1207 558.214 1207 c 128,-1,12
 669.429 1207 669.429 1207 773 1182 c 1,13,-1
 773 1275 l 2,14,15
 773 1353 773 1353 722.5 1399 c 128,-1,16
 672 1445 672 1445 566 1445 c 0,17,18
 455 1445 455 1445 425 1409 c 0,19,20
 415 1397 415 1397 401 1374.5 c 0,21,22
 364.6 1316 364.6 1316 305 1316 c 0,23,24
 221 1316 221 1316 221 1395 c 0,25,26
 221 1470.02 221 1470.02 317 1529.5 c 0,27,28
 421.105 1594 421.105 1594 571 1594 c 0,29,30
 832.218 1594 832.218 1594 912.5 1413 c 0,31,32
 940 1351 940 1351 940 1267 c 2,33,-1
 940 1044 l 2,34,35
 940 886.222 940 886.222 965 851.5 c 0,36,37
 974 839 974 839 992.5 827 c 0,38,39
 1030 802.676 1030 802.676 1030 766.838 c 0,40,41
 1030 693 1030 693 933.125 693 c 128,-1,42
 836.25 693 836.25 693 795 803 c 1,0,1
773 1050 m 1,43,44
 643.455 1075 643.455 1075 568.227 1075 c 128,-1,45
 493 1075 493 1075 456 1064.5 c 128,-1,46
 419 1054 419 1054 393.5 1036.5 c 0,47,48
 341 1000.47 341 1000.47 341 946 c 0,49,50
 341 901.628 341 901.628 386.5 872 c 0,51,52
 431.036 843 431.036 843 505 843 c 0,53,54
 670.196 843 670.196 843 773 950 c 1,55,-1
 773 1050 l 1,43,44
EndSplineSet
EndChar

StartChar: ordmasculine
Encoding: 186 186 128
Width: 1196
Flags: HW
LayerCount: 2
Fore
SplineSet
591 693 m 0,0,1
 493 693 493 693 413 727 c 128,-1,2
 333 761 333 761 278 820 c 0,3,4
 165 941.218 165 941.218 165 1133 c 0,5,6
 165 1331.56 165 1331.56 290.5 1463.5 c 0,7,8
 414.634 1594 414.634 1594 602 1594 c 256,9,10
 791 1594 791 1594 909.5 1475.5 c 0,11,12
 1031 1354 1031 1354 1031 1142 c 0,13,14
 1031 950.276 1031 950.276 907 822 c 0,15,16
 782.3 693 782.3 693 591 693 c 0,0,1
601 841 m 0,17,18
 659 841 659 841 709 861.5 c 128,-1,19
 759 882 759 882 794.5 920 c 0,20,21
 869 999.746 869 999.746 869 1134 c 0,22,23
 869 1356.57 869 1356.57 712 1424.5 c 0,24,25
 660 1447 660 1447 594.5 1447 c 128,-1,26
 529 1447 529 1447 479.5 1425 c 128,-1,27
 430 1403 430 1403 395.5 1364 c 0,28,29
 324 1283.17 324 1283.17 324 1158 c 0,30,31
 324 1010.52 324 1010.52 405.5 922.5 c 0,32,33
 480.963 841 480.963 841 601 841 c 0,17,18
EndSplineSet
EndChar

StartChar: copyright
Encoding: 169 169 129
Width: 1880
Flags: HW
LayerCount: 2
Fore
SplineSet
119 794.5 m 0,0,1
 119 934 119 934 179.5 1081 c 128,-1,2
 240 1228 240 1228 349.5 1338 c 128,-1,3
 459 1448 459 1448 611.5 1511.5 c 128,-1,4
 764 1575 764 1575 949 1575 c 0,5,6
 1289.49 1575 1289.49 1575 1522.5 1354.5 c 0,7,8
 1674.51 1210.65 1674.51 1210.65 1732 1001.5 c 0,9,10
 1761 896 1761 896 1761 777.5 c 128,-1,11
 1761 659 1761 659 1731 554.5 c 128,-1,12
 1701 450 1701 450 1646 362 c 128,-1,13
 1591 274 1591 274 1515 204 c 128,-1,14
 1439 134 1439 134 1346.5 85.5 c 0,15,16
 1154.82 -15 1154.82 -15 932 -15 c 0,17,18
 719.899 -15 719.899 -15 532.5 87.5 c 0,19,20
 345.913 189.556 345.913 189.556 235 365 c 0,21,22
 119 548.491 119 548.491 119 794.5 c 0,0,1
296 775 m 0,23,24
 296 634 296 634 345 519 c 128,-1,25
 394 404 394 404 480.5 321 c 0,26,27
 664.964 144 664.964 144 940 144 c 0,28,29
 1236.35 144 1236.35 144 1411.5 316 c 0,30,31
 1584 485.401 1584 485.401 1584 767 c 0,32,33
 1584 1062.12 1584 1062.12 1402.5 1241.5 c 0,34,35
 1225.93 1416 1225.93 1416 940 1416 c 0,36,37
 653.55 1416 653.55 1416 475 1238.5 c 0,38,39
 296 1060.55 296 1060.55 296 775 c 0,23,24
589 617 m 128,-1,41
 559 689 559 689 559 770 c 128,-1,42
 559 851 559 851 587.5 920.5 c 128,-1,43
 616 990 616 990 668.5 1042 c 0,44,45
 782.587 1155 782.587 1155 961 1155 c 0,46,47
 997 1155 997 1155 1031 1145 c 1,48,49
 1030 1150 1030 1150 1030 1166.5 c 128,-1,50
 1030 1183 1030 1183 1047.5 1199.5 c 128,-1,51
 1065 1216 1065 1216 1089 1216 c 0,52,53
 1140 1216 1140 1216 1155 1170 c 0,54,55
 1168.47 1129.6 1168.47 1129.6 1191.73 1094.3 c 2,56,-1
 1240 1023 l 2,57,58
 1266 983.133 1266 983.133 1266 955.567 c 128,-1,59
 1266 928 1266 928 1248 910.5 c 128,-1,60
 1230 893 1230 893 1205.5 893 c 0,61,62
 1158.78 893 1158.78 893 1127.39 931 c 0,63,64
 1067.09 1004 1067.09 1004 953 1004 c 0,65,66
 846.429 1004 846.429 1004 787.5 936.5 c 0,67,68
 732 872.927 732 872.927 732 767.964 c 128,-1,69
 732 663 732 663 791.5 600.5 c 128,-1,70
 851 538 851 538 963 538 c 0,71,72
 1073.15 538 1073.15 538 1106 599 c 1,73,74
 1134.39 654 1134.39 654 1187 654 c 0,75,76
 1219 654 1219 654 1236.5 632 c 128,-1,77
 1254 610 1254 610 1254 575.5 c 128,-1,78
 1254 541 1254 541 1230.5 504.5 c 128,-1,79
 1207 468 1207 468 1166.5 440.5 c 0,80,81
 1078.87 381 1078.87 381 973.436 381 c 128,-1,82
 868 381 868 381 796 410.5 c 128,-1,83
 724 440 724 440 671.5 492.5 c 128,-1,40
 619 545 619 545 589 617 c 128,-1,41
EndSplineSet
EndChar

StartChar: asciitilde
Encoding: 126 126 130
Width: 1338
Flags: HW
LayerCount: 2
Fore
SplineSet
190.5 369.5 m 128,-1,1
 177 366 177 366 156 366 c 128,-1,2
 135 366 135 366 112.5 390 c 128,-1,3
 90 414 90 414 90 473.5 c 128,-1,4
 90 533 90 533 115.5 592.5 c 128,-1,5
 141 652 141 652 184.5 694 c 0,6,7
 275.643 782 275.643 782 405 782 c 0,8,9
 479.258 782 479.258 782 523.129 762 c 0,10,11
 587.4 732.7 587.4 732.7 686.7 658.35 c 2,12,-1
 824 557 l 1,13,14
 895.936 505.887 895.936 505.887 918.968 499.944 c 128,-1,15
 942 494 942 494 959 494 c 0,16,17
 1010 494 1010 494 1042 533.5 c 128,-1,18
 1074 573 1074 573 1089.5 643.5 c 128,-1,19
 1105 714 1105 714 1122.5 731 c 128,-1,20
 1140 748 1140 748 1170.5 748 c 128,-1,21
 1201 748 1201 748 1224.5 724 c 128,-1,22
 1248 700 1248 700 1248 640.5 c 128,-1,23
 1248 581 1248 581 1222.5 521.5 c 128,-1,24
 1197 462 1197 462 1153.5 420 c 0,25,26
 1062.36 332 1062.36 332 933 332 c 0,27,28
 806.541 332 806.541 332 646 464 c 1,29,-1
 545 545 l 2,30,31
 470.748 604.021 470.748 604.021 443.874 612.01 c 128,-1,32
 417 620 417 620 396 620 c 0,33,34
 341 620 341 620 303.5 581.5 c 128,-1,35
 266 543 266 543 244 450 c 0,36,37
 231.876 399.482 231.876 399.482 217.938 386.241 c 128,-1,0
 204 373 204 373 190.5 369.5 c 128,-1,1
EndSplineSet
EndChar

StartChar: registered
Encoding: 174 174 131
Width: 1366
Flags: HW
LayerCount: 2
Fore
SplineSet
677 461 m 0,0,1
 558 461 558 461 453.5 503 c 128,-1,2
 349 545 349 545 272 618.5 c 0,3,4
 107 776 107 776 107 1009 c 0,5,6
 107 1248.72 107 1248.72 273.5 1412 c 0,7,8
 439.717 1575 439.717 1575 685 1575 c 0,9,10
 921.422 1575 921.422 1575 1087.5 1419.5 c 0,11,12
 1258 1259.86 1258 1259.86 1258 1017 c 0,13,14
 1258 772.478 1258 772.478 1086.5 615 c 0,15,16
 918.788 461 918.788 461 677 461 c 0,0,1
684.5 590 m 0,17,18
 781 590 781 590 861.5 620.5 c 128,-1,19
 942 651 942 651 998 706 c 0,20,21
 1114 819.929 1114 819.929 1114 1008 c 0,22,23
 1114 1208.11 1114 1208.11 992.5 1327.5 c 0,24,25
 872.92 1445 872.92 1445 680 1445 c 256,26,27
 488 1445 488 1445 369 1326 c 0,28,29
 249 1206 249 1206 249 1011 c 0,30,31
 249 827.759 249 827.759 372 709 c 0,32,33
 495.25 590 495.25 590 684.5 590 c 0,17,18
929 1105 m 0,34,35
 929 989.714 929 989.714 809 949 c 1,36,37
 843.772 891.874 843.772 891.874 891.5 879.5 c 0,38,39
 905 876 905 876 924.5 872 c 0,40,41
 965 863.692 965 863.692 965 818 c 0,42,43
 965 798 965 798 949.5 781 c 128,-1,44
 934 764 934 764 905.5 764 c 0,45,46
 814.323 764 814.323 764 749.5 843.5 c 0,47,48
 723 876 723 876 694 936 c 1,49,-1
 616 936 l 1,50,-1
 616 866 l 1,51,-1
 644 866 l 2,52,53
 668 866 668 866 681.5 851.5 c 128,-1,54
 695 837 695 837 695 819.5 c 128,-1,55
 695 802 695 802 683 784.5 c 128,-1,56
 671 767 671 767 645 767 c 2,57,-1
 477 767 l 2,58,59
 451 767 451 767 436.5 782 c 128,-1,60
 422 797 422 797 422 818 c 128,-1,61
 422 839 422 839 436.5 852.5 c 128,-1,62
 451 866 451 866 477 866 c 2,63,-1
 499 866 l 1,64,-1
 499 1168 l 1,65,66
 487 1165 487 1165 463 1165 c 128,-1,67
 439 1165 439 1165 424 1182 c 128,-1,68
 409 1199 409 1199 409 1222.5 c 128,-1,69
 409 1246 409 1246 435.5 1265.5 c 128,-1,70
 462 1285 462 1285 524 1285 c 2,71,-1
 667 1285 l 2,72,73
 929 1285 929 1285 929 1105 c 0,34,35
667 1033 m 2,74,75
 801 1033 801 1033 801 1107 c 0,76,77
 801 1146.74 801 1146.74 777.5 1159.87 c 0,78,79
 734.316 1184 734.316 1184 651 1184 c 2,80,-1
 631 1184 l 2,81,82
 623 1184 623 1184 616 1183 c 1,83,-1
 616 1033 l 1,84,-1
 667 1033 l 2,74,75
EndSplineSet
EndChar

StartChar: dollar
Encoding: 36 36 132
Width: 1369
Flags: HW
LayerCount: 2
Fore
SplineSet
519 7 m 1,0,1
 487.429 -58 487.429 -58 424 -58 c 0,2,3
 359.195 -58 359.195 -58 343 25 c 0,4,5
 334.04 69.8013 334.04 69.8013 297.02 124.901 c 1,6,-1
 146.5 336 l 2,7,8
 86.2472 420.947 86.2472 420.947 77.6236 448.973 c 128,-1,9
 69 477 69 477 69 502.5 c 128,-1,10
 69 528 69 528 87 550 c 128,-1,11
 105 572 105 572 139.5 572 c 128,-1,12
 174 572 174 572 204.5 549.5 c 128,-1,13
 235 527 235 527 273 460 c 0,14,15
 364.463 298.737 364.463 298.737 429 243 c 1,16,17
 499.204 179.179 499.204 179.179 636 158.5 c 0,18,19
 679 152 679 152 751 152 c 128,-1,20
 823 152 823 152 896 173 c 128,-1,21
 969 194 969 194 1017.5 232 c 0,22,23
 1111.65 305.767 1111.65 305.767 1118 437 c 0,24,25
 1127.41 625.284 1127.41 625.284 889.5 740.5 c 0,26,27
 810 779 810 779 691 808 c 128,-1,28
 572 837 572 837 483 878.5 c 128,-1,29
 394 920 394 920 339.5 971.5 c 0,30,31
 238 1067.41 238 1067.41 238 1228 c 0,32,33
 238 1360.39 238 1360.39 341 1452.5 c 0,34,35
 454.342 1553.85 454.342 1553.85 662 1571 c 1,36,-1
 662 1852 l 2,37,38
 662 1905 662 1905 682.5 1930.5 c 128,-1,39
 703 1956 703 1956 733 1956 c 0,40,41
 804 1956 804 1956 804 1852 c 2,42,-1
 804 1575 l 1,43,44
 871.297 1572.76 871.297 1572.76 903 1570 c 1,45,-1
 903 1572 l 1,46,47
 905 1604 905 1604 926.5 1622 c 128,-1,48
 948 1640 948 1640 968.5 1640 c 128,-1,49
 989 1640 989 1640 1003.5 1636.5 c 128,-1,50
 1018 1633 1018 1633 1032 1621 c 0,51,52
 1060.75 1596.36 1060.75 1596.36 1089.37 1538.18 c 0,53,54
 1125.34 1465.08 1125.34 1465.08 1163.17 1418.04 c 2,55,-1
 1216.5 1351.5 l 2,56,57
 1260 1296.77 1260 1296.77 1260 1257.39 c 0,58,59
 1260 1174 1260 1174 1186 1174 c 0,60,61
 1126.55 1174 1126.55 1174 1073 1260 c 0,62,63
 1011.22 1360.39 1011.22 1360.39 942 1395 c 0,64,65
 880 1426 880 1426 774.5 1426 c 128,-1,66
 669 1426 669 1426 605 1406.5 c 128,-1,67
 541 1387 541 1387 503.5 1357.5 c 0,68,69
 435 1303.61 435 1303.61 435 1231 c 0,70,71
 435 1142.38 435 1142.38 493.5 1088 c 0,72,73
 568.053 1018.7 568.053 1018.7 739.027 975.848 c 128,-1,74
 910 933 910 933 1011 882.5 c 128,-1,75
 1112 832 1112 832 1175.5 771 c 0,76,77
 1294.7 656.495 1294.7 656.495 1299 493 c 1,78,79
 1302.9 290.332 1302.9 290.332 1162 150.5 c 0,80,81
 1026.19 15.7215 1026.19 15.7215 814 -9 c 1,82,-1
 814 -288 l 2,83,84
 814 -395 814 -395 743 -395 c 128,-1,85
 672 -395 672 -395 672 -288 c 2,86,-1
 672 -14 l 1,87,88
 581.691 -9.59468 581.691 -9.59468 519 7 c 1,0,1
EndSplineSet
EndChar

StartChar: cent
Encoding: 162 162 133
Width: 1029
Flags: HW
LayerCount: 2
Fore
SplineSet
526 -275 m 128,-1,1
 455 -275 455 -275 455 -168 c 2,2,-1
 455 94 l 1,3,4
 293.895 119.777 293.895 119.777 192.5 232 c 0,5,6
 81 355.408 81 355.408 81 555 c 0,7,8
 81 722.556 81 722.556 186.5 851.5 c 0,9,10
 290.784 978.958 290.784 978.958 455 1011 c 1,11,-1
 455 1278 l 2,12,13
 455 1331 455 1331 475.5 1356.5 c 128,-1,14
 496 1382 496 1382 526 1382 c 0,15,16
 597 1382 597 1382 597 1278 c 2,17,-1
 597 1018 l 1,18,19
 657.118 1011.56 657.118 1011.56 693 999 c 1,20,21
 696 1025 696 1025 712.5 1041.5 c 128,-1,22
 729 1058 729 1058 753.5 1058 c 0,23,24
 797.909 1058 797.909 1058 815 1011 c 0,25,26
 823.135 989.308 823.135 989.308 835.067 969.654 c 0,27,28
 880.705 896.506 880.705 896.506 896.852 877.253 c 128,-1,29
 913 858 913 858 923.5 843 c 0,30,31
 948 808 948 808 948 778 c 128,-1,32
 948 748 948 748 930.5 729.5 c 128,-1,33
 913 711 913 711 893 711 c 128,-1,34
 873 711 873 711 860 714 c 128,-1,35
 847 717 847 717 834 725 c 0,36,37
 808.419 740.742 808.419 740.742 783.21 772.371 c 128,-1,38
 758 804 758 804 735 818 c 128,-1,39
 712 832 712 832 683.5 841.5 c 0,40,41
 622 862 622 862 553.5 862 c 128,-1,42
 485 862 485 862 428.5 838.5 c 128,-1,43
 372 815 372 815 334 774.5 c 0,44,45
 256 691.368 256 691.368 256 552.184 c 128,-1,46
 256 413 256 413 332 329.5 c 128,-1,47
 408 246 408 246 551 246 c 0,48,49
 718.667 246 718.667 246 780 338 c 0,50,51
 802 371 802 371 819.5 384 c 128,-1,52
 837 397 837 397 865 397 c 128,-1,53
 893 397 893 397 912.5 377.5 c 128,-1,54
 932 358 932 358 932 326.5 c 128,-1,55
 932 295 932 295 910 256.5 c 128,-1,56
 888 218 888 218 845.5 184 c 0,57,58
 745.266 103.813 745.266 103.813 597 91 c 1,59,-1
 597 -168 l 2,60,0
 597 -275 597 -275 526 -275 c 128,-1,1
EndSplineSet
EndChar

StartChar: ae
Encoding: 230 230 134
Width: 1880
Flags: HW
LayerCount: 2
Fore
SplineSet
904 174 m 1,0,1
 743.929 -15 743.929 -15 483 -15 c 0,2,3
 195.189 -15 195.189 -15 115 155 c 0,4,5
 90 208 90 208 90 276 c 128,-1,6
 90 344 90 344 117 401 c 128,-1,7
 144 458 144 458 198.5 498.5 c 0,8,9
 313.556 584 313.556 584 529 584 c 0,10,11
 681.235 584 681.235 584 803 554 c 1,12,-1
 803 647 l 2,13,14
 803 767 803 767 743 823.5 c 128,-1,15
 683 880 683 880 574 880 c 128,-1,16
 465 880 465 880 414.5 859 c 128,-1,17
 364 838 364 838 350 790 c 1,18,19
 334.138 742.414 334.138 742.414 292.5 721 c 0,20,21
 275 712 275 712 252 712 c 0,22,23
 157 712 157 712 157 814 c 0,24,25
 157 901.075 157 901.075 268 966 c 0,26,27
 385.968 1035 385.968 1035 562 1035 c 0,28,29
 830.319 1035 830.319 1035 930 842 c 1,30,31
 997 930 997 930 1098.5 982.5 c 128,-1,32
 1200 1035 1200 1035 1315.5 1035 c 128,-1,33
 1431 1035 1431 1035 1508 1008.5 c 128,-1,34
 1585 982 1585 982 1637.5 938.5 c 0,35,36
 1744 850.257 1744 850.257 1744 729 c 0,37,38
 1744 580.167 1744 580.167 1639 516 c 0,39,40
 1495.86 428.525 1495.86 428.525 977 453 c 1,41,42
 987.003 314.965 987.003 314.965 1084.5 229 c 128,-1,43
 1182.04 143 1182.04 143 1334 143 c 0,44,45
 1531.25 143 1531.25 143 1580 248 c 0,46,47
 1610.71 315 1610.71 315 1655.85 315 c 128,-1,48
 1701 315 1701 315 1722.5 294 c 128,-1,49
 1744 273 1744 273 1744 236.5 c 128,-1,50
 1744 200 1744 200 1716.5 155.5 c 128,-1,51
 1689 111 1689 111 1635.5 73 c 0,52,53
 1511.61 -15 1511.61 -15 1323 -15 c 0,54,55
 1188 -15 1188 -15 1080.5 36.5 c 128,-1,56
 973 88 973 88 904 174 c 1,0,1
977 605 m 1,57,58
 1049 601 1049 601 1105.5 601 c 2,59,-1
 1207.5 601 l 2,60,61
 1253 601 1253 601 1321.5 602.5 c 128,-1,62
 1390 604 1390 604 1441 612 c 128,-1,63
 1492 620 1492 620 1520.5 635 c 0,64,65
 1570 661.053 1570 661.053 1570 725 c 0,66,67
 1570 783.111 1570 783.111 1503.5 828.5 c 0,68,69
 1432.44 877 1432.44 877 1347.22 877 c 128,-1,70
 1262 877 1262 877 1204 858.5 c 128,-1,71
 1146 840 1146 840 1099.5 805 c 0,72,73
 1000.53 730.509 1000.53 730.509 977 605 c 1,57,58
283 337.5 m 128,-1,75
 271 309 271 309 271 280.5 c 128,-1,76
 271 252 271 252 284.5 227 c 128,-1,77
 298 202 298 202 324.5 182.5 c 0,78,79
 380.897 141 380.897 141 458.949 141 c 128,-1,80
 537 141 537 141 587.5 152.5 c 128,-1,81
 638 164 638 164 683 185 c 0,82,83
 777.839 229.258 777.839 229.258 829 306 c 1,84,85
 811 355 811 355 805 409 c 1,86,87
 647.286 441 647.286 441 548.643 441 c 128,-1,88
 450 441 450 441 401.5 426.5 c 128,-1,89
 353 412 353 412 324 389 c 128,-1,74
 295 366 295 366 283 337.5 c 128,-1,75
EndSplineSet
EndChar

StartChar: thorn
Encoding: 254 254 135
Width: 1194
Flags: HW
LayerCount: 2
Fore
SplineSet
157 1411 m 1,0,-1
 72 1399 l 1,1,2
 32 1399 32 1399 7 1419.5 c 128,-1,3
 -18 1440 -18 1440 -18 1477 c 0,4,5
 -18 1552.52 -18 1552.52 91 1563 c 0,6,7
 151.69 1568.52 151.69 1568.52 182.845 1576.76 c 2,8,-1
 232 1589.5 l 2,9,10
 250 1594 250 1594 285.5 1594 c 128,-1,11
 321 1594 321 1594 339 1567 c 128,-1,12
 357 1540 357 1540 357 1498 c 2,13,-1
 357 903 l 1,14,15
 411 964 411 964 490.5 999.5 c 128,-1,16
 570 1035 570 1035 664 1035 c 128,-1,17
 758 1035 758 1035 844.5 1004.5 c 128,-1,18
 931 974 931 974 995.5 911 c 0,19,20
 1135 774.744 1135 774.744 1135 519 c 0,21,22
 1135 293.855 1135 293.855 990 141.5 c 0,23,24
 841.055 -15 841.055 -15 608 -15 c 0,25,26
 506.519 -15 506.519 -15 410.5 27.5 c 0,27,28
 380 41 380 41 357 59 c 1,29,-1
 357 -140 l 2,30,31
 357 -288.667 357 -288.667 384.5 -334.5 c 0,32,33
 395 -352 395 -352 417 -366 c 0,34,35
 460 -393.364 460 -393.364 460 -433.182 c 0,36,37
 460 -523 460 -523 360 -523 c 0,38,39
 238 -523 238 -523 197.5 -355 c 0,40,41
 184 -299 184 -299 184 -224 c 2,42,-1
 184 1353 l 2,43,44
 184 1391 184 1391 177 1401 c 128,-1,45
 170 1411 170 1411 157 1411 c 1,0,-1
649 879 m 0,46,47
 467.582 879 467.582 879 357 723 c 1,48,-1
 357 240 l 1,49,50
 457.66 143 457.66 143 629 143 c 0,51,52
 773.971 143 773.971 143 869.5 255 c 0,53,54
 961 362.276 961 362.276 961 508 c 0,55,56
 961 789.474 961 789.474 775 858 c 0,57,58
 718 879 718 879 649 879 c 0,46,47
EndSplineSet
EndChar

StartChar: Thorn
Encoding: 222 222 136
Width: 1536
Flags: HW
LayerCount: 2
Fore
SplineSet
441 6 m 1,0,-1
 231 0 l 1,1,2
 186 0 186 0 160 21.5 c 128,-1,3
 134 43 134 43 134 79 c 256,4,5
 134 115 134 115 164.5 138 c 128,-1,6
 195 161 195 161 246 161 c 2,7,-1
 341 161 l 1,8,-1
 341 1413 l 1,9,-1
 246 1413 l 2,10,11
 195 1413 195 1413 164.5 1436 c 128,-1,12
 134 1459 134 1459 134 1495 c 256,13,14
 134 1531 134 1531 160 1552.5 c 128,-1,15
 186 1574 186 1574 231 1574 c 1,16,-1
 441 1568 l 1,17,18
 638 1574 l 1,19,20
 717.444 1574 717.444 1574 739 1525.5 c 0,21,22
 745 1512 745 1512 745 1487 c 128,-1,23
 745 1462 745 1462 716.5 1437.5 c 128,-1,24
 688 1413 688 1413 618 1413 c 2,25,-1
 527 1413 l 1,26,-1
 527 1222 l 1,27,28
 648.333 1235 648.333 1235 793.667 1235 c 128,-1,29
 939 1235 939 1235 1064 1204.5 c 128,-1,30
 1189 1174 1189 1174 1275 1117.5 c 0,31,32
 1450 1002.53 1450 1002.53 1450 800 c 0,33,34
 1450 476.344 1450 476.344 1064 385 c 0,35,36
 933 354 933 354 755 354 c 0,37,38
 690.333 354 690.333 354 649.667 356 c 2,39,-1
 580 359.5 l 2,40,41
 551 361 551 361 527 363 c 1,42,-1
 527 161 l 1,43,-1
 618 161 l 2,44,45
 688 161 688 161 716.5 136.5 c 128,-1,46
 745 112 745 112 745 87 c 128,-1,47
 745 62 745 62 739 48.5 c 128,-1,48
 733 35 733 35 720.5 24 c 0,49,50
 693.227 1.96017e-05 693.227 1.96017e-05 638 0 c 1,51,-1
 441 6 l 1,0,-1
986.5 1049.5 m 0,52,53
 894 1070 894 1070 756.5 1070 c 128,-1,54
 619 1070 619 1070 527 1058 c 1,55,-1
 527 527 l 1,56,57
 633.667 517 633.667 517 765 517 c 0,58,59
 1253 517 1253 517 1253 790 c 0,60,61
 1253 990.438 1253 990.438 986.5 1049.5 c 0,52,53
EndSplineSet
EndChar

StartChar: dotlessi
Encoding: 305 305 137
Width: 682
Flags: HW
LayerCount: 2
Fore
SplineSet
209 0 m 0,0,1
 112 0 112 0 112 74 c 256,2,3
 112 110 112 110 142.5 130 c 128,-1,4
 173 150 173 150 224 150 c 2,5,-1
 302 150 l 1,6,-1
 302 802 l 2,7,8
 302 862 302 862 276 862 c 0,9,10
 264.25 862 264.25 862 244.125 856.5 c 0,11,12
 213.023 848 213.023 848 181.511 848 c 128,-1,13
 150 848 150 848 125 869 c 128,-1,14
 100 890 100 890 100 926.5 c 0,15,16
 100 1002.41 100 1002.41 208 1013 c 0,17,18
 274.879 1018.9 274.879 1018.9 303.44 1026.95 c 0,19,20
 360.385 1043 360.385 1043 399.693 1043 c 0,21,22
 475 1043 475 1043 475 947 c 2,23,-1
 475 150 l 1,24,-1
 554 150 l 2,25,26
 680 150 680 150 680 71 c 0,27,28
 680 43 680 43 655.5 21.5 c 128,-1,29
 631 0 631 0 592.5 0 c 0,30,31
 532.5 0 532.5 0 503.75 2 c 0,32,33
 446.25 6 446.25 6 404.125 6 c 128,-1,34
 362 6 362 6 341 5 c 2,35,-1
 297 3 l 2,36,37
 247 0 247 0 209 0 c 0,0,1
EndSplineSet
EndChar

